<?xml version="1.0" encoding="utf-8"?>
<!-- Generator: Adobe Illustrator 19.2.1, SVG Export Plug-In . SVG Version: 6.00 Build 0)  -->
<svg version="1.1" id="Layer_1" xmlns="http://www.w3.org/2000/svg" xmlns:xlink="http://www.w3.org/1999/xlink" x="0px" y="0px"
	 viewBox="0 0 63.1 64.7" style="enable-background:new 0 0 63.1 64.7;" xml:space="preserve">
<style type="text/css">
	.st0{fill:#B3B4B7;}
	.st1{fill:#FFFFFF;}
</style>
<g>
	<g>
		<path class="st0" d="M43.9,5.2v8.5h-4.7c0,0-4.2-0.6-4.2,3.5v6.6h8.9l-1.1,9.2H35v25.7H24.7V32.8h-6.9v-9.1H25v-7.7
			c0,0-0.9-4.2,2.9-7.7c3.8-3.5,8.8-3.2,8.8-3.2H43.9z"/>
		<g>
			<g>
				<g>
					<g>
						<path class="st0" d="M43.7,4.6c0.3,0,0.2-0.1,0.2-0.1C43.5,4.5,43.7,4.6,43.7,4.6z"/>
						<polygon class="st0" points="39.5,4.8 39.6,4.8 39,4.9 						"/>
						<path class="st0" d="M35.6,4.8c0.4,0.1,1.4,0,2.1,0l0.1,0l0.3-0.1C37.4,4.8,36.3,4.8,35.6,4.8z"/>
						<path class="st0" d="M33.5,4.7c0.1,0-0.4,0.1,0.5-0.1c0,0-0.1,0-0.1,0C33.8,4.7,33.7,4.7,33.5,4.7z"/>
						<path class="st0" d="M33.9,4.7C34.3,4.6,33.6,4.7,33.9,4.7L33.9,4.7z"/>
						<path class="st0" d="M32,5.2L32.5,5c-0.1,0-0.6,0.1-0.4,0C31.5,5.2,31.6,5.2,32,5.2z"/>
						<path class="st0" d="M31.5,5.5l0.3-0.1C31.7,5.4,31.6,5.4,31.5,5.5z"/>
						<path class="st0" d="M32.3,5.1c0,0-0.1,0.1-0.3,0.1c-0.1,0.1-0.3,0.1-0.3,0.1c0.1,0,0.1,0.1,0.3-0.1C32,5.3,32.1,5.2,32.3,5.1
							z"/>
						<path class="st0" d="M32.7,5.1C33,5,33.4,4.9,32.9,5.1C33.9,4.9,33.7,4.8,32.7,5.1z"/>
						<path class="st0" d="M35.4,5l0.4,0L36.2,5C36,5,35.4,5,35.4,5z"/>
						<path class="st0" d="M28.7,6.7c0,0.1,0.2,0,0.3,0l0.3-0.3C29.1,6.5,28.8,6.7,28.7,6.7z"/>
						<path class="st0" d="M29,6.7l-0.5,0.4C29,6.8,29,6.7,29,6.7z"/>
						<path class="st0" d="M31.5,5.7c0,0,0.2-0.1,0.5-0.2c0.2-0.1,0.5-0.2,0.5-0.2s-0.3,0.1-0.6,0.3c-0.3,0.1-0.5,0.3-0.5,0.3
							L31.5,5.7z"/>
						<polygon class="st0" points="26.9,8.2 27.1,7.9 26.7,8.5 						"/>
						<path class="st0" d="M25.8,9.5c0.1-0.3-0.3,0.2-0.2,0c-0.3,0.4-0.4,0.8-0.5,1.1C25.3,10.2,25.5,9.9,25.8,9.5z"/>
						<path class="st0" d="M25,11.1c0.1-0.2,0.1-0.4,0.2-0.6C25.1,10.7,25,10.9,25,11.1z"/>
						<path class="st0" d="M27.7,7.7c0,0-0.2,0-0.4,0.3l0.3-0.1C27.5,7.8,27.6,7.8,27.7,7.7z"/>
						<path class="st0" d="M27.5,7.9L27.5,7.9c-0.2,0.2-0.3,0.3-0.4,0.4C27.2,8.2,27.3,8.1,27.5,7.9z"/>
						<path class="st0" d="M27.7,7.7L27.7,7.7C27.7,7.7,27.7,7.7,27.7,7.7z"/>
						<path class="st0" d="M30,6.3c-0.3,0.2-0.9,0.7-0.2,0.4C29.9,6.5,29.5,6.6,30,6.3z"/>
						<path class="st0" d="M28,7.6c0,0,0.1-0.1,0.3-0.2c0.1-0.1,0.3-0.2,0.3-0.2c0,0-0.1,0,0-0.1c0,0-0.1,0.1-0.3,0.2
							C28.2,7.5,28,7.6,28,7.6z"/>
						<polygon class="st0" points="27.8,7.8 28,7.6 27.9,7.7 						"/>
						<path class="st0" d="M25.6,10.1c-0.1,0.3-0.3,0.5-0.4,0.9c0.2-0.3,0.4-0.7,0.6-1C25.8,9.9,25.8,9.8,25.6,10.1z"/>
						<path class="st0" d="M26.5,9L26.5,9C26.5,9,26.5,9,26.5,9z"/>
						<polygon class="st0" points="24.3,14.4 24.4,14.4 24.3,14.4 						"/>
						<path class="st0" d="M25.8,10c0.2-0.2,0.3-0.4,0.3-0.5C26,9.6,25.9,9.8,25.8,10C25.8,10,25.8,10,25.8,10z"/>
						<path class="st0" d="M24.7,12.1c0.1-0.1,0.1-0.3,0.2-0.5C24.8,11.7,24.7,12,24.7,12.1z"/>
						<path class="st0" d="M26.3,9.1L26.3,9.1C26.3,9.1,26.3,9.1,26.3,9.1z"/>
						<path class="st0" d="M26.3,9.1c-0.1,0.1-0.1,0.2-0.2,0.3C26.2,9.3,26.3,9.1,26.3,9.1C26.4,9,26.4,9.1,26.3,9.1z"/>
						<path class="st0" d="M25,15.5c-0.1,0-0.2-0.8-0.1-1.4c0-0.6-0.4-0.3-0.6,0.3c0,0,0.1,0,0.1,0.7c0-0.2,0.2-1.4,0.2-0.9
							c0,0.8-0.1,0.7-0.1,1.1c0.1-0.2,0.1,0.1,0.2,0.4c0.1,0.3,0.2,0.6,0.3,0.5c0,0-0.2-0.7-0.1-0.7C25,15.4,25,15.7,25,15.5z"/>
						<path class="st0" d="M24.5,13.1l0-0.3c-0.1,0.3-0.2,0.5-0.3,0.9c0,0.5,0,0.6,0.1,0.6C24.3,14.4,24.5,13,24.5,13.1L24.5,13.1z"
							/>
						<path class="st0" d="M24.9,11.7c0,0.2-0.1,0.9,0.1,0.5c0.3-0.7,0.1-0.5,0.2-1C24.8,12.4,25.3,10.8,24.9,11.7
							c0.1-0.3,0.2-0.5,0.3-0.7C25.1,11.2,25,11.4,24.9,11.7L24.9,11.7L24.9,11.7L24.9,11.7C24.9,11.5,25,11.5,24.9,11.7
							C24.9,11.6,24.9,11.6,24.9,11.7C24.9,11.6,24.9,11.6,24.9,11.7C24.8,12,24.9,11.7,24.9,11.7C24.9,11.6,24.9,11.6,24.9,11.7
							L24.9,11.7c0-0.1-0.1,0.2-0.2,0.5c-0.1,0.3-0.1,0.6-0.1,0.6C24.7,12.6,24.7,12.2,24.9,11.7z"/>
						<path class="st0" d="M29.3,7.2C29.3,7.2,29.2,7.2,29.3,7.2C29.2,7.3,29.2,7.3,29.3,7.2z"/>
						<path class="st0" d="M28.8,7.5c0.1-0.1,0.1-0.1,0.3-0.3c0.2-0.1,0,0,0.1,0.1c0.1-0.1,0.5-0.4,0-0.1l-0.1,0.1
							c-0.4,0.2-1,0.5-1,0.5C28.4,7.6,28.5,7.6,28.8,7.5z"/>
						<path class="st0" d="M26.6,9.3c0,0-0.6,0.9-0.6,0.9l0.4-0.4l-0.1,0C26.7,9.3,26.6,9.4,26.6,9.3z"/>
						<path class="st0" d="M24.3,14.5l-0.1-0.2c0,0,0,0.2,0.1,0.3c0,0.2,0.1,0.3,0.1,0.3L24.3,14.5z"/>
						<path class="st0" d="M24.4,16l-0.1,0c0,0,0,0.1,0.1,0.2c0,0,0,0.1,0,0.1c0,0,0,0,0,0c0,0,0,0,0,0C24.4,16.1,24.4,16,24.4,16z"
							/>
						<path class="st0" d="M34.4,51.4l0-0.3C34.4,51.3,34.4,51.4,34.4,51.4z"/>
						<path class="st0" d="M34.4,53.6L34.4,53.6C34.4,53.5,34.4,53.5,34.4,53.6z"/>
						<path class="st0" d="M24.1,34.1C24,34.5,23.9,35,24,34.9l0.1-0.1C24.1,34.5,24.1,34.3,24.1,34.1z"/>
						<path class="st0" d="M24.7,56.2l0-0.1c0-0.1-0.1-0.2-0.1-0.3C24.7,55.9,24.7,56.1,24.7,56.2z"/>
						<path class="st0" d="M25.2,56.5l-0.1,0.6C25.1,57,25.2,56.8,25.2,56.5z"/>
						<path class="st0" d="M34.3,39.6l-0.1-0.3C34.2,39.8,34.2,39.6,34.3,39.6z"/>
						<path class="st0" d="M19.4,23.2c-0.4,0-0.6-0.1-1.1-0.1c0.2,0,0.4,0,0.5,0c0.1,0,0.2,0,0.3,0C19.2,23.2,19.3,23.2,19.4,23.2z"
							/>
						<path class="st0" d="M35.5,52.3c0-0.2,0-0.3-0.1-0.3C35.5,52.2,35.5,52.3,35.5,52.3z"/>
						<path class="st0" d="M17.1,23.8c0-0.1,0-0.2,0-0.3c0-0.1,0-0.2,0-0.4c0.3,0,0.7,0,1.1,0c-0.4,0-0.8-0.1-1.2,0
							C17.1,23.3,17.1,23.5,17.1,23.8z"/>
						<path class="st0" d="M36,13.7l0.1,0C36.1,13.6,36.1,13.6,36,13.7z"/>
						<path class="st0" d="M44.4,8.8c0,0.1,0,0.3,0,0.5C44.4,9.2,44.4,9.1,44.4,8.8z"/>
						<path class="st0" d="M24.3,21.2C24.3,20.9,24.3,21.1,24.3,21.2L24.3,21.2z"/>
						<path class="st0" d="M24.8,19.8c0,0.1,0,0.1,0.1,0.1C24.8,19.9,24.8,19.9,24.8,19.8z"/>
						<path class="st0" d="M17.8,26.9L17.8,26.9C17.8,26.9,17.8,26.9,17.8,26.9z"/>
						<path class="st0" d="M24.4,20.8c0,0.1,0,0.2,0,0.4C24.4,21.1,24.4,21,24.4,20.8z"/>
						<path class="st0" d="M24.3,20.8c0-0.1,0-0.2,0-0.2C24.3,20.5,24.3,20.6,24.3,20.8z"/>
						<path class="st0" d="M24.3,21.6c0-0.2,0-0.3,0-0.5c0,0.1,0,0.1,0,0.1C24.3,21.3,24.3,21.4,24.3,21.6z"/>
						<path class="st0" d="M43.1,27.6C43.1,27.6,43.1,27.6,43.1,27.6C43.1,27.3,43.1,27.4,43.1,27.6z"/>
						<path class="st0" d="M25.2,41.3L25.2,41.3C25.2,41.3,25.2,41.3,25.2,41.3L25.2,41.3z"/>
						<path class="st0" d="M25.3,42.3c-0.1-0.4-0.1-0.7-0.1-1l-0.3,0.3L25.3,42.3z"/>
						<path class="st0" d="M34.4,46.3L34.3,47c-0.2-0.9-0.1-1.5-0.2-0.8c0.3,0.1,0,2.7,0.4,2.8l-0.1,0.5c0-0.1,0-0.2,0-0.3
							c-0.2,0.9,0.2,0.7,0.2,1.8c0,0.4-0.1,0.7-0.1,0.4l0.1,0.9c0,0.3-0.1,0.2-0.1-0.1l0,1.4l0,0c0.1,0.2,0.1,0.6,0.2,0.9
							c0,0.4,0-0.2-0.1-0.1l0.1,0.8c-0.1,0.3-0.2-0.3-0.2-0.8c-0.3,0.7,0.1,0.6-0.1,2.2l0-0.7c-0.2,0.5-0.1,1-0.2,1.8
							c0.1-0.2,0.3-1.6,0.4-0.8c0,0.1,0,0.3,0,0.4c0,0.1,0,0.2,0,0.3c0,0,0,0.1,0,0.1c0,0,0,0.1,0,0.1c-0.1,0-0.1,0.1-0.1,0.3
							l-0.1,0l-0.1-0.2c-0.1,0,0,0.1-0.2,0.2c-0.7,0-0.8-0.1-0.9-0.2c-1.1,0,0.7,0.2-0.5,0.2c-0.9-0.1-1.5,0-2.5,0.1
							C29.3,58.1,30,58,29.8,58l-0.5,0.1c-0.1,0-0.1,0-0.1-0.1c-0.5,0,0,0.2-0.8,0.2c-0.2,0.2-1.5-0.3-2.4-0.1c-0.2,0,0.1-0.1,0-0.2
							c-0.2,0-0.4,0-0.5,0.1c-0.1,0-0.1,0-0.2,0c-0.1,0-0.2,0-0.3,0.1c0,0-0.1-0.1-0.1-0.3c0,0,0-0.1,0.1-0.3c0-0.2,0.1-0.4,0.1-0.4
							c-0.1,0.6-0.3-0.2-0.4-0.9c-0.1,0.2-0.1,0.4-0.1,0.5l-0.1-1.1c0-0.1,0.1,0,0.1,0.2c0-0.1,0-0.1,0-0.2c0.1-0.4,0.2-0.2,0.2,0.1
							c0,0.1-0.1,0.3-0.1,0.4c0.1,0.3,0.2,0.5,0.3,0.5c0-0.1,0-0.2,0-0.4c0,0.1,0,0.1,0.1,0.1c0,0,0-0.2-0.1-0.3l0.2-0.3l-0.1-0.1
							l0.1-1.5c-0.2-1.1-0.4-2-0.5-3.6c0.1,0.4,0.2,0.1,0.4,0.1c-0.2,0.5,0.1,1.3,0,2.2c0-0.5,0.1-0.4,0.1-0.2L25.1,51
							c0.1,0,0.1-0.3,0.1-0.7c-0.3,0.3-0.2-1.1-0.2-1.8c0.1,0,0.2,0.1,0.1,0.9c0.2-0.8-0.3-1.1-0.1-1.9c0,0.2,0,0.3,0,0.4
							c-0.1-0.4,0-1.5,0.1-1.3l0,0.2c0-1.2,0-3.8-0.2-4c0,0,0.3,0.2,0.3,0.2l-0.7-2.2c0.2,0.2,0.6-0.6,0.7,0.5c0-0.3,0.1-0.7,0-1.3
							c0,0.2-0.3,0.5-0.3,0.2c0.2-0.8,0.1-0.5,0.3-1.5c0,0.3-0.3,0-0.3-0.5c0,0.1,0.3,0,0.3,0.1l-0.3-1.2c0.1,0.3,0.2,0.1,0.3-0.2
							c-0.1,0.1,0-1,0-1.3l-0.1,0.5c0-1.3-0.4-1.3-0.4-2.7c0.1,0.1,0.4,0.5,0.4-0.5c0-0.1-0.1-0.3-0.2-0.4c-0.9,0.2-1.5,0.5-2.4,0.6
							l-0.2-0.1l-0.9,0.1c0.3-0.1,0.8-0.3,1.4-0.4c0.3-0.1,0.6-0.2,0.9-0.2c0.3-0.1,0.8-0.1,1.1-0.2c-0.4,0-0.4-0.1-0.5-0.1
							c0,0-0.1,0-0.2,0c-0.1,0-0.3,0-0.5,0c-0.1,0,0-0.1,0.1-0.1c0.2,0,0.6,0,0.8,0l-2.1,0c0.1,0.2-1.3,0.2-1.3,0.3l1.9-0.2
							c0.1,0.2-1.1,0.5-2.3,0.4c-0.3-0.1,0.2-0.3,0.2-0.4c-0.2,0.1-1.2,0.1-1.3,0.1l0.5-0.1c-0.3,0-0.6,0-0.9,0.1
							c-0.1,0-0.3,0-0.5,0c-0.1,0-0.2,0-0.3,0c-0.1,0-0.1,0-0.2-0.1c0-0.1,0.1-0.2,0-0.2c-0.2,0.2-0.8,1.2-0.9,0.8
							c0-0.1,0.1-0.6,0.1-1.1c0.1-0.4,0.1-0.8,0.2-1c0.2-0.5,0.4,0.7,0.5,0.3c0,0-0.1-0.3-0.1-0.4c0-0.3,0.1,0.1,0.1-0.5
							c-0.2-0.1,0-1.3-0.1-0.3c0-0.6,0-0.7,0-1.4c-0.1,0.2-0.4-0.7-0.4-1.3c0,0,0.1-0.1,0.1-0.2c0-1.3,0.1-2.1,0.1-3.1c0,0,0,0,0,0
							c0.2,0,0.6,0.1,0.5,0.2c0.1,0,0.2-0.1,0.6-0.1c0.4,0.1,0.2,0.1-0.1,0.1c-0.3,0-0.4,0-0.2,0.1c0-0.1,1-0.1,1.5-0.2
							c-0.1-0.1-0.4-0.1-0.7-0.1c-0.3,0-0.8,0.1-1,0.1c-0.1-0.2,0.9-0.4,2.1-0.5c1-0.1,0.4,0.1,0.6,0.1c1,0,1.4-0.1,1.7-0.2
							c0.2,0,0.4-0.1,0.6-0.1c0.1,0,0.2,0,0.4,0c0.2,0,0.2,0,0.3,0c0.2,0.1,0.3,0.1,0.3,0.2c0,0.1-0.1,0.1,0,0.2
							c-0.8,0.1-1.2-0.1-1.8-0.1l0.7,0.1c-0.3,0-0.8,0.1-1.1,0c0.3,0.1,1.4,0.1,2.7,0.1c0-0.8,0-1.5,0.1-2.1c0-0.3-0.1-0.7-0.1-0.5
							l0,0.5c-0.1,0.4-0.1-0.9-0.2-0.3c-0.1-0.6-0.2-1.3-0.1-2.2l0.2-0.2c0,0-0.1,0.6,0,0.8c-0.1-0.4,0.2-1.3,0-1.8l-0.1,0.6
							c-0.1-0.6-0.2-1.4-0.2-2.2c-0.2,0.4,0,0.2-0.2,0.7c0.2-0.5,0,2,0.2,1.2c-0.2,0.6-0.1,1-0.3,1.7c0.1,0,0.1-0.3,0.1,0.4
							c0,0,0,0.1,0,0.1c0,0,0,0,0,0l0,0c0,0,0,0,0,0c0-0.2,0-0.3,0.1-0.3c0.1,0.3,0.1,1.4,0.2,1.7c0,0.4-0.1-0.2-0.1,0l0.1,0.5
							c-0.1,0.2-0.2,0.4-0.3,0.1l0,0.3l0,0c-0.1,0-0.2,0-0.2,0l0,0l-0.2,0c-0.1,0-0.2,0-0.3,0c-0.4,0-1,0.1-0.6,0l-1.3,0.1l0,0
							c-0.6,0-1.2,0-1.9,0.1c-0.3,0-0.6,0-1,0c-0.5,0-1,0-1.6-0.1c0,0.1,0,0.2,0,0.3c0,0.4,0,0.7,0,1.1c0,0.3,0,0.6,0,0.9l-0.1,0.1
							c0,0.6-0.1,1.7,0,1.9c-0.3,0.6-0.1,2.7-0.1,3.6l0.1,0c0,0.3,0,0.6,0,0.9c0,0.4,0,0.8,0,1.3c0.3,0,0.6,0,1,0l0-0.1
							c0.1,0,0.3,0,0.4,0c0.1,0,0.3,0,0.4,0c0.2,0,0.5,0,0.7,0c0.5,0,1.1,0.1,1.6,0.1c-0.1,0-0.4,0-0.6,0c0.7,0.1,1.4,0.1,2.1,0
							c0.3,0,0.7-0.1,1-0.1c0.2,0,0.3,0,0.4,0l0,0c0,0.1,0,0.2,0,0.3c0,0,0,0,0,0c0,0,0,0,0,0.1c0,0,0,0.2-0.1,0.3
							c0-0.1,0-0.2,0.1-0.3c0,0.2,0,0.6,0,0.9l-0.1,0.1c0,0,0,0.1,0,0.1c0,0.3,0.1,0.3,0.1,0.1c0,0.2,0,0.3,0.1,0.5
							c-0.2,0.3,0.1,0.9-0.1,1.3c0.1,0.2,0.1,1.8,0.3,1.9c0,0,0,0.1,0-0.1c0,0.4,0,0.8,0,1.1l-0.2,0.2l0.2,0.9
							c-0.1,0.5-0.1,0.7-0.3,0.2c0.2,1.2,0.1,1,0.2,2.1L24.3,43c0,0.4,0.1,1,0.1,1.2c-0.2,0.8,0,4.2-0.2,6.3c0.3-0.4-0.1,1,0.1,1.1
							c-0.1,0.1-0.1,0.4-0.2,0.1c0.1,1.1-0.1,1.7,0.1,2.4c-0.1,0.1-0.1-0.2-0.1-0.1c0,0.1,0.1,0.4,0,0.5c0,0.1-0.1-0.2-0.1-0.3
							c0,1.1,0.2,1.2,0.4,1.3c-0.1,0.6-0.1,0.9,0,1.3c-0.1,0.2-0.1,0.5-0.2-0.2c0,0.1,0,0.5,0,0.9c0,0.3,0,0.6,0,0.8
							c0,0.3,0,0.5,0,0.8c0.3,0,0.5,0,0.5-0.1c0.1,0,0.8,0,0.9,0c0.9,0,1,0,1.8,0l-0.2,0c0.3-0.2,0.7,0,1.4-0.1l0,0
							c1.6,0.1,0.7-0.1,2.3,0.1l-0.1-0.1c0.1-0.3,1.4,0.2,2.3,0.1l-0.3-0.1c0.3,0,0.6,0,1,0.1c0.3,0.1,1,0.2,1.4,0.2
							c0.2,0-0.3,0-0.5,0.1c0.4,0,0.7,0,0.9,0c0-0.7-0.2,0-0.2-1.2c0.1-0.2,0.2,0.4,0.2-0.6c0.1-0.3-0.3-1.9-0.1-2.8
							c-0.1,0.2-0.1,0.4-0.2-0.1c0-0.7,0.2-1.9,0-2.5c0-0.1,0-0.1,0.1-0.1c-0.1-0.5-0.1-1.7-0.2-2.1c0.4-0.5-0.2-3.3,0.2-3.3l0-1.6
							l0,0c0-1.1-0.1-1.4-0.2-1.8c0-0.2,0.1-0.1,0.1,0c0.1-1.5,0.1-1.7-0.1-3l0.1-0.1c-0.1-0.3,0.2-2.2,0-3.7c0,0,0,0,0.1,0.2
							c0-0.6,0-1.2,0-1.9c0-0.4,0.1-0.8,0.1-1.1c0.2,0,0.2,0,0.5-0.2l1.1-0.1c-1.4,0,0.2-0.2-0.4-0.3c0.6,0,1.5,0.1,0.8,0.2l-0.1,0
							c-0.3,0.2,1.8,0.1,1.8,0.2c0.6,0,1.2,0,1.8,0c0.7,0,1.5,0,2.2,0c0.2-1.7,0.5-3.4,0.7-5l-0.2,0.3l0.1-0.9
							c0.1-0.2,0.2-0.3,0.1,0.3c0.1-0.3,0-1.1,0-1.1c0.2-1.3,0.2,0.5,0.2,0.1l0-0.5l0,0.1c0-0.4-0.1-0.5,0-1.3
							c0.1-0.5,0.1-0.2,0.2-0.4c0,0,0-0.1,0.1-0.5l0.1-1.2l-0.6,0l0.5,0.1l0,0.1l0-0.1c-0.8,0.1-1.4,0-0.8,0.1
							c-0.2-0.1-0.8-0.1-1.2-0.1c-0.5,0-1,0-1.5,0c-1.1,0-2.1,0-2.3,0c-0.7,0.1-1.4,0.1-2.3,0.1c0.2,0,0.3,0.2-0.4,0.2
							c0.1-0.2-0.2-0.2-0.4-0.2c0-0.1,0-0.3,0-0.4c0-0.1,0-0.1,0-0.2c0-0.1,0-0.2,0.1-0.2c-0.2,0.6,0-2.2-0.3-1.3
							c0-0.6,0.1,0,0.2-0.5c-0.1-0.8,0-1.6,0-2.5c0-0.9,0-1.8,0.3-2.5c0,0-0.2,0.2-0.1-0.2c0,0,0.1-0.2,0.3-0.3
							c0.2-0.1,0.4-0.2,0.3-0.2c0.2-0.2,0-0.4,0.6-0.6c-0.1,0-0.2,0,0-0.1c0.5-0.2,1-0.3,1.6-0.3c0.1,0,0.3,0,0.4,0l0.2,0
							c0.1,0,0.2,0,0.3,0l0.9,0c1.3,0,2.7,0,4,0l0-1.4c0-0.3,0-0.7,0-1c0-0.7,0.1-1.4,0.1-2c-0.1,0.5-0.1,0.2-0.1-0.2
							c0,0.3-0.1,0-0.2,0l0.2-1.6c-0.2-0.3,0-1.7-0.2-1.8l0,0.5c-0.2-0.7-0.4,0.9-0.7,0.8c0.2,0.7-0.3,2,0,3.2
							c0,0.3-0.1-0.2-0.1-0.1c0.1,0.3,0.1,0.7,0.1,1.4l0-0.1c0,0.4,0,0.7,0,1.1c0,0.2,0,0.3,0,0.5c-0.1,0-0.2,0-0.4,0l-0.2,0
							c-0.1,0-0.2,0-0.3,0c-0.5,0-1,0-1.6-0.1l0.2,0.1c-0.5,0-0.6-0.1-0.8-0.1c-0.5,0.2,1.3,0,0.8,0.2c-0.3-0.1-1.2-0.1-1.9-0.1
							c-0.8-0.1-1.7,0-1.9,0c-0.8,0.2,0.3,0.1-0.5,0.3l-0.2,0c0,0-0.1,0.2-0.1,0.2c-0.5,0.2-0.7,0.4-0.8,0.3
							c0.1-0.1,0.3-0.3,0.4-0.3c-0.2,0.1-0.3,0.2-0.5,0.4c-0.2,0.2-0.3,0.4-0.5,0.6c-0.3,0.4-0.4,0.8-0.4,0.9c0,0,0.1-0.2,0.2-0.4
							c0.1-0.2,0.2-0.3,0.2-0.3c-0.7,1-0.6,2.3-0.6,3.4c0,1.1,0,2.2,0.1,3.1l0.1-0.1c0.1,0.7,0,1,0,1.3c0,0.2,0,0.3,0,0.6
							c0,0.3,0,0.7,0,1.2c0,0,0.1,0,0.1,0l-0.1,0c0.3,0,0.5,0,0.8-0.1c0.3,0,0.6,0,0.8,0c-0.4,0.1,0.8,0.1,0.2,0.2
							c1.6-0.1,0.8-0.1,1.8-0.3l0.2,0.1c0.4-0.1,0.4-0.1,1.2-0.2c-0.7,0.1,0.5,0.1-0.2,0.2c1.7,0.2,2.5-0.2,3.2,0.1
							c0.8-0.3-1.4-0.1-1-0.2c-0.4-0.1,0.6-0.2,1.2-0.2c0.3,0,0.5,0.1,0.7,0.2c-0.1,0.2-0.1,0.4-0.2,0.7c0-0.1,0-0.1,0-0.2
							c0,0.1-0.1,0.4-0.1,0.6c0,0.3,0,0.5-0.1,0.8c0.1,0.4-0.1,0.8,0.1,0.9l0.1-1.2c0,0.7,0.1,1.4-0.1,2.5c0-0.1,0-0.4,0-0.7
							c-0.1,0.3,0,0.6-0.1,1c-0.2-0.1,0.1-1.5,0.1-2.2c-0.1,0.3,0,1.4-0.2,1c0.2,0.6-0.2,1.3-0.1,2.2l-0.1-0.1c0,0.1,0,0.4,0,0.7
							l-0.1-0.5c0,0.7-0.3,1.4-0.3,2.1c0.2-1.5,0.2-0.3,0.3-0.9c0,0.3,0,0.6-0.1,0.8c0,0.2-0.1,0.3-0.1,0.4
							c-0.1,0.1-0.1,0.1-0.2,0.2c-0.1,0-0.1,0-0.2,0c0,0-0.1,0-0.1,0c-0.1,0-0.2,0-0.3,0c0.1,0,0.2,0,0.3,0c0.1,0,0.1,0,0.1,0
							c0.1,0,0.1,0.1,0,0.1c0,0-0.1,0-0.1,0l-0.3,0c-0.2,0-0.4,0-0.5-0.1c-1.3,0,0.2,0.1-0.4,0.2c-0.5-0.1-0.7,0.1-1.3,0.1l0-0.1
							c-1.5-0.1-0.4,0.3-1.8,0.2l0.6-0.2l-0.7,0l0.1-0.1c-0.8,0.1-1,0.1-1.8,0c0.1,0,0.1,0.1-0.1,0.1c-0.2,0-0.5,0.1-1,0.1
							c-0.4,0-0.3-0.1-0.3-0.1c0,0,0,0.2,0,0.8c-0.1-0.2-0.1-0.5-0.1-0.9c0.2,0,0.4,0,0.6,0.1c0,0,0.3-0.1,0.4-0.1
							c-0.3,0-0.7,0-1.1,0c0,0.6,0,1.3,0,1.7c0-0.2,0-0.5,0-0.6c0,0,0,0.1,0,0.4c0,0.3,0,0.4,0.1,0.6c0,0.3,0.1,0.7,0.1,0.7
							c0,0.2-0.1,0-0.1-0.1c0,0.3,0.1,0.5,0.1,0.9c-0.1-0.1-0.2-0.1-0.2-0.7l0.1,1.3c0,0.1-0.1,0.7-0.2,0.5
							c-0.1,0.7,0.2,1.8,0.1,2.8c0,0.1,0,0.2,0.1,0.4c0,0.9-0.1,1.7,0,2.8l-0.2,0.6c0,0.9,0.2-0.8,0.3,0.6c0.1,1-0.1,0.4-0.2,0.7
							c0.1,0.5,0.3,1.4,0.1,2.3C34.3,46.8,34.4,46.5,34.4,46.3z M34.4,56.8c0-0.2-0.1-0.6,0-0.8C34.5,56.3,34.5,56.4,34.4,56.8z
							 M25,54.7c0,0.2,0,0.4,0,0.7C24.9,55.1,24.9,54.9,25,54.7z M24.2,23.2L24.2,23.2C24,23.1,24.1,23.1,24.2,23.2z M24.5,23
							C24.5,23,24.4,23,24.5,23c0,0,0,0.1,0,0.2l0,0l0,0C24.5,23.2,24.5,23.1,24.5,23z M44.3,24.7c0,0,0,0.1,0,0.1c0,0,0,0.1,0,0.1
							C44.2,24.4,44.2,24.5,44.3,24.7z"/>
						<path class="st0" d="M25.1,56.5C25.1,56.6,25.1,56.6,25.1,56.5C25.1,56.7,25.1,56.7,25.1,56.5z"/>
						<path class="st0" d="M34.3,39.7L34.3,39.7C34.3,39.7,34.3,39.6,34.3,39.7L34.3,39.7z"/>
						<path class="st0" d="M18.3,30.7c0,0.2,0,0.3-0.1,0.4C18.2,31.1,18.3,31,18.3,30.7z"/>
						<path class="st0" d="M24.3,18.3l0,0.6C24.3,18.6,24.3,18.5,24.3,18.3C24.3,18.4,24.3,18.5,24.3,18.3z"/>
						<path class="st0" d="M25.1,13.1c0-0.1,0-0.2,0-0.3l-0.1,0C25,13.2,25,13.4,25.1,13.1z"/>
						<path class="st0" d="M24.7,17.7c0.1,0,0.1-0.4,0-0.9V17C24.6,16.8,24.6,17.3,24.7,17.7z"/>
						<path class="st0" d="M24.7,16.8c0-0.1,0-0.3,0-0.4C24.7,16.3,24.7,16.5,24.7,16.8z"/>
						<path class="st0" d="M24.4,22.1c0-0.2-0.1-0.1-0.1-0.2C24.2,21.6,24.5,23.2,24.4,22.1z"/>
						<polygon class="st0" points="25,17.4 24.9,17.5 25,17.8 						"/>
						<path class="st0" d="M24.9,20.7l0-0.7c0,0,0-0.1,0-0.2C24.9,20.3,24.9,20.8,24.9,20.7z"/>
						<path class="st0" d="M24.9,19.9c0-0.2,0-0.4,0-0.5C24.9,19.5,24.9,19.7,24.9,19.9z"/>
						<polygon class="st0" points="25.1,18.3 25,18.5 25,19 						"/>
						<path class="st0" d="M20.7,23.6l-0.7,0c-0.1,0,0.1,0.1,0.4,0.1C20.6,23.7,20.8,23.7,20.7,23.6z"/>
						<path class="st0" d="M23,24c-0.2,0-0.2-0.1-0.3-0.1l0,0.2L23,24z"/>
						<path class="st0" d="M20.8,24c-0.1,0-1.1,0.1-0.1,0.1C20.8,24.1,21.5,24,20.8,24z"/>
						<polygon class="st0" points="17.8,31.9 17.8,31.7 17.6,31.7 						"/>
						<path class="st0" d="M25.4,34.7c0.1-0.9-0.2-0.2-0.1-1c-0.1-0.2-0.1,0.7-0.1,0.5C25.3,34.7,25.2,35,25.4,34.7z"/>
						<path class="st0" d="M25.2,34.2c0-0.1,0-0.2,0-0.3C25.2,34.1,25.2,34.1,25.2,34.2z"/>
						<polygon class="st0" points="44.5,6.7 44.5,6.2 44.5,6.5 						"/>
						<path class="st0" d="M44.3,5.7l0.2-0.1l-0.1-0.3C44.3,5.3,44.3,5.6,44.3,5.7z"/>
						<path class="st0" d="M34.1,57.7L34.1,57.7C34.2,57.8,34.2,57.8,34.1,57.7C34.2,57.7,34.1,57.7,34.1,57.7z"/>
						<polygon class="st0" points="34.2,50.7 34.2,50.8 34.4,50.6 						"/>
						<path class="st0" d="M34,44.3c0,0.3,0,0.6,0,0.8C34,44.6,34.2,44.2,34,44.3z"/>
					</g>
				</g>
			</g>
		</g>
	</g>
	<g>
		<path class="st0" d="M43.9,5.2v8.5h-4.7c0,0-4.2-0.6-4.2,3.5v6.6h8.9l-1.1,9.2H35v25.7H24.7V32.8h-6.9v-9.1H25v-7.7
			c0,0-0.9-4.2,2.9-7.7c3.8-3.5,8.8-3.2,8.8-3.2H43.9z"/>
		<g>
			<path class="st0" d="M43.7,4.2c0.3,0,0.2-0.2,0.2-0.2C43.5,4,43.7,4.2,43.7,4.2z"/>
			<polygon class="st0" points="39.5,4.6 39.6,4.5 39,4.7 			"/>
			<path class="st0" d="M35.6,4.6c0.2,0.1,0.6,0.1,1,0.1c0.4,0,0.8-0.1,1.1,0l0.1,0.1l0.3-0.2C37.3,4.5,36.3,4.6,35.6,4.6z"/>
			<path class="st0" d="M33.4,4.3c0.2,0.1-0.5,0.2,0.5-0.1c0,0-0.1,0-0.1,0C33.7,4.2,33.6,4.2,33.4,4.3z"/>
			<path class="st0" d="M33.8,4.2C34.2,4.1,33.5,4.2,33.8,4.2L33.8,4.2z"/>
			<path class="st0" d="M31.8,4.8l0.5-0.3c-0.1,0-0.6,0.1-0.5,0C31.3,4.7,31.5,4.8,31.8,4.8z"/>
			<path class="st0" d="M31.4,5.1L31.6,5C31.6,5,31.5,5,31.4,5.1z"/>
			<path class="st0" d="M32.2,4.7L31.6,5c0.1,0,0.1,0.1,0.3-0.1C31.9,5,32,4.9,32.2,4.7z"/>
			<path class="st0" d="M32.6,4.7c0.3,0,0.7-0.1,0.2,0.2C33.8,4.5,33.6,4.4,32.6,4.7z"/>
			<path class="st0" d="M35.4,4.9L35.9,5l0.4-0.1C36,4.9,35.4,4.8,35.4,4.9z"/>
			<path class="st0" d="M28.4,6.2c0,0.1,0.3,0,0.3,0.1L29.1,6C28.9,6.1,28.5,6.3,28.4,6.2z"/>
			<path class="st0" d="M28.8,6.3l-0.5,0.5C28.8,6.4,28.8,6.3,28.8,6.3z"/>
			<path class="st0" d="M31.4,5.5l0.9-0.5c0,0-0.3,0.1-0.6,0.3c-0.3,0.2-0.5,0.3-0.5,0.3L31.4,5.5z"/>
			<polygon class="st0" points="26.5,7.9 26.7,7.5 26.3,8.1 			"/>
			<path class="st0" d="M25.4,9.2c0.1-0.3-0.4,0.2-0.3-0.1c-0.3,0.4-0.4,0.8-0.5,1.2C24.8,10,25,9.6,25.4,9.2z"/>
			<path class="st0" d="M24.5,10.9c0-0.2,0.1-0.4,0.1-0.6C24.6,10.5,24.6,10.7,24.5,10.9z"/>
			<path class="st0" d="M27.4,7.4c-0.1,0-0.2,0-0.5,0.2l0.3-0.1C27.3,7.5,27.4,7.5,27.4,7.4z"/>
			<path class="st0" d="M27.2,7.6L27.2,7.6C27,7.8,26.9,7.9,26.8,8C26.9,7.9,27,7.8,27.2,7.6z"/>
			<path class="st0" d="M27.5,7.4L27.5,7.4C27.5,7.4,27.5,7.4,27.5,7.4z"/>
			<path class="st0" d="M29.8,6c-0.3,0.3-0.9,0.8-0.2,0.5C29.8,6.3,29.4,6.4,29.8,6z"/>
			<path class="st0" d="M27.9,7.4c0,0,0.5-0.4,0.6-0.4c0,0-0.2,0-0.1-0.2c0,0-0.1,0.1-0.3,0.3C28,7.2,27.9,7.4,27.9,7.4z"/>
			<polygon class="st0" points="27.6,7.6 27.9,7.4 27.6,7.5 			"/>
			<path class="st0" d="M25.2,9.9c-0.1,0.3-0.3,0.6-0.4,0.9c0.2-0.4,0.4-0.7,0.6-1C25.5,9.7,25.5,9.5,25.2,9.9z"/>
			<path class="st0" d="M26.1,8.7L26.1,8.7C26.2,8.8,26.2,8.7,26.1,8.7z"/>
			<polygon class="st0" points="24,14.4 24,14.3 24,14.3 			"/>
			<path class="st0" d="M25.5,9.8c0.2-0.2,0.3-0.4,0.3-0.6C25.7,9.4,25.6,9.6,25.5,9.8C25.5,9.8,25.5,9.9,25.5,9.8z"/>
			<path class="st0" d="M24.2,11.9l0.3-0.5C24.4,11.6,24.2,11.9,24.2,11.9z"/>
			<path class="st0" d="M26,8.8L26,8.8C25.9,8.8,26,8.8,26,8.8z"/>
			<path class="st0" d="M26,8.8c-0.1,0.1-0.1,0.3-0.2,0.4c0.1-0.1,0.2-0.3,0.3-0.4C26.1,8.8,26,8.8,26,8.8z"/>
			<path class="st0" d="M25.1,15.4c-0.2,0-0.4-0.8-0.1-1.4c0-0.6-0.6-0.3-1,0.3c0.1,0,0.1,0,0.2,0.7c0.1-0.2,0.3-1.5,0.4-0.9
				c0,0.9-0.1,0.7-0.2,1.1c0.1-0.3,0.2,0.4,0.4,0.7c0,0,0,0.1,0.1,0.1c0,0,0,0.1,0.1,0.1c0,0,0.1,0,0.1,0l0,0c0,0,0-0.1,0-0.1l0-0.1
				c-0.1-0.2-0.1-0.3-0.1-0.5C25,15.4,25.1,15.6,25.1,15.4z"/>
			<path class="st0" d="M24.2,13l0-0.3c-0.1,0.3-0.2,0.5-0.4,0.9c0,0.5,0.1,0.6,0.1,0.6c0,0,0.2-1.4,0.2-1.4L24.2,13z"/>
			<path class="st0" d="M24.6,11.5c0.1,0.3,0,0.9,0.3,0.6c0.3-0.8,0-0.6,0.2-1.1C24.6,12.3,25.1,10.7,24.6,11.5
				c0.1-0.3,0.2-0.5,0.3-0.7C24.7,11.1,24.6,11.3,24.6,11.5l-0.1-0.1l0,0l0,0c0,0,0.1-0.1,0,0C24.6,11.4,24.5,11.5,24.6,11.5
				C24.6,11.5,24.6,11.5,24.6,11.5C24.4,11.9,24.5,11.6,24.6,11.5c0-0.1-0.1-0.1-0.1-0.1l0,0c0,0-0.1,0.3-0.2,0.7
				c-0.1,0.3-0.1,0.7-0.1,0.7C24.3,12.5,24.4,12.1,24.6,11.5z"/>
			<path class="st0" d="M29.3,7.2C29.2,7.2,29.2,7.2,29.3,7.2C29.2,7.2,29.2,7.3,29.3,7.2z"/>
			<path class="st0" d="M28.8,7.4c0.1-0.1,0.1-0.2,0.3-0.3c0.2-0.1,0,0.1,0.1,0.1C29.3,7,29.7,6.8,29.2,7L29.1,7
				c-0.4,0.2-1.1,0.5-1,0.4C28.3,7.5,28.4,7.5,28.8,7.4z"/>
			<path class="st0" d="M26.4,9.2c0,0-0.6,0.9-0.6,0.9l0.4-0.4l-0.1,0C26.6,9.2,26.5,9.3,26.4,9.2z"/>
			<polygon class="st0" points="23.9,14.5 23.7,14.4 23.9,15 			"/>
			<path class="st0" d="M24,16l-0.2,0c0,0,0,0.1,0.1,0.1l0,0l0,0l0,0l0,0L24,16L24,16C24,16.1,24,16.1,24,16z"/>
			<path class="st0" d="M34,51.4l0-0.3C34,51.3,34,51.4,34,51.4z"/>
			<path class="st0" d="M34,53.6L34,53.6C34,53.5,34,53.5,34,53.6z"/>
			<path class="st0" d="M23.7,34.3c0,0-0.1,0.1-0.1,0.1c0,0.1-0.1,0.2-0.1,0.3c-0.1,0.2-0.1,0.3,0,0.3l0.2-0.1c0-0.2,0-0.3,0-0.4
				C23.7,34.3,23.7,34.3,23.7,34.3z"/>
			<path class="st0" d="M24.8,56.2l0.1-0.1c-0.1-0.1-0.1-0.2-0.2-0.3C24.7,55.9,24.7,56.1,24.8,56.2z"/>
			<path class="st0" d="M25.5,56.5c0,0-0.1,0.6-0.1,0.5C25.4,57,25.5,56.8,25.5,56.5z"/>
			<path class="st0" d="M33.8,39.6l-0.2-0.3C33.6,39.8,33.7,39.6,33.8,39.6z"/>
			<path class="st0" d="M19.4,22.8c-0.6-0.1-1.1-0.1-1.6-0.1C18.6,22.8,19.2,22.9,19.4,22.8z"/>
			<path class="st0" d="M35.9,52.3c0-0.2-0.1-0.3-0.1-0.3C35.8,52.2,35.8,52.3,35.9,52.3z"/>
			<path class="st0" d="M16.7,23.4c0-0.1,0-0.2,0-0.3l0-0.4c0.3,0,0.7,0,1.1,0c-0.4,0-0.8-0.1-1.2-0.1
				C16.6,22.8,16.6,23.1,16.7,23.4z"/>
			<path class="st0" d="M35.8,13.3c0,0,0.1,0,0.1,0C35.9,13.3,35.9,13.3,35.8,13.3z"/>
			<path class="st0" d="M44.7,8.8c0,0.1,0,0.3,0,0.5C44.7,9.2,44.7,9.1,44.7,8.8z"/>
			<path class="st0" d="M23.9,21.2C23.9,20.9,23.9,21.1,23.9,21.2L23.9,21.2z"/>
			<path class="st0" d="M24.6,19.8c0,0.1,0,0.1,0.1,0.1C24.6,19.9,24.6,19.9,24.6,19.8z"/>
			<path class="st0" d="M17.8,26.9L17.8,26.9C17.8,26.9,17.8,26.9,17.8,26.9z"/>
			<path class="st0" d="M24,20.8c0,0.1,0,0.2-0.1,0.4C23.9,21.1,24,21,24,20.8z"/>
			<path class="st0" d="M23.9,20.8c0-0.1,0-0.2,0-0.2C23.9,20.5,23.9,20.6,23.9,20.8z"/>
			<path class="st0" d="M23.9,21.6c0-0.2,0-0.3,0-0.5c0,0.1,0,0.1,0,0.1C23.9,21.3,23.9,21.4,23.9,21.6z"/>
			<path class="st0" d="M42.9,27.6C42.9,27.6,42.9,27.6,42.9,27.6C42.9,27.3,42.9,27.4,42.9,27.6z"/>
			<polygon class="st0" points="25.5,41.3 25.5,41.3 25.5,41.4 			"/>
			<path class="st0" d="M25.7,42.3c-0.2-0.4-0.2-0.7-0.1-1L25,41.7L25.7,42.3z"/>
			<path class="st0" d="M34,46.3L33.8,47c-0.3-0.9-0.2-1.5-0.4-0.8c0.6,0.1,0.1,2.7,0.6,2.8l-0.1,0.5c0-0.1,0-0.2,0-0.3
				c-0.3,0.9,0.4,0.7,0.3,1.8c0,0.4-0.1,0.7-0.2,0.4l0.1,0.9c0,0.3-0.1,0.2-0.1-0.1l0,1.4l0,0c0.1,0.2,0.2,0.6,0.3,0.9
				c-0.1,0.4-0.1-0.2-0.1-0.1l0.1,0.8c-0.1,0.3-0.3-0.3-0.3-0.8c-0.6,0.7,0.1,0.6-0.2,2.2l-0.1-0.7c-0.2,0.2-0.2,0.5-0.2,0.8
				c0,0.1,0,0.3-0.1,0.5c0,0-0.1,0-0.1,0c0,0,0.1,0,0.1,0c0,0,0.1,0,0.1,0c0,0,0.1-0.1,0.1-0.2c0.1-0.3,0.3-0.4,0.3,0
				c0,0.3-0.1,0.3,0,0.6c-0.2-0.1-0.2,0-0.1,0.2l-0.1,0l-0.2-0.3c-0.1,0.1,0,0.2-0.1,0.3c-0.2,0-0.5-0.2-0.6-0.4
				c-1.1,0,0.7,0.3-0.5,0.4c-0.9-0.1-1.5,0-2.5,0.2c-0.6-0.1,0.1-0.2-0.1-0.2l-0.5,0.2c-0.1,0-0.1-0.1-0.1-0.1
				c-0.5,0.1,0,0.3-0.8,0.3c-0.2,0.3-1.6-0.4-2.3-0.1c-0.1-0.1,0.1-0.2,0.1-0.3c-0.4,0.1-0.5,0.2-0.8,0.2c0,0-0.1-0.1-0.2-0.2
				c0,0,0.2-0.6,0.2-0.6c-0.1,0.2-0.2,0.2-0.3,0.1c-0.1-0.2-0.2-0.6-0.3-0.9c-0.1,0.2-0.2,0.4-0.2,0.5l-0.1-1.1c0-0.1,0.1,0,0.2,0.2
				c0-0.1,0-0.1-0.1-0.2c0.1-0.4,0.2-0.2,0.4,0.1c-0.1,0.1-0.1,0.3-0.2,0.4c0.2,0.3,0.3,0.5,0.5,0.5c0-0.1-0.1-0.2-0.1-0.4
				c0,0.1,0.1,0.1,0.1,0.1c0,0,0-0.2-0.1-0.3l0.3-0.3l-0.1-0.1l0.2-1.5c-0.3-1.1-0.7-2-0.8-3.6c0.2,0.4,0.3,0.1,0.6,0.1
				c-0.3,0.5,0.1,1.3,0.1,2.2c0-0.5,0.1-0.4,0.2-0.2L25.4,51c0.2,0,0.2-0.3,0.2-0.7c-0.4,0.3-0.3-1.1-0.4-1.8c0.1,0,0.3,0.1,0.2,0.9
				c0.3-0.8-0.5-1.1-0.2-1.9c0,0.2,0,0.3,0.1,0.4c-0.1-0.4,0-1.5,0.1-1.3l0,0.2c0-1.2,0-3.8-0.3-4c0,0,0.4,0.2,0.5,0.2l-1.2-2.2
				c0.3,0.2,1-0.6,1.2,0.5c0-0.3,0.1-0.7,0-1.3c0,0.2-0.4,0.5-0.5,0.2c0.3-0.8,0.2-0.5,0.5-1.5c-0.1,0.3-0.5,0-0.5-0.5
				c0.1,0.1,0.5,0,0.5,0.1L25,37.2c0.1,0.3,0.4,0.1,0.5-0.2c-0.1,0.1,0-1,0-1.3l-0.1,0.5c0.1-1.4-0.6-1.3-0.6-2.7
				c0.1,0.1,0.6,0.3,0.6-0.8c-0.1-0.1-0.2-0.2-0.3-0.3c-0.5,0.2-1,0.4-1.4,0.6c-0.4,0.2-0.7,0.3-1.1,0.4l-0.2-0.1l-0.9,0.2
				c0.6-0.4,1.9-1.1,3.7-1.4c-0.7-0.1-0.1-0.2-1.3-0.1c-0.4-0.1,0.7-0.2,1.1-0.2l-2.5-0.1c0.1,0.3-1.3,0.3-1.3,0.5l1.9-0.3
				c0.1,0.3-1.1,0.8-2.3,0.7C20.4,32.4,21,32.1,21,32c-0.2,0.1-1.2,0.2-1.3,0.1l0.5-0.1c-0.3-0.1-0.7,0-0.9,0.1
				c-0.1,0.1-0.4,0.1-0.5,0c-0.1,0-0.1-0.1-0.1-0.1c0.1-0.2,0.1-0.3,0.1-0.2c-0.3,0.4-1.3,1.7-1.5,1.4c0-0.1,0.1-0.6,0.2-1.2
				c0.1-0.6,0.2-1,0.3-1.1c0.2-0.5,0.6,0.7,0.8,0.3c-0.1,0-0.2-0.3-0.2-0.4c0.1-0.3,0.2,0.1,0.2-0.5c-0.3-0.1,0-1.3-0.2-0.3
				c-0.1-0.6,0.1-0.7,0-1.4c-0.2,0.2-0.6-0.7-0.7-1.3c0.1,0,0.2-0.1,0.2-0.2c0-0.6,0-1.1,0.1-1.6c0-0.5,0.1-0.9,0.1-1.4l0,0
				c0.2,0.1,0.7,0.1,0.6,0.3c0.1,0,0.2-0.1,0.5-0.2c0.6,0.2-0.6,0-0.1,0.3c0-0.1,0.1-0.1,0.3-0.2c0.3,0,0.6-0.1,0.9-0.1
				c-0.2-0.3-1.3,0-1.6,0.1c-0.1-0.2,0-0.3,0.4-0.5c0.4-0.2,1-0.3,1.6-0.4c1-0.1,0.4,0.2,0.6,0.2c1,0,1.4-0.1,1.7-0.2
				c0.2-0.1,0.4-0.1,0.5-0.1c0.1,0,0.2,0,0.5,0c0.6,0.2,0.4,0.4,0.5,0.6c-0.8,0.1-1.2-0.1-1.8-0.1l0.7,0.1c-0.3,0.1-0.8,0.1-1.1,0.1
				c0.3,0.1,1.5,0.1,2.7,0.1c0-0.7,0-1.6,0.1-2.1c-0.1-0.3-0.2-0.7-0.2-0.5l0,0.5c-0.2,0.4-0.2-0.9-0.3-0.3
				c-0.1-0.6-0.3-1.3-0.2-2.2l0.3-0.2c-0.1,0-0.1,0.6-0.1,0.8c-0.1-0.4,0.3-1.3,0-1.8l-0.2,0.6c-0.1-0.6-0.4-1.4-0.3-2.2
				c-0.2,0.4,0,0.2-0.3,0.7c0.4-0.5,0,2,0.4,1.2c-0.3,0.6-0.1,1-0.4,1.7c0.1,0,0.2-0.3,0.1,0.4c0,0,0.1,0.1,0.1,0.1c0,0,0,0,0,0l0,0
				c0,0,0,0,0,0c0-0.2,0.1-0.3,0.1-0.3c0.2,0.3,0.2,1.4,0.3,1.7c0,0.3-0.1-0.1-0.2,0l0.1,0.3c-0.2,0-0.3,0.3-0.4-0.1l0,0.3l0,0
				c-0.2-0.1-0.3-0.1-0.4,0c0,0,0,0,0,0c0,0-0.1,0-0.2,0c-0.1,0-0.2,0-0.3,0.1c-0.2,0-0.2,0.1,0,0l-1.3,0.1l0,0
				c-0.6,0-1.2,0.1-1.9,0.1l-0.5,0c-0.3,0-0.5,0-0.8,0c-0.5,0-1.1,0-1.7-0.1c0,0.1,0,0.2,0,0.3c0,0.4,0,0.8,0.1,1.2
				c0,0.2,0,0.4,0,0.7c0,0.3,0,0.5,0,0.7l-0.2,0.1c0.1,0.6-0.2,1.7,0,1.9c-0.4,0.6-0.1,2.7-0.2,3.6l0.2,0.1c0,0.9,0,1.7,0.1,2.6
				c0.3,0,0.6,0,1-0.1l0-0.2c0.3,0,0.6,0,0.9,0c0.3,0,0.7,0,0.9,0c0.5,0,1.1,0.1,1.6,0.1c-0.1,0.1-0.4,0.1-0.6,0
				c0.7,0.2,1.4,0.1,2.1,0c0.4,0,0.5-0.1,0.7-0.1c0.2,0,0.3,0,0.4,0.1l0,0c0.1,0.1,0,0.2,0,0.3c0,0,0,0,0,0c0,0,0,0,0,0.1l-0.1,0.2
				c0-0.1,0.1-0.1,0.1-0.2c0,0,0,0.1,0,0.2l0,0.1c0,0.1,0,0.2,0,0.3l-0.2,0.1c0,0,0,0,0,0.1c-0.1,0.3,0.1,0.3,0.2,0.1
				c0,0.2,0.1,0.3,0.1,0.5c-0.3,0.3,0.1,0.9-0.2,1.3c0.2,0.2,0.1,1.8,0.5,1.9c0,0-0.1,0.1-0.1-0.1c0,0.4-0.1,0.8,0,1.1L24,39.9
				l0.3,0.9c-0.2,0.5-0.2,0.7-0.4,0.2c0.3,1.2,0.1,1,0.4,2.1L24.1,43c0,0.4,0.2,1,0.1,1.2c-0.3,0.8,0,4.2-0.3,6.3
				c0.5-0.4-0.2,1,0.2,1.1c-0.1,0.1-0.2,0.4-0.3,0.1c0.1,1.1-0.2,1.7,0.1,2.4c-0.1,0.1-0.2-0.2-0.2-0.1c0,0.1,0.1,0.4,0,0.5
				c-0.1,0.1-0.1-0.2-0.1-0.3c0,1.1,0.4,1.2,0.7,1.3c-0.2,0.6-0.1,0.9,0.1,1.3c-0.1,0.2-0.2,0.5-0.3-0.2c0,0.1-0.1,2,0,2.8
				c0.3,0,0.5-0.1,0.6-0.1c0.1,0.1,0.7,0,0.9,0c0.5,0,0.8,0,1.1,0c0.2,0,0.5,0,0.9,0l-0.2,0c0.3-0.3,0.7-0.1,1.4-0.1l0,0
				c1.6,0.2,0.7-0.1,2.3,0.2L30.9,59c0.1-0.4,1.4,0.2,2.3,0.1L32.9,59c0.3-0.1,0.6,0.1,1.1,0.2c0.5,0.2,1.2,0.4,1.7,0.4
				c0.2,0-0.2,0.1-0.5,0.1c0.5,0,0.8,0.1,0.9,0.1c0-0.7-0.3-0.1-0.4-1.3c0.1-0.2,0.4,0.6,0.4-0.5c0-0.1,0-0.4,0-0.8
				c0-0.3-0.1-0.5-0.1-0.8c-0.1-0.6-0.2-1.2,0-1.6c-0.1,0.2-0.2,0.4-0.3-0.1c0-0.7,0.4-1.9,0.1-2.5c0-0.1,0.1-0.1,0.1-0.1
				c-0.1-0.5-0.1-1.7-0.3-2.1c0.7-0.5-0.3-3.3,0.3-3.3l0-1.6l0.1,0c0-1.1-0.1-1.4-0.3-1.8c0-0.2,0.1-0.1,0.1,0
				c0.1-1.5,0.1-1.7-0.2-3l0.2-0.1c-0.1-0.3,0.3-2.2,0.1-3.7c0,0,0.1,0,0.1,0.2c-0.1-0.6,0-1.2,0-1.9c0.1-0.5,0.1-0.5,0.1-0.8
				c0.2,0,0.3-0.1,0.3-0.3c0,0,0.1,0,0.3-0.1c0.3,0,0.6-0.1,0.6-0.1c-1.4-0.1,0.2-0.3-0.4-0.4c0.6,0,1.5,0.2,0.8,0.3l-0.1,0
				c-0.3,0.4,1.8,0.1,1.8,0.4c0.6,0,1.2,0,1.8,0c0.8,0,1.6,0,2.4,0.1c0.1-1,0.3-2,0.4-3c0.1-0.8,0.2-1.5,0.3-2.3l-0.3,0.3l0.1-0.9
				c0.1-0.2,0.3-0.3,0.2,0.4c0.2-0.3,0-1.1-0.1-1.1c0.3-1.3,0.3,0.5,0.3,0.1l0-0.5l0,0.1c-0.1-0.5-0.2-0.4-0.1-1.4
				c0.1-0.7,0.2-0.4,0.3-0.7c0,0,0-0.1,0.1-0.5l0.2-1.2l-0.6,0c0.1,0.1,0.3,0.1,0.4,0.2l-0.1,0.1l0-0.1c-0.8,0.1-1.4,0-0.9,0.2
				c-1.2-0.4-4.7-0.1-5.2-0.3c-0.4,0.1-0.7,0.1-1.1,0.1c-0.3,0-0.9,0-1.1,0c0.1,0,0.2,0.3-0.4,0.3c0.2-0.3,0-0.3-0.3-0.4
				c0-0.3,0.1-0.6,0.2-0.8c-0.1,0.1-0.1,0-0.2-0.6c0-0.5-0.1-1-0.3-0.5c0-0.6,0.2,0,0.3-0.5c-0.1-0.8-0.1-1.6,0-2.5
				c0.1-0.9,0.1-1.8,0.3-2.4c-0.1-0.1-0.3,0.1-0.2-0.2c0-0.1,0.7-0.4,0.7-0.4c0.2-0.2-0.1-0.5,0.5-0.5c-0.1,0-0.2,0-0.1-0.2
				c0.6-0.2,1.4-0.3,2.1-0.2l0.1,0l0.1,0c1.7,0,3.5,0,5.3-0.1l0-1.4l0-0.7l0-0.5c0-0.7,0.1-1.4,0.2-2c-0.1,0.5-0.2,0.2-0.2-0.2
				c0,0.3-0.2,0-0.3,0l0.3-1.6c-0.3-0.3,0-1.7-0.3-1.8l0,0.5c-0.3-0.7-0.7,0.9-1.1,0.8c0.3,0.7-0.5,2,0,3.2
				c-0.1,0.3-0.1-0.2-0.2-0.1c0.2,0.3,0.2,0.7,0.1,1.4l0-0.1c0,0.5,0,0.6,0,0.8c0,0.2,0,0.4,0,0.5c-0.2,0-0.5-0.1-0.7-0.1
				c-0.1,0-0.3,0-0.6-0.1c-0.3,0-0.6,0-0.9-0.1l0.2,0.2c-0.5,0-0.6-0.1-0.8-0.1c-0.5,0.3,1.3,0,0.8,0.3c-0.3-0.2-1.1-0.2-1.9-0.2
				l0,0l0,0c-0.9-0.1-1.7,0-2-0.1c-0.8,0.2,0.3,0.1-0.5,0.4l-0.3,0l-0.1,0.2c-0.5,0.2-0.8,0.4-0.9,0.3c0.1-0.1,0.3-0.3,0.5-0.4
				c-0.4,0.2-0.9,0.6-1.1,1c-0.3,0.4-0.4,0.9-0.5,1c0,0,0.4-0.8,0.5-0.8c-0.7,1.1-0.6,2.6-0.6,3.6c0,1.1,0,2.2,0.2,3.1l0.1-0.1
				c0.2,1.4-0.1,1.2,0,3.3c0,0,0.1,0,0.1,0l-0.1,0c0.5-0.1,1.1-0.1,1.7-0.1c-0.6,0.1,1.1,0.2,0.3,0.3c1.7-0.2,0.8-0.1,1.9-0.5
				l0.2,0.2c0.4-0.1,0.4-0.2,1.2-0.2c-0.7,0.1,0.5,0.2-0.2,0.4c0.8,0.2,1.5,0.1,2,0c0.3,0,0.5-0.1,0.7,0c0.2,0,0.2,0.1,0.3,0.2
				c0.3-0.2,0.1-0.3-0.1-0.3c-0.3,0-0.8,0-0.6,0c-0.4-0.1,0.7-0.3,1-0.3c0.3,0,0.4,0.2,0.5,0.4c-0.1,0.3-0.2,0.5-0.2,0.7
				c0-0.1,0-0.1,0-0.1c-0.1,0.1,0,0.2,0,0.4c0,0.1,0,0.5-0.1,0.8c0.2,0.4-0.1,0.8,0.2,0.9l0.1-1.2c0,0.7,0.3,1.4,0,2.5
				c-0.1-0.1-0.1-0.4-0.1-0.7c-0.1,0.3,0,0.6-0.1,1c-0.3-0.1,0.1-1.5-0.1-2.3c-0.2,0.3,0.1,1.4-0.2,1c0.4,0.6-0.2,1.3,0,2.2
				l-0.2-0.1c0,0.1,0.1,0.5,0,0.7l-0.2-0.5c0.1,0.4,0,0.7-0.1,1.1c0,0.2-0.1,0.3-0.1,0.5c0,0.2,0,0.1,0,0.2c0-0.1,0-0.1,0-0.1
				c0-0.1,0-0.2,0.1-0.2c0-0.1,0.1-0.1,0.1-0.1c0.1,0,0.2,0.2,0.3-0.1c0,0.7,0,0.7-0.1,0.9c-0.1,0.1-0.2,0-0.3,0.1
				c-0.1-0.1-0.2-0.1-0.4-0.1c0,0,0.4,0.1,0.3,0.2c-0.2,0-0.3-0.1-0.6-0.2c-1.3,0,0.2,0.2-0.4,0.3c-0.5-0.2-0.7,0.1-1.3,0.2l0-0.2
				c-1.5-0.1-0.4,0.4-1.8,0.3l0.6-0.3l-0.7,0.1l0.1-0.2c-0.9,0.2-0.8,0.1-2.2,0.1c0.3,0.1,0,0.4-0.9,0.4c-0.5-0.1-0.3-0.1-0.4-0.1
				c0,0,0,0.2,0,0.8c-0.1-0.3-0.2-0.6-0.2-1c0.2,0,0.4,0,0.6,0.1c0-0.1,0.3-0.1,0.3-0.2c-0.3,0-0.7-0.1-1.1-0.1c0,0.7,0,1.3,0,1.7
				c0-0.2,0-0.5,0-0.6c0,0,0.1,0.6,0.1,1.2c0,0.1,0,0.3,0.1,0.4c0,0.1,0,0.2,0,0.2c0,0.1,0,0.2,0,0.2c-0.1,0.2-0.1,0-0.2-0.1
				c0,0.3,0.1,0.5,0.1,0.9c-0.2-0.1-0.3-0.1-0.4-0.7l0.2,1.3c-0.1,0.1-0.2,0.7-0.3,0.5c-0.1,0.7,0.3,1.8,0.2,2.8
				c0,0.1,0.1,0.2,0.1,0.4c0,0.9-0.2,1.7,0,2.8l-0.3,0.6c0.1,0.9,0.4-0.8,0.5,0.6c0.1,1-0.2,0.4-0.3,0.7c0.1,0.5,0.4,1.4,0.2,2.3
				C33.9,46.8,34,46.5,34,46.3z M34.1,56.8c0-0.2-0.2-0.6-0.1-0.8C34.3,56.3,34.1,56.4,34.1,56.8z M25.1,54.7c0.1,0.2,0,0.4,0,0.7
				C25.1,55.1,25.1,54.9,25.1,54.7z M23.9,22.8L23.9,22.8C23.6,22.7,23.7,22.8,23.9,22.8z M24.1,22.7C24.1,22.6,24.1,22.6,24.1,22.7
				c0,0,0,0.1,0,0.2l0,0l0,0C24.2,22.9,24.2,22.8,24.1,22.7z M44.6,24.4l-0.1,0.3C44.5,24.1,44.6,24.3,44.6,24.4z"/>
			<path class="st0" d="M25.4,56.5c0,0.1-0.1,0.1-0.1,0.1C25.3,56.7,25.4,56.7,25.4,56.5z"/>
			<path class="st0" d="M33.8,39.7L33.8,39.7C33.8,39.7,33.8,39.6,33.8,39.7L33.8,39.7z"/>
			<path class="st0" d="M18.6,30.7c0,0.2-0.1,0.3-0.1,0.4C18.5,31.1,18.6,31,18.6,30.7z"/>
			<path class="st0" d="M23.8,18.3l0.1,0.6c0-0.3,0-0.4,0.1-0.5C23.9,18.4,23.8,18.5,23.8,18.3z"/>
			<path class="st0" d="M25.1,13.1c0-0.1,0-0.2,0-0.3l-0.1,0C25,13.2,25,13.4,25.1,13.1z"/>
			<path class="st0" d="M24.5,17.7c0.2,0,0.1-0.4,0.1-0.9V17C24.3,16.8,24.4,17.3,24.5,17.7z"/>
			<path class="st0" d="M24.5,16.8c0-0.1,0-0.3,0-0.4C24.4,16.3,24.5,16.5,24.5,16.8z"/>
			<path class="st0" d="M24,22.1c0-0.2-0.2-0.1-0.1-0.2c-0.1-0.2,0,0.3,0,0.3C24,22.3,24.1,22.4,24,22.1z"/>
			<polygon class="st0" points="25,17.4 24.8,17.5 25,17.8 			"/>
			<path class="st0" d="M24.9,20.7l0.1-0.7c0,0-0.1-0.1-0.1-0.2C24.8,20.3,24.8,20.8,24.9,20.7z"/>
			<path class="st0" d="M24.8,19.9c0-0.2,0-0.4,0-0.5C24.8,19.5,24.8,19.7,24.8,19.9z"/>
			<polygon class="st0" points="25.1,18.3 25,18.5 25,19 			"/>
			<path class="st0" d="M20.7,23.6L20,23.6c-0.1,0.1,0.1,0.1,0.4,0.1C20.6,23.7,20.8,23.6,20.7,23.6z"/>
			<path class="st0" d="M23,24.1c-0.2,0-0.2-0.1-0.3-0.2l0,0.3L23,24.1z"/>
			<path class="st0" d="M20.8,24.2c-0.1,0.1-1.1,0.2-0.1,0.2C20.8,24.3,21.5,24.2,20.8,24.2z"/>
			<path class="st0" d="M17.9,31.8l0-0.2l-0.4,0.1C17.5,31.8,17.9,31.8,17.9,31.8z"/>
			<path class="st0" d="M25.8,34.7c0-0.4,0-0.6-0.1-0.6c-0.1-0.1-0.1-0.1-0.1-0.8c-0.1-0.3-0.1,1-0.2,0.7c0.1,0.4,0.1,0.5,0.1,0.7
				C25.6,34.9,25.7,34.9,25.8,34.7z"/>
			<path class="st0" d="M25.5,34.1c0-0.1,0-0.2-0.1-0.4C25.5,33.9,25.5,34,25.5,34.1z"/>
			<polygon class="st0" points="44.9,6.7 45,6.2 44.8,6.5 			"/>
			<path class="st0" d="M44.6,5.7l0.3-0.1l-0.2-0.3C44.6,5.3,44.6,5.6,44.6,5.7z"/>
			<path class="st0" d="M33.5,57.2L33.5,57.2c0.1,0.1,0.1,0.1,0.1,0C33.7,57.2,33.5,57.2,33.5,57.2z"/>
			<polygon class="st0" points="33.7,50.7 33.7,50.8 34,50.6 			"/>
			<path class="st0" d="M33.4,44.3c0,0.3,0,0.6,0,0.8C33.4,44.6,33.7,44.2,33.4,44.3z"/>
		</g>
	</g>
	<g>
		<g>
			<g>
				<g>
					<path class="st1" d="M27.5,52.8c-0.3,0.2-0.2,0.1-0.3,0.2C27.8,52.6,27.5,52.8,27.5,52.8z"/>
					<polygon class="st1" points="32.9,49.6 32.8,49.7 33.6,49.2 					"/>
					<path class="st1" d="M37.9,46.7c-0.5,0.2-1.8,1.1-2.7,1.6L35,48.4l-0.4,0.3C35.7,48,37.1,47.2,37.9,46.7z"/>
					<path class="st1" d="M40.6,45.2c-0.2,0.1,0.6-0.3-0.6,0.4c0.1,0,0.1,0,0.1-0.1C40.2,45.5,40.4,45.4,40.6,45.2z"/>
					<path class="st1" d="M40.1,45.5C39.6,45.8,40.5,45.3,40.1,45.5L40.1,45.5z"/>
					<path class="st1" d="M42.6,44.1l-0.7,0.4c0.2-0.1,0.8-0.4,0.5-0.3C43.1,43.8,43,43.9,42.6,44.1z"/>
					<path class="st1" d="M43.2,43.7l-0.4,0.2C42.9,43.9,43,43.8,43.2,43.7z"/>
					<path class="st1" d="M42.1,44.4l0.8-0.5c-0.1,0.1-0.1,0-0.3,0.2C42.6,44.1,42.4,44.2,42.1,44.4z"/>
					<path class="st1" d="M41.7,44.6c-0.4,0.2-0.9,0.5-0.2,0.1C40.1,45.5,40.3,45.4,41.7,44.6z"/>
					<path class="st1" d="M38.1,46.5l-0.5,0.3l-0.4,0.3C37.4,46.9,38.2,46.5,38.1,46.5z"/>
					<path class="st1" d="M46.9,41.6c0,0-0.3,0.1-0.3,0.1L46.1,42C46.4,41.9,46.9,41.6,46.9,41.6z"/>
					<path class="st1" d="M46.6,41.7l0.8-0.5C46.7,41.7,46.6,41.7,46.6,41.7z"/>
					<polygon class="st1" points="43.3,43.6 42.1,44.3 43.6,43.4 					"/>
					<polygon class="st1" points="49.9,39.9 49.5,40.2 50.2,39.7 					"/>
					<path class="st1" d="M51.8,38.8c-0.3,0.2,0.5-0.2,0.1,0c0.5-0.3,1-0.5,1.4-0.8C52.9,38.2,52.5,38.4,51.8,38.8z"/>
					<path class="st1" d="M54,37.7c-0.2,0.1-0.4,0.2-0.6,0.3c0.1-0.1,0.2-0.1,0.3-0.2C53.8,37.7,54,37.7,54,37.7z"/>
					<path class="st1" d="M48.7,40.5c0.1,0,0.2-0.1,0.6-0.3L49,40.3C48.9,40.4,48.8,40.4,48.7,40.5z"/>
					<path class="st1" d="M49,40.3L49,40.3c0.3-0.2,0.6-0.3,0.7-0.4C49.6,40,49.4,40.1,49,40.3z"/>
					<path class="st1" d="M48.6,40.5C48.7,40.5,48.7,40.5,48.6,40.5C48.7,40.5,48.7,40.5,48.6,40.5z"/>
					<path class="st1" d="M45.3,42.4c0.4-0.3,1.4-0.8,0.5-0.3C45.5,42.3,46,42,45.3,42.4z"/>
					<path class="st1" d="M48.2,40.7l-0.8,0.5c0,0,0.2-0.1,0,0.1L48.2,40.7z"/>
					<polygon class="st1" points="48.6,40.5 48.2,40.7 48.5,40.6 					"/>
					<path class="st1" d="M52.6,38.3c0.3-0.2,0.7-0.4,1.2-0.6c-0.5,0.2-1,0.5-1.4,0.7C52.3,38.4,52.1,38.6,52.6,38.3z"/>
					<path class="st1" d="M50.8,39.3C50.9,39.3,50.9,39.2,50.8,39.3C50.9,39.2,50.8,39.3,50.8,39.3z"/>
					<polygon class="st1" points="52.2,39.3 52.3,39.3 52.3,39.3 					"/>
					<path class="st1" d="M52.3,38.4c-0.4,0.2-0.6,0.3-0.8,0.4C51.8,38.7,52,38.6,52.3,38.4C52.4,38.4,52.4,38.4,52.3,38.4z"/>
					<path class="st1" d="M54.2,37.6c0,0,0.1-0.1,0-0.1c0,0-0.1,0-0.1,0C54.2,37.5,54.2,37.5,54.2,37.6
						C54.2,37.6,54.2,37.6,54.2,37.6z"/>
					<path class="st1" d="M51,39.2L51,39.2C51.1,39.1,51.1,39.1,51,39.2z"/>
					<path class="st1" d="M51,39.2c0.2-0.1,0.3-0.2,0.5-0.3c-0.2,0.1-0.4,0.2-0.6,0.3C51,39.2,51,39.2,51,39.2z"/>
					<path class="st1" d="M51.1,40.4c0-0.1,0.9-0.7,1.7-1.2c0.7-0.6,0.2-0.3-0.5,0.1c0,0,0,0-0.7,0.6c0.3-0.2,1.7-1.2,1.1-0.7
						c-1,0.7-0.8,0.6-1.3,0.9c0.5-0.2-1.3,1-1,0.9L51.1,40.4C51.2,40.4,50.9,40.6,51.1,40.4z"/>
					<path class="st1" d="M53.7,38.2l0.3-0.2c-0.3,0.3-0.6,0.5-1.1,0.8c-0.5,0.4-0.6,0.5-0.6,0.5c0,0,0.4-0.3,0.8-0.6
						C53.4,38.4,53.8,38.1,53.7,38.2L53.7,38.2z"/>
					<path class="st1" d="M54.2,37.5c0,0,0.1-0.1,0.2-0.1c0.1,0,0,0.1,0,0.1c0,0.1,0,0.1,0.1,0c0-0.1,0.1-0.2,0-0.2
						c-0.1,0-0.1,0-0.2,0C54.3,37.3,54.3,37.4,54.2,37.5c-0.1-0.1-0.2,0-0.3,0.1C54.4,37.3,54.3,37.4,54.2,37.5
						C54.1,37.5,54,37.5,54.2,37.5c-0.2,0.1-0.2,0.1-0.5,0.2C54.1,37.5,54.1,37.5,54.2,37.5L54.2,37.5L54.2,37.5L54.2,37.5
						C54.1,37.5,54.1,37.5,54.2,37.5L54.2,37.5C54.2,37.5,54.2,37.5,54.2,37.5C54.4,37.5,54.2,37.5,54.2,37.5L54.2,37.5L54.2,37.5
						C54.2,37.5,54.2,37.5,54.2,37.5c0.1,0,0.1,0.1,0,0.2c-0.1,0.1-0.1,0.1-0.2,0.2C54,37.9,53.9,38,53.9,38c0.1,0,0.1-0.1,0.2-0.2
						c0,0,0.1-0.1,0.1-0.1c0,0,0.1-0.1,0.1-0.1c0,0,0-0.1,0-0.1C54.3,37.5,54.3,37.5,54.2,37.5z"/>
					<path class="st1" d="M46.6,41.5C46.7,41.5,46.7,41.5,46.6,41.5C46.8,41.4,46.8,41.4,46.6,41.5z"/>
					<path class="st1" d="M47.3,41.2c-0.1,0.1-0.2,0.1-0.6,0.4c-0.3,0.2,0,0,0,0c-0.2,0.1-0.8,0.5-0.1,0.1l0.1-0.1
						c0.6-0.4,1.5-0.8,1.4-0.7C47.9,40.9,47.7,40.9,47.3,41.2z"/>
					<path class="st1" d="M51,39.1l1.3-0.8l-0.7,0.3l0,0C50.9,39.1,51.1,39,51,39.1z"/>
					<polygon class="st1" points="52,39.4 52.2,39.3 51.5,39.8 					"/>
					<polygon class="st1" points="50.4,40.5 50.5,40.5 50,40.8 					"/>
					<path class="st1" d="M55.5,42.5l-0.4,0.3C55.3,42.7,55.4,42.6,55.5,42.5z"/>
					<path class="st1" d="M58.2,40.7L58.2,40.7C58.1,40.7,58.1,40.8,58.2,40.7z"/>
					<path class="st1" d="M17.5,63.3c0.6-0.1,1.4-0.3,1.3-0.4l-0.2,0C18.1,63.1,17.7,63.2,17.5,63.3z"/>
					<path class="st1" d="M46,46.1c-0.1,0-0.1,0.1-0.2,0.1c-0.1,0.1-0.2,0.2-0.3,0.3C45.6,46.3,45.8,46.2,46,46.1z"/>
					<path class="st1" d="M46.2,45.6l0.7-0.4C46.8,45.3,46.6,45.5,46.2,45.6z"/>
					<path class="st1" d="M40.7,52.2l-0.4,0.3C40.9,52,40.6,52.2,40.7,52.2z"/>
					<path class="st1" d="M33,50.9c-0.5,0.3-0.9,0.5-1.2,0.7C32.4,51.3,32.9,51,33,50.9z"/>
					<path class="st1" d="M56.3,41.4c-0.2,0.2-0.3,0.2-0.3,0.2C56.2,41.5,56.4,41.4,56.3,41.4z"/>
					<path class="st1" d="M30.4,52.4c0.1,0,0.2-0.1,0.3-0.1c0.4-0.2,0.7-0.4,1.1-0.7C31.4,51.8,30.8,52.1,30.4,52.4z"/>
					<path class="st1" d="M42.6,52.5c0,0,0.1-0.1,0.1-0.1C42.8,52.5,42.7,52.5,42.6,52.5z"/>
					<path class="st1" d="M58.4,42.5c-0.2,0.1-0.4,0.3-0.6,0.4C57.9,42.8,58,42.7,58.4,42.5z"/>
					<path class="st1" d="M43.6,44.7C44,44.5,43.7,44.6,43.6,44.7L43.6,44.7z"/>
					<path class="st1" d="M45.5,43.8c-0.1,0.1-0.1,0.1-0.1,0.1C45.4,43.9,45.4,43.9,45.5,43.8z"/>
					<path class="st1" d="M26.9,54.8C26.9,54.8,26.9,54.8,26.9,54.8C27,54.7,27,54.7,26.9,54.8z"/>
					<path class="st1" d="M44.2,44.4c-0.1,0.1-0.3,0.2-0.5,0.3C43.8,44.6,44,44.5,44.2,44.4z"/>
					<path class="st1" d="M44.1,44.4c0.1-0.1,0.2-0.1,0.3-0.2C44.5,44.2,44.4,44.2,44.1,44.4z"/>
					<path class="st1" d="M43.1,45c0.2-0.1,0.4-0.2,0.6-0.3c-0.1,0-0.1,0.1-0.1,0C43.5,44.7,43.4,44.8,43.1,45z"/>
					<path class="st1" d="M15.4,68C15.4,68,15.4,68,15.4,68C15,68.3,15.2,68.2,15.4,68z"/>
					<path class="st1" d="M26.8,57.6C26.8,57.6,26.8,57.6,26.8,57.6C26.8,57.6,26.8,57.6,26.8,57.6L26.8,57.6z"/>
					<path class="st1" d="M28.1,56.8c-0.5,0.4-0.8,0.6-1.2,0.8l0.5-0.1L28.1,56.8z"/>
					<path class="st1" d="M49,46.8l0.9-0.5c-1,0.7-1.8,1.2-1,0.7c0.1-0.2,3.4-2.2,3.5-2.4l0.6-0.4c-0.2,0.1-0.2,0.1-0.4,0.2
						c1.2-0.7,0.8-0.6,2.3-1.6c0.5-0.3,0.9-0.5,0.5-0.3l1.1-0.8c0.3-0.2,0.3-0.1-0.1,0.1l1.7-1.2l0,0c0.3-0.2,0.8-0.6,1-0.8
						c0.4-0.3-0.2,0.2-0.1,0.1l0.9-0.7c0.4-0.3-0.3,0.4-1,0.8c0.9-0.5,0.8-0.6,2.6-2l-0.8,0.7c0.3-0.2,0.6-0.4,1-0.7
						c0.2-0.2,0.4-0.3,0.6-0.5c0.2-0.2,0.7-0.6,1-1c0,0-0.1,0.1-0.2,0.2c-0.1,0.1-0.2,0.2-0.4,0.4c-0.3,0.3-0.6,0.5-0.7,0.6
						c-0.3,0.3-0.5,0.4-0.1,0c0.1-0.1,0.1-0.1,0.2-0.2c0.1-0.1,0.2-0.2,0.3-0.3c0.3-0.3,0.6-0.6,0.7-0.9c0,0,0,0,0.1-0.1
						c0-0.1,0.1-0.2-0.1-0.3C63.1,36,63,36,62.8,36c-0.2,0-0.5,0.1-0.8,0.2l0.1-0.1c-0.2,0.1-0.3,0.1-0.4,0.2
						c-0.1,0-0.2,0.1-0.2,0.1c-0.1,0.1-0.2,0.1-0.3,0.2c-0.1,0.1-0.3,0.2-0.5,0.3c-0.9,0.5-1.1,0.5-1.3,0.6c-1.4,0.8,1-0.5-0.6,0.5
						c-1.2,0.6-1.9,1.1-3.3,2c-0.8,0.5,0.1-0.1-0.2,0l-0.7,0.5c-0.2,0.1-0.1,0.1-0.1,0c-0.6,0.4,0,0.1-0.9,0.7c-0.2,0.2-2,1.1-3,1.8
						c-0.3,0.2,0.1-0.1,0-0.1c-1.5,1-1.3,0.9-2.6,1.7L47,45.2c0.8-0.4-0.2,0.2-1,0.8c0.3-0.2,0.6-0.3,0.7-0.4l-1.4,0.9
						c-0.2,0.1,0,0,0.2-0.2c-0.1,0.1-0.2,0.1-0.3,0.2c-0.5,0.3-0.3,0.1,0.1-0.2c0.2-0.1,0.4-0.2,0.5-0.3c0.3-0.3,0.6-0.5,0.5-0.5
						c-0.1,0.1-0.3,0.2-0.5,0.3c0.1-0.1,0.1-0.1,0.1-0.1c-0.1,0-0.2,0.1-0.4,0.3l-0.4,0.1l-0.1,0.1l-1.9,1.1
						c-1.3,0.9-2.4,1.7-4.5,3.1c0.5-0.4,0.1-0.2,0-0.2c0.6-0.3,1.6-1,2.7-1.7c-0.6,0.3-0.5,0.2-0.3,0.1L39.2,50c0-0.1-0.4,0.2-1,0.5
						c0.5-0.1-1.4,1-2.2,1.5c-0.1,0,0.1-0.2,1.1-0.8c-1.1,0.6-1.3,1-2.4,1.6c0.2-0.1,0.4-0.2,0.5-0.3c-0.5,0.4-1.9,1.2-1.6,1
						l0.2-0.1c-1.6,1-4.8,3-5,3.2c0,0,0.1-0.2,0.2-0.3l-2.6,2.1c0.2-0.2-0.9,0.1,0.4-0.7c-0.4,0.2-0.9,0.5-1.6,1
						c0.3-0.1,0.7-0.3,0.4,0c-1,0.5-0.7,0.4-2,1c0.4-0.2,0,0.2-0.6,0.5c0.1-0.1-0.1-0.1,0.1-0.3l-1.5,1c0.4-0.2,0-0.2-0.4,0
						c0.2-0.1-1.3,0.8-1.8,0.9c0,0,0.2-0.1,0.3-0.1c0.2-0.1,0.3-0.2,0.3-0.2c-0.8,0.4-1.2,0.6-1.8,0.9c-0.4,0.2-0.9,0.4-1.9,0.7
						c0.2-0.1,0.5-0.3-0.5-0.1c-0.2,0.1-0.7,0.3-1.3,0.5c-0.3,0.1-0.7,0.2-1.1,0.2c-0.2,0-0.5,0-0.7-0.2c-0.2-0.2-0.1-0.5,0.1-0.7
						c0,0,0.3-0.3,0.3-0.3c0,0,0.1-0.1,0.2-0.2c0.1-0.1,0.2-0.2,0.4-0.3c0.3-0.2,0.6-0.4,0.6-0.4c-0.2,0.1-0.4,0.3-0.7,0.6
						c-0.2,0.2-0.6,0.6-0.7,0.9c0,0.2,0.3,0.3,0.4,0.3c0.2,0,0.3,0,0.6-0.1c0.4-0.1,0.8-0.2,1.1-0.2c-0.7,0.1-0.2,0-1.3,0.1
						c-0.1,0-0.1,0,0.2-0.1c0.2,0,0.5-0.1,0.7-0.1c0,0-0.2,0-0.4,0c-0.2,0-0.6,0-0.6,0c-0.1,0-0.2-0.1-0.1-0.1c0,0,0.1-0.1,0.1-0.1
						c0,0,0-0.1,0.1-0.1c0.1-0.1,0.3-0.3,0.5-0.4c0.4-0.3,0.8-0.6,0.8-0.6c0,0-0.6,0.4-1.1,0.8c-0.3,0.2-0.4,0.3-0.4,0.4
						c0,0.1,0.1,0.1,0.1,0.1c0,0-0.1,0-0.2,0c-0.1-0.1,0-0.2,0.1-0.4c0.4-0.4,1.2-1,2-1.4c0.4-0.2-0.2,0.3-0.2,0.3
						c0.2-0.1,1.5-0.9,1.7-1l-0.7,0.4c0.9-0.5,1.4-1,2.5-1.5c0.4-0.2,1.2-0.5,1.2-0.6c-0.7,0.3-0.9,0-0.6-0.3c0.1-0.1,2-1,2.5-1.2
						c0.7-0.3-0.8,0.7-0.3,0.5c0,0,0.3-0.3,0.5-0.3c0.4-0.2-0.1,0.2,0.7-0.3c0.1-0.2,1.7-1,0.4-0.3c0.8-0.5,0.9-0.5,1.9-1.1
						c-0.3,0.1,0.8-0.7,1.6-1.2c0,0,0.2,0,0.3-0.1c1.7-1,2.6-1.5,4.2-2.4c0.2-0.1,0.9-0.5,0.6-0.3c0.2-0.1,0.4-0.3,0.9-0.6
						c1-0.5-1.1,0.6-0.3,0.3c0-0.1,1.2-0.8,1.9-1.2c-0.3,0.1-1.6,0.9-2.3,1.4c-0.1-0.1,1.1-0.9,2.7-1.9c1.3-0.8,0.6-0.3,0.8-0.4
						c2.5-1.4,2-1.4,4.1-2.5c0.8-0.4,0.1,0.1,0.3,0c-1.1,0.7-1.7,0.9-2.4,1.3l0.9-0.5c-0.3,0.2-1,0.7-1.4,0.9
						c0.7-0.3,4.2-2.4,6.1-3.5c0.3-0.2,0.9-0.6,0.6-0.4l-0.6,0.4c-0.6,0.3,1.1-0.7,0.3-0.3c0.8-0.5,1.7-1.1,2.8-1.8l0.2-0.1
						c0,0-0.8,0.4-1.1,0.6c0.5-0.3,1.8-1,2.2-1.4l-0.8,0.4c0.8-0.5,1.7-1.2,2.7-1.8c-0.5,0.2-0.2,0.2-1,0.5c0.7-0.3-2.5,1.6-1.5,1
						c-0.8,0.4-1.3,0.7-2.3,1.2c0,0,0.4-0.2-0.5,0.3c0,0-0.1,0.1-0.2,0.1c0,0,0,0-0.1,0l0,0c0,0,0,0,0,0c0.2-0.1,0.4-0.2,0.4-0.2
						c-0.4,0.3-1.7,1.1-2.2,1.4c-0.5,0.3,0.2-0.1-0.1,0l-0.7,0.4c-0.1,0-1.4,0.7-0.2,0l-1.1,0.6c-0.6,0.3-1.5,0.8-2,1.2
						c-0.5,0.3-1.2,0.8-0.8,0.5l-1.7,1l0,0c-1.7,0.9-3.4,2-5.3,3c-0.6,0.3-1.1,0.7-2.1,1.2l-0.2,0.1c-0.7,0.4-2.2,1.2-2.5,1.4
						c-0.8,0.3-3.5,2-4.8,2.7l0,0.1c-0.9,0.5-1.7,1-2.8,1.6l0.1,0c-0.9,0.6-2.4,1.3-3.9,2.2c0.1-0.1,0.5-0.3,0.7-0.4
						c-0.5,0.2-0.9,0.5-1.4,0.8c-0.2,0.2-0.4,0.3-0.7,0.5c-0.2,0.2-0.6,0.5-0.7,0.9c-0.1,0.2,0,0.4,0.1,0.5c0.1,0.1,0.3,0.2,0.5,0.2
						c0.2,0,0.4,0,0.6,0.1c0.1,0,0.3,0,0.4,0c0.5,0,1-0.1,1.5-0.2c0.4-0.1,0.8-0.2,1.1-0.3c0,0-0.1,0-0.1,0c0,0,0.1,0,0.2-0.1
						c0.2,0,0.4-0.1,0.6-0.2c-0.2,0-0.4,0.1-0.5,0.1c0.3-0.1,0.9-0.3,1.4-0.5l0.2,0c0,0,0.1,0,0.1,0c0.5-0.2,0.4-0.2,0.1-0.1
						c0.2-0.1,0.5-0.2,0.6-0.3c0.4-0.1,1.2-0.6,1.8-0.8c0.3-0.2,2.3-1.4,2.4-1.6c0,0,0.2-0.1-0.1,0.1c0.5-0.3,1-0.6,1.4-0.9l0.3-0.1
						l1-0.8c0.7-0.4,1-0.5,0.4,0c1.5-1.1,1.3-0.8,2.6-1.7l0,0.1c0.5-0.3,1.2-0.8,1.5-1c1.1-0.6,5.3-3.3,8.1-4.9
						c-0.6,0.2,1.3-0.7,1.4-0.9c0.2-0.1,0.6-0.3,0.1,0c1.4-0.9,2.1-1.3,3.1-2c0.2-0.1-0.3,0.2-0.1,0.2c0.1-0.1,0.4-0.3,0.6-0.4
						c0.2-0.1-0.2,0.2-0.4,0.3c1.4-0.9,1.5-1.1,1.6-1.2c0.8-0.4,1.1-0.6,1.6-1c0.3-0.1,0.7-0.4-0.2,0.2c0.5-0.3,3.1-1.9,3.1-2
						c0.2-0.1,0.7-0.4,0.8-0.5c1.1-0.7,1.2-0.8,2.3-1.4l-0.3,0.2c0.4-0.3,0.9-0.6,1.8-1.1l0,0c2.1-1.2,0.9-0.6,2.9-1.7l-0.1,0
						c0.1-0.2,1.8-1,3-1.7l-0.4,0.2c0.3-0.2,0.8-0.4,1.3-0.6c0.5-0.2,0.9-0.4,1.2-0.5c0,0,0,0,0,0c-0.1,0-0.2,0.1-0.3,0.1
						c0.1,0,0.2-0.1,0.3-0.1c0,0,0,0,0.1,0c0,0,0.1,0,0.1,0c0,0,0.1,0,0.1-0.1c0,0,0,0,0.1-0.1c0,0,0.1,0,0.1-0.1c0,0,0.2-0.1,0.2,0
						c-0.2,0.1-0.2,0.1-0.4,0.3c0,0,0,0-0.1,0.1c0,0-0.1,0.1-0.1,0.1c-0.2,0.2-0.5,0.5-0.8,0.7c-0.6,0.5-1.4,1.1-1.9,1.5
						c0.3-0.2,0.5-0.3,0,0.1c-0.8,0.6-2.4,1.6-3.1,2.2c-0.1,0.1-0.2,0.1-0.2,0.1c-0.7,0.5-2.2,1.5-2.5,1.8c-0.7,0.3-4.1,2.8-4.2,2.7
						l-2.1,1.3l0,0c-1.3,0.9-1.8,1.2-2.2,1.5c-0.3,0.2-0.1,0-0.1,0c-2,1.2-2.1,1.4-3.7,2.5L41,51.5c-0.4,0.3-2.8,1.7-4.7,3
						c0,0,0.1,0,0.2-0.1c-2.1,1.4-5.2,3.2-5.9,3.8l-1.4,0.9c1.8-1.2-0.2,0.2,0.5-0.2c-0.7,0.5-1.9,1.1-1,0.6l0.1-0.1
						c0.3-0.3-2.3,1.4-2.3,1.4c-3.6,2.3-7.1,4.5-10.5,6.6l0.4-0.2l-1.2,0.7c-0.3,0.2-0.4,0.2,0.4-0.3c-0.2,0.1-0.6,0.4-0.9,0.6
						c-0.3,0.2-0.5,0.4-0.5,0.4c-0.1,0-0.1,0.1-0.1,0.1l-0.1,0l0,0l0,0c0,0,0,0,0,0c0,0.1,0.1,0.1,0.1,0.1l0,0l0,0l0,0
						c0.1,0,0.1-0.1,0.2-0.1c0.1,0,0.1-0.1,0.2-0.1c0,0-0.1,0.1-0.3,0.1l-0.1,0.1c0,0,0,0-0.1,0c0,0-0.1,0-0.1-0.1
						c0-0.1,0-0.1,0-0.1c0,0,0,0,0,0l0,0l0,0l0,0l0,0l0.1,0c0.1-0.1,0.2-0.1,0.2-0.1c0.1-0.1,0.2-0.1,0,0c0,0-0.2,0.1-0.3,0.2l0,0
						l0,0l0,0c0,0,0,0,0,0.1c0,0.1,0.1,0.1,0.1,0.1c0.1,0,0,0,0.1,0l0,0l0,0l0.1,0c0,0,0.1,0,0.1-0.1c0.1,0,0.1-0.1,0.1-0.1
						l-0.2,0.1c0.6-0.3,0.6-0.3,1.7-0.8c0.7-0.3,0.4-0.1,0.6-0.3c0,0,0.1,0,0.4-0.2l1.6-0.7L18.1,67c0.7-0.3,1.5-0.7,0.8-0.4
						c0.6-0.2,2.1-0.9,3.5-1.6c1.4-0.8,2.7-1.6,3-1.8c1-0.6,1.9-1.1,3-1.8c-0.3,0.2-0.5,0.2,0.5-0.3c-0.3,0.3,1.8-1.1,2.6-1.5
						c-0.7,0.4,2.8-1.7,1.7-1.1c0.8-0.5,0.1,0,0.7-0.4c2-1.2,4.3-2.6,6.7-4.1c0,0-0.4,0.2,0.1-0.1l1.3-0.8c0.5-0.3,0.4-0.3,1.3-0.8
						c-0.1,0.1-0.3,0.2,0,0c4.7-2.9,9.6-6.1,14.2-9.2c-0.6,0.4-0.2,0.1,0.3-0.2c-0.3,0.2,0,0-0.1,0c0,0,0.5-0.3,1-0.7
						c0.5-0.3,1-0.7,1-0.7c0.4-0.2,2-1.5,2.2-1.7l-0.6,0.5c0.8-0.6-1.1,0.8-1,0.7c-0.9,0.7-2.4,1.7-3.9,2.7
						c-0.3,0.2,0.3-0.2,0.1-0.1c-0.4,0.3-0.8,0.6-1.7,1.2l0.1-0.1c-2.4,1.6-3.5,2.3-6.2,4l0.2-0.1c-0.6,0.4-0.7,0.4-1,0.6
						c-0.7,0.4,1.7-1.1,1.1-0.6c-0.8,0.5-4.2,2.6-4.7,2.9c-0.9,0.6,0.3-0.2-0.6,0.4l-0.2,0.1L43,52.3c-0.6,0.4-0.9,0.5-0.9,0.6
						c0.1-0.1,0.4-0.3,0.6-0.4c-0.8,0.5-2.2,1.3-2.5,1.5l0.9-0.5c-2.5,1.5-5.5,3.4-8,4.9l0.2-0.1c-1.8,1.1-1.5,0.9-3.5,2.1l0.1,0
						c-0.4,0.3-1,0.6-1.5,0.9c0.5-0.3-1,0.6-0.3,0.1c-2,1.2-1,0.6-2.3,1.4l-0.3,0.2c-0.4,0.3-0.5,0.3-1.5,0.9
						c0.8-0.5-0.7,0.4,0.3-0.2c-1.1,0.6-1.9,1.1-2.5,1.4c-0.7,0.3-1.2,0.6-1.8,0.8c-1,0.5,2-0.9,1.4-0.6c0.5-0.2-0.8,0.4-1.6,0.8
						c-0.7,0.3-1.3,0.5-3.1,1.3c0.2-0.1,0.2-0.1,0.4-0.2c-0.7,0.3-1.3,0.6-2.2,1c-0.1,0.1-0.2,0.1-0.4,0.2c-0.1,0-0.1,0.1-0.2,0.1
						l-0.1,0c0,0,0,0,0,0c0,0,0,0,0,0.1c0,0,0,0,0,0c0,0,0.1,0.1,0,0.1c0,0,0,0,0,0l0,0c0.2-0.1,0.4-0.2,0.4-0.3
						c0,0-0.1,0.1-0.2,0.2c-0.1,0-0.2,0.1-0.3,0.2c0,0,0,0.1-0.1-0.1l0,0l0.1,0l0.2-0.1c0.4-0.2,0.8-0.4,0.8-0.4
						c-0.2,0.1-0.5,0.2-0.7,0.3c-0.1,0.1-0.2,0.1-0.4,0.2l0,0l0,0c0,0,0,0,0,0.1c0,0,0,0,0,0c0,0,0,0,0,0l0,0l0.1-0.1l0.2-0.1
						c0.5-0.3,1.1-0.7,1.8-1.1c-0.2,0.1-0.6,0.4-0.8,0.6c0.5-0.3,0.8-0.5,1.3-0.8c0,0.1-0.5,0.4-1.1,0.7c-0.3,0.2-0.6,0.4-0.9,0.6
						c-0.2,0.1-0.3,0.2-0.4,0.3l-0.1,0l0,0c0,0,0,0,0,0c0,0-0.1-0.1-0.1-0.1c0-0.1,0-0.1,0-0.1l0.1,0l0.2-0.1
						c-0.1,0-0.1,0.1-0.2,0.1l-0.1,0c0,0,0,0,0,0l0,0l0,0.1c0,0.1,0.1,0.1,0.1,0.1c0,0,0,0,0,0l0.1-0.1c0.2-0.1,0.4-0.2,0.5-0.3
						c0.3-0.2,0.5-0.3,0.3-0.2c0.6-0.5,1.7-1,2.8-1.8L18,66.5c0.2-0.1,0.6-0.4,0.9-0.6l-0.6,0.4c0.9-0.6,1.8-1.1,2.7-1.7
						c-1.9,1.2-0.4,0.2-1.2,0.7c2.3-1.5,1.4-0.8,3.9-2.4c-0.3,0.2-1.3,0.8-0.8,0.5c0.5-0.3,1.1-0.7,1.5-0.9c1.7-1.1-0.3,0.1,0.4-0.3
						c0.6-0.3,0.8-0.5,1.6-1l0,0c2-1.2,0.5-0.4,2.2-1.5l-0.7,0.5l0.9-0.6l-0.2,0.2c1-0.7,1.3-0.8,2.3-1.5c-0.2,0.1,0.1-0.1,1-0.7
						c0.6-0.4-0.3,0.2,0.9-0.5c-0.3,0.2-0.5,0.4-1.1,0.7c-0.1,0.1-0.2,0.2-0.3,0.2c0.6-0.4,1.6-1,2-1.3C33.2,56.9,33,57,32.9,57
						l1.7-1.2c0.3-0.2,0.1,0-0.1,0.1c0.3-0.2,0.6-0.4,1.1-0.7c-0.1,0.1-0.1,0.1-0.8,0.6l1.7-1.1c0.1-0.1,0.9-0.5,0.7-0.4
						c0.9-0.6,2.3-1.5,3.5-2.3c0.1,0,0.2-0.1,0.4-0.3c1.2-0.7,2.2-1.4,3.6-2.3l0.8-0.4c1.1-0.7-1.1,0.6,0.7-0.6
						c1.3-0.8,0.5-0.3,1-0.5c0.6-0.4,1.7-1.2,2.9-1.9C49.7,46.3,49.4,46.5,49,46.8z M62,37.8c-0.2,0.2-0.7,0.6-0.9,0.7
						C61.4,38.2,61.6,38.1,62,37.8z M43.9,47.2c0.2-0.1,0.5-0.3,0.8-0.5C44.5,46.9,44.2,47,43.9,47.2z M39.7,47L39.7,47
						C39.1,47.4,39.3,47.3,39.7,47z M40.9,46.4C41.1,46.3,41,46.3,40.9,46.4c0,0-0.3,0.2-0.6,0.3C40.4,46.7,40.6,46.6,40.9,46.4z
						 M16.9,67.6l-0.3,0.1C17.2,67.4,17,67.5,16.9,67.6z"/>
					<path class="st1" d="M46.2,45.7c0.1,0,0.1,0,0.1,0C46.4,45.6,46.4,45.6,46.2,45.7z"/>
					<path class="st1" d="M40.7,52.1L40.7,52.1C40.7,52.1,40.7,52.1,40.7,52.1L40.7,52.1z"/>
					<path class="st1" d="M22.2,57.8c-0.3,0.1-0.4,0.2-0.5,0.2C21.7,58.1,21.8,58,22.2,57.8z"/>
					<path class="st1" d="M47.4,42.4l-0.8,0.5C47,42.7,47.1,42.6,47.4,42.4C47.3,42.5,47.1,42.6,47.4,42.4z"/>
					<path class="st1" d="M54,38.2c0.1-0.1,0.2-0.2,0.3-0.3l0,0C53.9,38.3,53.5,38.6,54,38.2z"/>
					<path class="st1" d="M48.2,42.1c0.1,0,0.6-0.3,1.1-0.7l-0.1,0.1C49.3,41.4,48.7,41.8,48.2,42.1z"/>
					<path class="st1" d="M49.4,41.4c0.2-0.1,0.3-0.2,0.5-0.3C49.9,41,49.7,41.2,49.4,41.4z"/>
					<path class="st1" d="M42.5,45.4c0.3-0.1,0.1-0.1,0.3-0.2C43,45,41.1,46.3,42.5,45.4z"/>
					<polygon class="st1" points="48.7,42 48.5,42.1 48.2,42.3 					"/>
					<path class="st1" d="M44.4,44.6l0.9-0.5c0,0,0.1-0.1,0.2-0.2C44.9,44.2,44.3,44.6,44.4,44.6z"/>
					<path class="st1" d="M45.5,43.9c0.3-0.2,0.5-0.3,0.7-0.4C46,43.6,45.7,43.8,45.5,43.9z"/>
					<polygon class="st1" points="47.5,42.7 47.2,42.9 46.6,43.3 					"/>
					<path class="st1" d="M34.9,50.1l-1,0.6c-0.1,0.1,0.2-0.1,0.5-0.3C34.7,50.2,35.1,50,34.9,50.1z"/>
					<path class="st1" d="M37.9,48.6c-0.3,0.1-0.3,0.1-0.4,0.2l0,0.1L37.9,48.6z"/>
					<path class="st1" d="M35.1,50.2c-0.1,0.1-1.4,0.9-0.1,0.2C35.1,50.3,36,49.7,35.1,50.2z"/>
					<polygon class="st1" points="20.6,58.4 20.8,58.3 20.7,58.2 					"/>
					<path class="st1" d="M18.2,62.3c-1.2,0.4-0.3,0.2-1.4,0.5c-0.3,0.1,0.9-0.2,0.6-0.1C18.2,62.4,18.5,62.2,18.2,62.3z"/>
					<path class="st1" d="M17.4,62.6c-0.1,0-0.2,0.1-0.4,0.1C17.3,62.7,17.4,62.7,17.4,62.6z"/>
					<polygon class="st1" points="60.9,40.7 61.6,40.2 61.1,40.5 					"/>
					<path class="st1" d="M62.2,39.7l0.2-0.1l0.4-0.3C62.6,39.4,62.3,39.6,62.2,39.7z"/>
					<path class="st1" d="M63,35.8C63,35.8,62.9,35.9,63,35.8c0,0,0,0,0.1,0.1c0,0,0.1,0,0.1,0.1c0.1,0,0.1,0.2,0.1,0.2
						c0,0,0,0,0-0.1c0-0.1-0.1-0.2-0.1-0.2C63.2,35.9,63,35.8,63,35.8z"/>
					<polygon class="st1" points="54.6,43.2 54.8,43.1 54.5,43.2 					"/>
					<path class="st1" d="M46.6,48.5c0.3-0.2,0.7-0.5,1-0.7C46.9,48.3,46.5,48.5,46.6,48.5z"/>
				</g>
			</g>
		</g>
	</g>
</g>
</svg>
