<?xml version="1.0" encoding="utf-8"?>
<!-- Generator: Adobe Illustrator 19.2.1, SVG Export Plug-In . SVG Version: 6.00 Build 0)  -->
<svg version="1.1" id="Layer_1" xmlns="http://www.w3.org/2000/svg" xmlns:xlink="http://www.w3.org/1999/xlink" x="0px" y="0px"
	 viewBox="0 0 63.1 64.7" style="enable-background:new 0 0 63.1 64.7;" xml:space="preserve">
<style type="text/css">
	.st0{fill:#BDBEC0;}
	.st1{fill:#B3B4B7;}
	.st2{fill:#FFFFFF;}
</style>
<g>
	<g>
		<path class="st0" d="M18.2,59.3c-0.3-0.5-0.4-0.2-0.4-0.3C18.3,59.8,18.2,59.2,18.2,59.3z"/>
		<polygon class="st0" points="25.1,57.7 25.4,56.6 25.1,57.5 		"/>
		<path class="st0" d="M26.2,54.8l0.1,0.6c0.6-1.4,0.8-3.4,1.2-4.3c-0.5,0.5-0.5,2.4-1.1,3.5L26.2,54.8z"/>
		<path class="st0" d="M29.1,47.7c0,0,0,0.2-0.2,0.9c0-0.1,0.1-0.1,0.1-0.1C29,48.3,29.1,48.1,29.1,47.7
			C29.1,47.9,29.1,47.7,29.1,47.7z"/>
		<path class="st0" d="M29.1,47.7C29.1,47.7,29.1,47.7,29.1,47.7C29.1,47.7,29.1,47.7,29.1,47.7z"/>
		<path class="st0" d="M29,48.5C28.8,49.1,29.2,48,29,48.5L29,48.5z"/>
		<path class="st0" d="M29.3,47.5c0.1,0,0.1,0,0.2,0.1c0-0.2-0.1-0.4-0.2-0.5C29.2,47.1,29.3,47.5,29.3,47.5z"/>
		<path class="st0" d="M29.1,46.4l0,0.3C29.1,46.7,29.2,46.7,29.1,46.4z"/>
		<path class="st0" d="M29.1,47.1l0-0.5c0-0.1-0.1-0.2,0,0.2C29,46.7,29.1,46.9,29.1,47.1z"/>
		<path class="st0" d="M28.8,47.1c-0.1,0.4,0,0.6,0,0.6c0.1-0.1,0.2-0.2,0.2-0.5C28.9,47.3,28.8,47.6,28.8,47.1z"/>
		<path class="st0" d="M26.9,51.3l0,0.6c0-0.3,0.4-1.3,0.3-1.3L26.9,51.3z"/>
		<path class="st0" d="M31.2,48.4c0.1,0-0.2-0.4-0.3-0.5l-0.7-0.3C30.6,47.9,31.2,48.3,31.2,48.4z"/>
		<path class="st0" d="M31,47.9c0,0,0.3,0.1,0.6,0.2c0.3,0.1,0.6,0.2,0.6,0.2C31.2,47.9,31,47.8,31,47.9z"/>
		<path class="st0" d="M28.9,45.5C29,45.5,29,45.6,28.9,45.5C29,45.6,28.9,45.4,28.9,45.5c0,0-0.1,1.3-0.1,1.2c0,0,0-0.3,0-0.7
			C28.9,45.9,28.9,45.7,28.9,45.5z"/>
		<path class="st0" d="M35,49.7c0,0,0.3,0,0.6-0.1c0.3-0.1,0.6-0.1,0.6-0.1l-0.5,0.1L35,49.7z"/>
		<path class="st0" d="M38.8,49.8c0.8-0.2,1.4-0.4,2-0.7c-0.6,0.2-1.3,0.3-2.2,0.3C38.1,49.7,39.3,49.6,38.8,49.8z"/>
		<path class="st0" d="M34,48.9c0.1,0.1,0.2,0.2,0.9,0.4L34.4,49C34.3,49,34.1,48.9,34,48.9z"/>
		<path class="st0" d="M34.4,49L34.4,49c0.5,0.1,0.8,0.1,1,0.2C35.3,49.1,35,49.1,34.4,49z"/>
		<path class="st0" d="M30.4,46.7c-0.3,0-0.1,0.3-0.5,0.2c0.1,0,0.2,0,0.3,0.1c0.1,0,0.3,0.1,0.5,0.2C30.9,47.1,30.9,47.1,30.4,46.7
			z"/>
		<path class="st0" d="M32.3,48c0,0.1,0.2,0.2-0.2,0.2c0,0,0.3,0.1,0.6,0.1c0.3,0.1,0.6,0.1,0.6,0.1s-0.3-0.1-0.6-0.2
			C32.5,48.2,32.3,48,32.3,48z"/>
		<polygon class="st0" points="33.4,48.5 33.8,48.6 34,48.5 		"/>
		<path class="st0" d="M39.7,48.9c0.5-0.2,1-0.3,1.6-0.5c-0.7,0.2-1.3,0.3-2,0.4C39.2,48.9,38.9,49.1,39.7,48.9z"/>
		<polygon class="st0" points="46.8,45.6 46.7,45.6 46.7,45.7 		"/>
		<path class="st0" d="M39.2,48.8c-0.5,0-0.8,0.2-1.1,0.2c0.4,0,0.8-0.1,1.2-0.2C39.3,48.8,39.3,48.7,39.2,48.8z"/>
		<path class="st0" d="M42.4,48.2c0.3,0,0.8-0.1,0.9-0.2C43,48,42.7,48.1,42.4,48.2z"/>
		<path class="st0" d="M37.4,49.2L37.4,49.2C37.5,49.2,37.5,49.2,37.4,49.2z"/>
		<path class="st0" d="M37.4,49.2c0.3,0,0.5-0.1,0.7-0.2c-0.3,0-0.6,0.1-0.8,0.1C37.3,49.2,37.4,49.2,37.4,49.2z"/>
		<path class="st0" d="M44.7,46.9l0.1-0.1l-0.4,0.3c0.5-0.2,0.9-0.4,1.6-0.6c0.6-0.6,0.7-0.7,0.7-0.8c0,0-0.5,0.3-1,0.7
			C45.2,46.7,44.7,46.9,44.7,46.9z"/>
		<path class="st0" d="M43,47.1c-1.2,0.6-0.8,0.5-1.6,0.9c2.1-0.7-0.6,0.3,1-0.1c-0.4,0.2-0.8,0.3-1.2,0.4c0.4-0.1,0.8-0.2,1.2-0.3
			l-0.1,0l0,0l0,0c-0.1,0-0.1,0,0,0c0,0,0,0,0,0c0,0,0-0.1,0.1-0.1c0.6-0.2,0.1,0-0.1,0.1c0,0,0,0,0,0l0,0c0,0,2.1-1,2-1.1
			c-0.4,0.2-1,0.4-2,0.9C42.7,47.6,43.7,47.1,43,47.1z"/>
		<path class="st0" d="M31.7,46.8C31.7,46.8,31.7,46.9,31.7,46.8C31.9,46.9,31.9,46.9,31.7,46.8z"/>
		<path class="st0" d="M31.5,47.1l0.2,0c0.7,0.5,1.8,1.1,1.6,1.1c-0.2-0.3-0.4-0.5-0.8-0.9c-0.2,0-0.3,0-0.8-0.2
			c-0.4-0.3,0.1-0.1,0.1-0.2C31.4,46.8,30.7,46.5,31.5,47.1z"/>
		<path class="st0" d="M37.4,48.5c0,0,0.5-0.1,0.9-0.1c0.4-0.1,0.9-0.2,0.9-0.2s-0.9,0-0.9-0.1l0.1,0.1
			C37.3,48.2,37.5,48.4,37.4,48.5z"/>
		<path class="st0" d="M47,45.9c0,0,0.7-0.9,0.6-1c0,0-0.6,0.6-0.6,0.6L47,45.9z"/>
		<path class="st0" d="M48.9,44.1c0,0,0.3-0.6,0.3-0.6l-0.4,0.4L48.9,44.1z"/>
		<path class="st0" d="M25,6.6l0.3,0.2c0.5-0.2,0.9-0.2,1.3-0.3C25.8,6.5,24.8,6.4,25,6.6z"/>
		<path class="st0" d="M54.1,19c0.2,0.8,0.2,1.5,0.4,1.7C54.4,20,54.3,19.5,54.1,19z"/>
		<path class="st0" d="M23.8,16.3c0.2-0.2,0.3-0.3,0.3-0.3C23.9,16.2,23.7,16.3,23.8,16.3z"/>
		<path class="st0" d="M53.3,17.2c0,0.1,0.1,0.2,0.1,0.4c0.3,0.4,0.5,0.9,0.7,1.5C54,18.4,53.8,17.7,53.3,17.2z"/>
		<path class="st0" d="M18.6,50.9c-0.1,0.2-0.1,0.4-0.2,0.9C18.4,51.6,18.5,51.3,18.6,50.9z"/>
		<path class="st0" d="M53.8,35.5C53.7,36,53.8,35.6,53.8,35.5L53.8,35.5z"/>
		<path class="st0" d="M53.5,36.2c0.1-0.2,0.2-0.4,0.3-0.6C53.7,35.7,53.6,35.9,53.5,36.2z"/>
		<path class="st0" d="M53.6,36.1c-0.1,0.2-0.1,0.3-0.2,0.4C53.5,36.6,53.5,36.6,53.6,36.1z"/>
		<path class="st0" d="M54.1,34.8c-0.1,0.3-0.2,0.5-0.3,0.8c0-0.1,0.1-0.1,0.1-0.1C53.9,35.4,53.9,35.2,54.1,34.8z"/>
		<path class="st0" d="M35.8,5.9c0.1,0,0.2,0,0.4,0.1C36,6,35.9,5.9,35.8,5.9z"/>
		<path class="st1" d="M55.3,27.2c0,0-0.1-2.3-0.1-2.4l0.1,0c-0.1-2.4-1-4.7-1.8-7.3c-0.4-0.7-0.8-1.4-1.5-2.5l0-0.3
			c-0.3-0.4-0.8-1-1.2-1.6c-0.5-0.5-0.9-1-1.1-1.1c-0.2-0.6-1.1-1.5-2.2-2.3c-1.1-0.8-2.4-1.4-3.2-1.9L44.1,8
			c-0.6-0.3-1.1-0.5-1.7-0.7c-0.6-0.2-1.3-0.3-2-0.5l0,0.3c-0.6-0.1-1.4-0.3-2.3-0.6c-0.9-0.2-1.9-0.5-2.9-0.5
			c0.1-0.1,0.4-0.1,0.7,0c-1.1-0.3-2.3-0.3-3.4-0.1c-0.6,0.1-1.2,0.2-1.8,0.2c-0.6,0.1-1.2,0.2-1.7,0.1c-0.5,0.2-0.9,0.2-1.3,0.2
			c0,0,0.1,0,0.1,0c-0.1,0-0.1,0-0.2,0c-0.2,0-0.5,0-0.8,0.1c0.2,0,0.5,0,0.7,0c-0.4,0.1-1,0.3-1.6,0.5l-0.3-0.2c-0.1,0-0.1,0-0.1,0
			c-0.6,0.1-0.4,0.3-0.1,0.4c-0.3,0.1-0.5,0.3-0.7,0.4c-0.6-0.2-1.5,0.6-2.3,0.6c-0.1,0.2-0.9,0.5-1.5,1c-0.6,0.5-1.2,0.9-1.3,1.2
			c-0.1,0-0.2,0,0.1-0.1c-0.6,0.3-1.2,0.7-1.6,1.2l-0.4-0.1c0,0-0.9,1.3-0.9,1.3c-0.8,0.5-1.2,0.7-0.7-0.2c-0.7,0.9-0.9,1.3-1.2,1.6
			c-0.2,0.3-0.5,0.6-0.9,1.5l-0.1-0.2c-0.4,0.5-0.8,1.6-1.1,1.9c-0.6,0.5-1.5,2.2-2.2,4.3c-0.7,2.1-1,4.6-1.1,6.6
			c0.6-0.8-0.2,1.8,0.4,2c-0.1,0.2-0.1,0.8-0.3,0.2c0.4,2,0.4,3.1,1.3,4.3c0,0.3-0.4-0.3-0.4-0.1c0.1,0.2,0.4,0.6,0.4,0.8
			c0,0.2-0.2-0.2-0.4-0.5c0.9,2,1.6,1.9,2,1.8c0.4,1,0.8,1.4,1.6,1.7c0.2,0.3,0.5,0.9-0.5,0c0.2,0.3,1.1,1.1,2,1.6
			c1.1,0.7,2.4,0.9,2.4,0.7c0.1,0,0.5,0,0.7-0.1c0.3-0.1,0.5-0.4,0.5-0.5c0.6-0.8,0.6-1.4,0.7-1.9c0.1-0.4,0.2-0.8,0.4-1.6l-0.2,0.4
			c-0.1-0.3,0-0.7,0-1.1c0.1-0.5-0.2-1.1-0.7-1.6l0.1,0c-0.7-1.1-0.8-1.4-1-1.6c-0.1-0.2-0.3-0.5-0.5-1.7L17.4,31
			c-0.7-0.1-0.2-2.3-0.2-3.8L17,27.7c-0.2-0.9,0.9-2.3,1.2-3c0.1-0.2,0,0.3,0,0.5c0.8-1.9-0.3-0.3,0.1-1.9c0.3-0.2,0.3,0.5,0.7-0.5
			c0.2-0.2,0.3-1,0.6-1.8c0.3-0.8,0.8-1.7,1.4-2.2c-0.3,0.1-0.6,0.3-0.2-0.3c0.7-1,2.5-1.8,3.1-2.7c0.1,0,0.2,0,0.2,0
			c0.6-0.6,2.4-1.5,2.8-1.8c0.5,0.3,1.8-0.2,3-0.5c1.2-0.3,2.4-0.4,2.4,0c0,0,0.7,0,1.4,0c0.7,0,1.3,0.1,1.3,0.1L35,13.8
			c1.7,0.3,2.3,0.4,2.9,0.3c0.4,0.2,0.1,0.2,0,0.2c1.1,0.5,1.7,0.9,2.2,1.2c0.5,0.3,1.1,0.5,2,1.1l0,0.3c0.6,0.3,1.9,2.9,2.6,5.3
			c0,0-0.1-0.1-0.2-0.2c1,2.6-0.6,6.6,0.2,7.7c0,0,0,0.5-0.1,0.9c0,0.5-0.1,0.9-0.1,0.9c0.6-2.4,0.3,0.5,0.7-0.5
			c-0.1,1-0.9,2.4-0.6,1.2l0.1-0.2c-0.3-0.5-1,2.9-1.4,2.6c-0.9,2.2-2.3,4.1-4,5.3c-1.8,1.1-4,1.4-5.6,0.5c0,0,0.2,0.5,0.2,0.5
			c0,0.1-1.2-0.6-1.2-0.7c-0.2-0.3-0.2-0.5,0.6,0C33,40.1,32,39.6,32,39.6c-0.4-0.8-0.2-0.7,0-0.5c0.2,0.2,0.6,0.5,0.4,0.3
			c0,0-0.4-0.6-0.4-0.6l0,0.2c-0.4-0.4-0.7-0.4-0.7-1.6c0.1-0.7,0.3-0.4,0.3-0.6c0,0,0-0.1,0.1-0.4c0,0.1,0.5-1.9,0.5-1.9l-0.5,0.7
			c0.1-0.9,0.5-1.8-0.1-1c0.9-1.1,2.5-7.2,2.6-8.1c0-1.3,0.1-2.8-0.6-4.4c0.1,0.4-0.1,0.7-0.7-0.5c0.4,0,0.2-0.6-0.5-1.3
			c-0.7-0.7-1.9-1.1-2.5-1.4c0.6,0.3-0.6,0.1-1.6,0.3c-1,0.2-1.8,0.7-1,0.6c-1.2,0.4-0.2-0.2-1.1,0c-2.6,1.7-4.5,5.1-4.4,8.7
			c0.1,0.1,0.2-0.5,0.4,0.2c0,0-0.1,0.5-0.2,0.9c-0.1,0.5-0.1,1-0.1,1c0.2,0.7,0.6,0.5,0.6,1.8c0-0.2,0.1-0.5,0.2,0
			c0.1,0.5,0.3,1,0.3,1.2c0,0.1,0,0.1-0.1,0.2l-0.3,0.9l-0.3,1.1l-0.5,2.2c-0.3,1.4-0.6,2.9-1,4.4c-0.7,2.9-1.4,5.8-2.4,8.6
			c0.4-0.8,0.3-0.3,0.1,0.4c0.1-0.4,0.2,0.1,0.4,0c0,0-0.2,0.7-0.4,1.4c-0.2,0.7-0.3,1.4-0.3,1.4c0.3,0.5-0.1,3,0.2,3.3l-0.1-0.9
			c0.2,0.6,0.5,0.1,0.8-0.5c0,0.9,0,1.9,0,2.7c1.5,2.8,3.8,1.4,3.8,1.4c1.2-1.9,2.6-4.4,3.3-7c0.4-1.4,2.3-8.9,2.3-8.9
			c1.1,2.2,4.4,4,7.9,4c2.7,0,5.1-0.6,7.3-1.8c0,0-0.1,0.1-0.1,0.1l0.1,0.1c0.5-0.3,0.8-0.6,0.5-0.4c0.5-0.3,0.9-0.5,1.3-0.8
			c-0.6,0.7,0.2,0.9,1.2,0.6c0-0.1,0-0.1,0.7-1c-0.4,0.2-2.2,1.3-1.5,0.6c1.1-1,1-0.7,1.6-1.1c-0.5,0.2,0.7-1.2,0.6-1.6
			c1.8-2,3.3-4.6,4.3-7.5c0,0.1,0,0.1,0.1,0c0,0,0.2-0.8,0.2-0.8c0.5-0.6-0.2,1.6,0.3,0.6c-0.1,0.5-0.2,1.1-0.4,1.8
			c-0.2,0.6-0.5,1.3-0.9,2l-0.4,0.1c0.1,0,0.4-0.5,0.6-1c-0.3,0.7-1.4,1.7-1.4,2.4l0.7-0.8c-0.4,1.1-0.9,2.5-1.9,3.5
			c0.7-0.3,0.2-0.2,1.1-0.9c-0.4,0.2,0.1-0.5,0.6-1.2c0.5-0.7,0.8-1.4,0.3-0.9c0.9-0.7,1-1.5,1.9-2.6c-0.1,0-0.4,0.4,0.1-0.7
			c0-0.1,0-0.2,0-0.3c0,0,0,0,0-0.1l0,0.1c0-0.1,0-0.1,0,0c-0.1,0.3-0.3,0.4-0.4,0.5c0-0.6,0.6-2.4,0.6-3.1c0.2-0.7,0,0.3,0.3,0
			l0.1-1c0.3,0,0.7-1.7,0.6-0.1l0.3-1.5c0.3-0.8,0.5-2.1,0.4-2.8C55.4,27.7,55.1,26.6,55.3,27.2z M49.3,13.4c-0.1,0,0,0.2,0,0.3
			c-0.3-0.3-0.6-0.7-0.9-1C48.7,12.9,49,13.2,49.3,13.4z M41.5,7.7c0.2,0,2.3,1.4,2.7,1.9c0.1,0.1,0.1,0.1,0.1,0.2
			c-0.5-0.3-1-0.5-1.5-0.8l0.1-0.4l-0.4,0.3c-0.5-0.2-1-0.4-1.6-0.6C41.1,8,41.3,7.8,41.5,7.7z M32.7,6.3l0.4,0.2
			c0,0,1.6-0.2,1.6-0.2c-0.4,0.2-1.2,0.4-2,0.8c-0.9,0-1.7,0.1-2.5,0.2C30.9,6.8,31.7,6.4,32.7,6.3z M16.6,13.1
			c-0.3,0.3-0.6,0.6-0.9,0.8c0.3-0.7,0.5-1.2,0.5-1.2C16.3,12.9,16.5,13,16.6,13.1z M13.1,37.4c-0.4-0.3-0.7-0.7-0.7-0.7
			c-0.1-0.2,0.1-0.1,0.4,0c-0.1-0.1-0.2-0.2-0.3-0.2c-0.1-0.3-0.1-0.4,0-0.4c0.2,0.3,0.4,0.5,0.6,0.8c-0.1,0-0.2-0.1-0.3-0.1
			c0.1,0.1,0.3,0.3,0.5,0.4c0,0.1,0.1,0.1,0.1,0.2c0.2,0.3,0.3,0.6,0.4,0.8C13.9,38.1,13.5,37.8,13.1,37.4z M31.4,36.9
			c0-0.6,0.1-0.4,0.1-0.3L31.4,36.9z M45.6,44.9c0.5-0.3,0.9-0.7,1.4-1.1C46.7,44.2,46.2,44.6,45.6,44.9z M47.3,43.5
			C47.3,43.5,47.3,43.4,47.3,43.5C47.3,43.5,47.3,43.5,47.3,43.5C47.3,43.5,47.3,43.5,47.3,43.5z M54.5,29.9c-0.4,1.1-0.6,0-0.8,0.2
			c0-1.4,0.4-2.2,0.4-3.2L54,28.1c-0.1-0.5-0.1-1.4,0-1.9c0,0.1-0.1,0.4-0.1,0.8c0-0.4,0-0.9,0-1.3c0-1.9-0.3-3.8-1-5.6
			c0.5,0.5,1.1,1.6,1.4,3.1c0.3,1.8-0.2,0.8-0.1,1.1c0.1,1.7,0.2,2.4,0.3,3.1C54.8,27.9,54.9,28.5,54.5,29.9z M54.9,30L54.9,30
			C55.1,29.2,55,29.5,54.9,30z"/>
		<path class="st0" d="M52,37.8c0-0.1,0.1-0.2,0.1-0.3C52.1,37.6,52,37.7,52,37.8z"/>
		<path class="st0" d="M51.7,40.4l0.5-1c-0.3,0.5-0.4,0.6-0.6,0.8C51.7,40.3,51.9,40.1,51.7,40.4z"/>
		<path class="st0" d="M49.6,41.9c0.1,0.4,0.5-0.4,0.9-1.1c-0.2-0.1-0.5,0.6-1,1.2L49.6,41.9z"/>
		<path class="st0" d="M49.4,42.1c-0.1,0.2-0.3,0.4-0.5,0.5C48.9,42.8,49.1,42.5,49.4,42.1z"/>
		<path class="st0" d="M54.1,33.9c-0.1,0.3,0.2,0.3,0.1,0.5C54.4,34.8,54.5,31.9,54.1,33.9z"/>
		<polygon class="st0" points="49.5,40.9 49.9,40.8 49.9,40.4 		"/>
		<path class="st0" d="M52.4,35.8c0,0-0.1,0.3-0.2,0.5c-0.1,0.3-0.3,0.5-0.3,0.5c0,0,0,0.1,0,0.3C52.2,36.6,52.5,35.9,52.4,35.8z"/>
		<path class="st0" d="M51.8,37.2c-0.2,0.3-0.3,0.7-0.4,0.9C51.6,37.9,51.7,37.5,51.8,37.2z"/>
		<path class="st0" d="M53.7,22.8c0.1,0.3,0.2,0.8,0.3,0.6l-0.3-1.3C53.6,21.9,53.6,22.3,53.7,22.8z"/>
		<polygon class="st0" points="17.6,56.6 17.8,55.9 17.8,55.6 		"/>
		<path class="st0" d="M17.8,57.7l0.3,0.6c0-0.2-0.1-0.7,0-0.8L17.8,57.7z"/>
	</g>
	<g>
		<path class="st2" d="M49.6,41.8c0.4-0.2,0.2-0.1,0.3-0.2C49.3,42,49.6,41.8,49.6,41.8z"/>
		<polygon class="st2" points="43.7,45.2 43.8,45.1 42.9,45.6 		"/>
		<path class="st2" d="M41.1,46.6l0.2-0.1l0.4-0.3c-1.2,0.7-2.7,1.5-3.6,2C38.7,48.1,40.1,47.2,41.1,46.6z"/>
		<path class="st2" d="M35.8,49.4c-0.1,0-0.1,0-0.1,0.1c-0.1,0.1-0.3,0.2-0.6,0.3C35.3,49.7,34.5,50.2,35.8,49.4z"/>
		<path class="st2" d="M35.7,49.5C36.2,49.2,35.3,49.7,35.7,49.5L35.7,49.5z"/>
		<path class="st2" d="M33.1,50.8c-0.8,0.5-0.6,0.4-0.1,0.2l0.8-0.5C33.5,50.6,32.8,51,33.1,50.8z"/>
		<path class="st2" d="M32.6,51.2c-0.1,0-0.2,0.1-0.4,0.2L32.6,51.2z"/>
		<path class="st2" d="M33.5,50.7l-0.8,0.5c0.1,0,0.1,0,0.4-0.2C33,51.1,33.1,51,33.5,50.7z"/>
		<path class="st2" d="M34.2,50.4c1.5-0.8,1.2-0.8-0.2,0.1C34.4,50.3,35,50,34.2,50.4z"/>
		<path class="st2" d="M38.5,48.2l0.5-0.3c-0.2,0.2-1.1,0.6-1.1,0.6L38.5,48.2z"/>
		<path class="st2" d="M28.1,53.6c0,0,0.3-0.1,0.4-0.1l0.6-0.3C28.7,53.3,28.2,53.6,28.1,53.6z"/>
		<path class="st2" d="M28.5,53.5L27.6,54C28.4,53.6,28.5,53.5,28.5,53.5z"/>
		<polygon class="st2" points="32.2,51.6 33.5,50.8 31.9,51.8 		"/>
		<polygon class="st2" points="24.5,55.7 24.8,55.4 25.3,55.1 		"/>
		<path class="st2" d="M22.1,56.8c0,0-0.1,0.1-0.1,0.1C22.1,56.9,22.1,56.9,22.1,56.8l0.1,0c0.1-0.1,0.3-0.1,0.5-0.2
			c0.3-0.2-0.5,0.2-0.2,0C22.1,56.8,22.2,56.8,22.1,56.8z"/>
		<path class="st2" d="M25.5,55.2l0.4-0.1c0.1-0.1,0.2-0.1,0.3-0.2C26.1,54.9,26,54.9,25.5,55.2z"/>
		<path class="st2" d="M25.9,55L25.9,55c-0.4,0.2-0.6,0.3-0.7,0.4C25.2,55.4,25.4,55.3,25.9,55z"/>
		<path class="st2" d="M29.9,52.8c-0.5,0.3-1.5,0.9-0.5,0.4C29.8,53,29.2,53.3,29.9,52.8z"/>
		<path class="st2" d="M27.7,54.1l-0.9,0.6L27.7,54.1C27.6,54.1,27.4,54.2,27.7,54.1z"/>
		<polygon class="st2" points="26.3,54.9 26.7,54.6 26.4,54.8 		"/>
		<path class="st2" d="M22.1,57.1c-0.2,0.1-0.3,0.2-0.5,0.3c0.2-0.1,0.4-0.2,0.7-0.3C22.3,57,22.4,56.9,22.1,57.1z"/>
		<polygon class="st2" points="22.5,56.1 22.4,56.2 22.4,56.2 		"/>
		<path class="st2" d="M23.1,56.6c-0.3,0.2-0.5,0.3-0.8,0.5c0,0,0,0,0,0C22.6,56.9,22.9,56.7,23.1,56.6z"/>
		<path class="st2" d="M21.4,57.4c0,0,0.1-0.2,0.1-0.2C21.3,57.3,21.3,57.4,21.4,57.4z"/>
		<path class="st2" d="M23.6,56.3L23.6,56.3C23.5,56.3,23.5,56.3,23.6,56.3z"/>
		<path class="st2" d="M23.6,56.3c-0.2,0.1-0.3,0.2-0.5,0.3c0.2-0.1,0.4-0.3,0.6-0.4C23.7,56.2,23.6,56.3,23.6,56.3z"/>
		<path class="st2" d="M24.5,54.1l-1,0.7c0,0,0.3-0.3,0-0.1c0,0.1-0.9,0.8-1.8,1.4c-0.4,0.3-0.3,0.4-0.2,0.4c0.2,0,0.4-0.1,0.9-0.3
			c0,0,0-0.1,0.8-0.7c-0.3,0.2-1.9,1.2-1.2,0.7c1.1-0.8,0.9-0.6,1.5-1C22.9,55.4,24.8,54.1,24.5,54.1z"/>
		<path class="st2" d="M21.5,56.9L21.5,56.9L21.5,56.9c0.1-0.1,0.3-0.2,0.5-0.3c0.1-0.1,0.2-0.2,0.3-0.3c0.1-0.1,0.1-0.1,0.1-0.2
			c0,0-0.3,0.2-0.6,0.5C21.7,56.8,21.5,56.9,21.5,56.9z"/>
		<path class="st2" d="M21.1,57.4c-0.1,0.1,0,0.2,0.1,0.1c-0.7,0.3-0.2-0.3-0.8,0.2c-0.1,0.1-0.1,0.2-0.1,0.2c0.1,0.1,0.1,0,0.2,0
			c0.1,0,0.2-0.1,0.3-0.1c0.1-0.1,0.3-0.1,0.5-0.3c-1.1,0.4,0.4-0.2-0.1-0.1c0.2-0.1,0.3-0.1,0.5-0.2c-0.1,0-0.2,0.1-0.3,0l0,0l0,0
			l0,0c0,0,0,0,0,0l0,0l-0.1,0.1c-0.2-0.1,0,0,0.1-0.1l0,0l0,0c0,0-0.1,0-0.1,0c-0.1,0,0-0.1,0-0.2c0.1-0.1,0.2-0.3,0.2-0.3
			c-0.1,0.1-0.2,0.1-0.2,0.2C21.1,57.3,21.1,57.3,21.1,57.4z"/>
		<path class="st2" d="M28.6,53.9C28.5,53.9,28.5,53.9,28.6,53.9C28.4,54,28.4,54,28.6,53.9z"/>
		<path class="st2" d="M28.6,53.8l-0.1,0.1c-0.7,0.4-1.7,0.8-1.5,0.7c0.2-0.1,0.4-0.1,0.9-0.3C28,54.2,28.1,54.1,28.6,53.8
			c0.3-0.1-0.1,0.1-0.1,0.1C28.8,53.8,29.4,53.4,28.6,53.8z"/>
		<path class="st2" d="M23.1,57L23.1,57c0.8-0.5,0.6-0.4,0.7-0.5l-1.4,0.8L23.1,57z"/>
		<polygon class="st2" points="22.7,56.1 22.6,56.3 23.3,55.6 		"/>
		<polygon class="st2" points="24.5,54.8 24.4,54.9 24.9,54.6 		"/>
		<path class="st2" d="M15.3,53.5L15.3,53.5C15.3,53.5,15.4,53.5,15.3,53.5z"/>
		<path class="st2" d="M59,29.7l0.3,0c0.5-0.2,0.9-0.3,1.2-0.3C59.7,29.5,58.9,29.6,59,29.7z"/>
		<path class="st2" d="M29.1,48.2l0.2-0.1c0.1-0.1,0.3-0.2,0.4-0.3C29.5,47.9,29.3,48,29.1,48.2z"/>
		<path class="st2" d="M28.1,49.2l0.8-0.4C28.6,48.9,28.3,49.1,28.1,49.2z"/>
		<path class="st2" d="M34.5,41l0.4-0.4C34.2,41.1,34.5,41,34.5,41z"/>
		<path class="st2" d="M45,43c-0.7,0.3-1.2,0.5-1.4,0.7C44.1,43.5,44.6,43.3,45,43z"/>
		<path class="st2" d="M17.5,53.1c0.2-0.2,0.3-0.3,0.3-0.3C17.6,53,17.5,53.1,17.5,53.1z"/>
		<path class="st2" d="M46.5,42.2c-0.1,0-0.2,0.1-0.3,0.1c-0.4,0.2-0.8,0.5-1.3,0.7C45.5,42.8,46,42.5,46.5,42.2z"/>
		<path class="st2" d="M15.8,50.8c-0.1,0.1-0.3,0.2-0.7,0.5C15.3,51.2,15.6,51,15.8,50.8z"/>
		<path class="st2" d="M31.9,50.4C31.5,50.6,31.8,50.4,31.9,50.4L31.9,50.4z"/>
		<path class="st2" d="M50.2,39.3L50.2,39.3C50.1,39.4,50.1,39.4,50.2,39.3z"/>
		<path class="st2" d="M31.3,50.7c0.3-0.1,0.4-0.2,0.5-0.3C31.6,50.5,31.4,50.6,31.3,50.7z"/>
		<path class="st2" d="M31.4,50.7c-0.1,0.1-0.2,0.1-0.4,0.2C31,50.9,31,50.9,31.4,50.7z"/>
		<path class="st2" d="M32.4,50.1c-0.2,0.1-0.4,0.2-0.6,0.4c0.1,0,0.1-0.1,0.1,0C32,50.3,32.2,50.2,32.4,50.1z"/>
		<polygon class="st2" points="50.3,35.9 50.3,35.8 50.3,35.9 		"/>
		<path class="st2" d="M48.9,36.8c0.5-0.5,0.9-0.7,1.4-0.9l-0.6,0L48.9,36.8z"/>
		<path class="st2" d="M57.1,26.9c-0.1,0.1-0.4,0.2-1,0.6C56.4,27.3,56.8,27.1,57.1,26.9z"/>
		<path class="st2" d="M63.8,23.4C63.8,23.4,63.8,23.4,63.8,23.4C63.8,23.4,63.8,23.4,63.8,23.4C63.8,23.4,63.8,23.4,63.8,23.4
			L63.8,23.4L63.8,23.4z"/>
		<path class="st2" d="M11.6,56.4C11.6,56.4,11.6,56.4,11.6,56.4C11.6,56.4,11.6,56.4,11.6,56.4z"/>
		<path class="st2" d="M16.8,52.5l0.2-0.2C17,52.4,16.9,52.4,16.8,52.5z"/>
		<path class="st2" d="M62.5,29.1c-0.5,0.1-0.9,0.2-1.2,0.2l0.1,0c-0.1,0-0.1,0-0.2,0c-0.2,0-0.5,0.1-0.7,0.1c0.2,0,0.5-0.1,0.6-0.1
			c-0.4,0.1-1,0.2-1.5,0.4l-0.3-0.1c0,0-0.1,0-0.1,0C58.6,29.9,58.7,30,59,30c-0.3,0.1-0.5,0.2-0.7,0.3c-0.5-0.1-1.4,0.7-2.1,0.8
			c-0.3,0.3-2.5,1.5-2.6,1.9c0,0-0.2,0.1,0.1-0.1c-0.6,0.3-1.1,0.6-1.6,1l-0.3,0l-1.1,0.9c-0.8,0.3-1.1,0.5-0.5-0.1
			c-1.6,1.2-1.4,0.9-2.8,2l0-0.1c-0.5,0.3-1.3,1-1.7,1.1c-1.3,0.6-5.9,3.5-9,5.3c0.7-0.1-1.5,0.8-1.5,1c-0.2,0.1-0.7,0.3-0.2-0.1
			c-1.5,1-2.4,1.3-3.3,2.1c-0.2,0.1,0.3-0.3,0.1-0.2c-0.1,0.1-0.5,0.3-0.6,0.4c-0.2,0.1,0.2-0.2,0.4-0.4c-1.6,1-1.6,1.2-1.6,1.5
			c-0.8,0.4-1.2,0.7-1.8,1.1c-0.3,0.1-0.8,0.4,0.2-0.3c-0.6,0.3-3.4,2-3.4,2.1c-0.2,0.1-0.8,0.5-0.9,0.6c-1.2,0.8-1.3,0.8-2.6,1.6
			l0.3-0.2c-0.4,0.4-1,0.6-2,1.3l0,0c-2.3,1.3-0.9,0.6-3.2,1.8l0.2,0c-0.1,0.3-2,1.1-3.3,1.8l0.5-0.2c-0.3,0.2-1,0.5-1.2,0.5
			c-0.3,0.1-0.4,0-0.5,0c0,0,0.2-0.1,0.2-0.2c-0.2,0-0.2,0.1-0.4,0.2c-0.1,0.1-0.3,0.4-0.7,0.3c0.3-0.3,0.6-0.3,0.8-0.6
			c0.1-0.1,0.1-0.2,0.3-0.4l0.2-0.2c0.2-0.1,0.3-0.3,0.5-0.4c0.4-0.3,0.7-0.6,1-0.8c-0.3,0.2-0.6,0.3,0-0.2c0.9-0.7,2.6-1.7,3.4-2.4
			c0.1-0.1,0.2-0.1,0.2-0.1c0.7-0.5,2.3-1.6,2.7-2c0.8-0.2,4.5-3.1,4.6-2.9l2.3-1.5l0,0.1c1.5-0.9,1.9-1.3,2.4-1.7
			c0.3-0.2,0.1,0,0.1,0c2.2-1.3,2.4-1.5,4.1-2.7l0.2,0c0.5-0.3,3.1-1.9,5.2-3.3c0,0-0.1,0.1-0.2,0.2c2.3-1.6,5.7-3.4,6.5-4.2l1.5-1
			c-2,1.3,0.2-0.3-0.6,0.2c0.8-0.5,2.1-1.2,1.1-0.6l-0.2,0.1c-0.3,0.3,2.5-1.5,2.5-1.4c4-2.5,7.9-4.9,11.6-7.2L61.1,25l1.3-0.8
			c0.4-0.2,0.5-0.2-0.4,0.3c0.5-0.3,1.5-1,1.5-1c0.1,0,0.1-0.1,0.2-0.1c0,0,0,0,0,0c0,0,0,0,0,0c0,0,0,0,0,0c0,0,0,0,0,0
			c0,0,0,0,0,0l0,0c0,0,0,0,0,0c0,0,0.1,0,0.1-0.1l0,0c0,0,0,0,0-0.1c0,0,0-0.2-0.1-0.2c-0.1,0-0.1,0-0.1,0l-0.1,0l0,0l0,0l0,0
			c0,0,0,0,0,0l0,0c0,0,0,0,0,0c0,0,0,0,0,0l0,0l-0.1,0c0,0,0,0,0,0l0,0l0.1-0.1c0,0,0,0,0,0c0,0,0,0,0,0c0,0,0,0,0,0l0.1,0l0,0
			c0,0,0,0,0.1,0c0,0,0.3,0.1,0.2,0.2c-0.1,0.3-0.1,0.1-0.1,0.2l-0.1,0.1l0,0c0,0,0,0,0,0l0,0l-0.2,0.1c0.1,0,0.2-0.1,0.2-0.1l0,0
			l-0.1,0.1c-0.1,0.1-0.2,0.1-0.2,0.2c-0.1,0.1-0.2,0.1,0,0c0,0,0.2-0.1,0.4-0.2l0.1-0.1c0,0,0,0,0.1-0.1c0.1,0,0-0.4-0.2-0.4
			c-0.1,0-0.1,0-0.2,0l0,0l0,0c-0.1,0-0.1,0-0.1,0.1c-0.1,0-0.1,0.1-0.1,0.1l0.2-0.1c-0.7,0.3-0.7,0.4-1.9,0.9
			c-0.8,0.3-0.4,0.1-0.7,0.2c0,0-0.1,0-0.5,0.2L58.7,25l0.7-0.2c-0.8,0.4-1.7,0.7-0.8,0.4c-0.6,0.2-2.3,0.8-3.9,1.6
			c-1.5,0.9-2.8,1.6-3.3,1.9c-1,0.6-2,1.2-3.3,2c0.3-0.2,0.5-0.2-0.6,0.4c0.3-0.3-2,1.1-2.9,1.6c0.8-0.4-3.1,1.8-1.8,1.2
			c-0.9,0.5-0.1,0-0.8,0.4c-2.3,1.4-4.7,2.9-7.4,4.5c0,0,0.4-0.2-0.1,0.1l-1.4,0.8c-0.5,0.3-0.4,0.4-1.4,0.9c0.1-0.1,0.3-0.2,0,0
			c-5.2,3.2-10.5,6.6-15.6,10.1c0.7-0.5,0.2-0.1-0.3,0.2c0.3-0.2,0,0,0.1,0l-2.1,1.5c-0.4,0.3-2.2,1.7-2.4,1.8l0.6-0.5
			c-0.8,0.7,1.2-0.9,1.1-0.8c1-0.7,2.6-1.8,4.3-3c0.4-0.2-0.3,0.2-0.1,0.1c0.4-0.3,0.9-0.7,1.9-1.3l-0.1,0.1
			c2.6-1.8,3.8-2.5,6.8-4.4l-0.2,0.1c0.6-0.3,0.8-0.5,1.1-0.7c0.7-0.5-1.8,1.1-1.2,0.7c0.9-0.5,4.6-2.9,5.2-3.2
			c1-0.6-0.3,0.1,0.7-0.5l0.3-0.1l0.2-0.2c0.7-0.4,1-0.6,1-0.6c-0.2,0.1-0.5,0.3-0.6,0.4c1-0.6,2.4-1.4,2.7-1.6l-1,0.6
			c2.8-1.7,5.9-3.6,8.8-5.3l-0.2,0.1c2-1.2,1.7-0.9,3.9-2.3l-0.1,0.1c0.4-0.3,1-0.6,1.7-1c-0.6,0.4,1.1-0.6,0.4-0.1
			c2.2-1.3,1.1-0.7,2.5-1.6l0.4-0.2c0.5-0.3,0.5-0.4,1.6-1c-0.9,0.6,0.8-0.4-0.3,0.3c2.4-1.4,3.5-1.9,4.8-2.3
			c1.1-0.6-2.2,0.9-1.6,0.6c-0.6,0.2,0.9-0.5,1.7-0.8c0.8-0.3,1.4-0.4,3.4-1.3c0,0,0,0,0,0c-0.1,0.1-0.2,0.1-0.4,0.2
			c0.1,0,0.2-0.1,0.3-0.1c-0.5,0.3-1.1,0.7-1.7,1.1l0.1-0.1c-0.2,0.1-0.6,0.4-1,0.6l0.6-0.5c-0.7,0.5-1.3,0.8-2,1.2
			c0.3-0.2-0.2,0.2,0.4-0.1c-2.4,1.6-1.6,0.8-4.1,2.4c0.5-0.3,1.1-0.6,0.6-0.3c-0.5,0.3-1.3,0.7-1.6,0.9c-1.9,1.2,0.3-0.1-0.5,0.4
			c-0.7,0.3-0.9,0.6-1.7,1.1l0-0.1c-2.2,1.3-0.5,0.5-2.4,1.6l0.8-0.6l-1,0.6l0.2-0.2c-1.1,0.7-1.4,0.9-2.5,1.6
			c0.3-0.1-0.1,0.2-1,0.8c-0.7,0.4,0.3-0.3-1,0.6c0.3-0.2,0.6-0.5,1.2-0.8c0.1-0.1,0.2-0.2,0.3-0.3c-0.7,0.4-1.8,1.1-2.2,1.4
			c0.2-0.1,0.4-0.2,0.5-0.3L41.1,37c-0.3,0.2-0.1,0,0.1-0.2c-0.4,0.2-0.7,0.5-1.2,0.8c0.1-0.1,0-0.2,0.8-0.7L39,38.2
			c-0.1,0.1-1,0.5-0.8,0.4c-1,0.6-2.5,1.7-3.8,2.5c-0.1,0.1-0.2,0.2-0.5,0.3c-1.3,0.8-2.5,1.4-3.9,2.5l-0.9,0.4
			c-1.2,0.8,1.2-0.6-0.7,0.7c-1.4,0.9-0.6,0.2-1.1,0.5c-0.7,0.5-1.8,1.4-3.1,2.1c0.4-0.3,0.8-0.5,1.1-0.8l-1,0.6
			c1.1-0.9,2-1.4,1-0.9c0,0.3-3.8,2.5-3.8,2.8l-0.7,0.4c0.2-0.1,0.2-0.1,0.4-0.3c-1.3,0.7-0.8,0.8-2.4,1.8c-0.6,0.4-1,0.6-0.6,0.3
			l-0.4,0.3L17,52.4c-0.3,0.2-0.3,0.2-0.2,0.1l-1.6,1.1l0,0c-0.3,0.3-0.8,0.7-1.1,1c-0.5,0.3,0.2-0.2,0.1-0.1l-1,0.8
			c-0.4,0.3,0.3-0.4,1-1c-0.6,0.2-0.8,0.4-1.1,0.7c-0.3,0.3-0.5,0.4-1.6,1.4c0.1-0.1,0.2-0.2,0.3-0.2c-0.3,0.4-0.7,0.7-1.3,1.3
			c0.2-0.2,0.6-0.7,1-1c-0.2,0.2-0.4,0.3-0.6,0.5c0,0,0.3-0.3,0.7-0.6c0.3-0.3,0.7-0.6,0.7-0.6c-0.8,0.5-2.9,2.2-2.9,3
			c0-0.1,0.2-0.6,0.8-1.1c0.6-0.5,0.9-0.8,0.3-0.1c-0.4,0.4-0.7,0.8-0.7,1.2c0,0-0.2,0.2,0.1,0.4c0.2,0.1,0.4,0.1,0.9,0.1l-0.2,0.2
			c0.5-0.1,0.8-0.2,1.1-0.4c0.3-0.1,0.5-0.3,0.9-0.5c0.4-0.2,0.6-0.3,0.9-0.4c0.2-0.1,0.3-0.1,0.5-0.2c0.3-0.1,0.4-0.1,0.5-0.1
			c1.5-0.8-1.1,0.4,0.7-0.6c1.3-0.7,2.1-1.2,3.6-2.2c0.9-0.5-0.1,0.2,0.2,0l0.7-0.6c0.2-0.1,0.1,0,0.1,0c0.6-0.4,0-0.1,1-0.8
			c0.2-0.3,2.2-1.1,3.4-2c0.3-0.2-0.1,0.2,0,0.2c1.7-1.1,1.4-1,2.8-2l1.2-0.7c-0.9,0.4,0.1-0.3,1.1-1c-0.4,0.2-0.7,0.3-0.8,0.4
			l1.5-1c0.2-0.1,0.1,0-0.2,0.3c0.1-0.1,0.2-0.1,0.3-0.2c0.6-0.3,0.3,0,0,0.3c-0.2,0.1-0.4,0.2-0.6,0.3c-0.3,0.3-0.7,0.6-0.5,0.6
			c0.1-0.1,0.3-0.2,0.5-0.3c-0.1,0.1-0.1,0.1-0.1,0.1c0.1,0,0.2-0.1,0.4-0.3l0.4-0.1l0.1-0.1l2.1-1.2c1.4-1,2.5-2,4.8-3.5
			c-0.5,0.5,0,0.3,0,0.4c-0.7,0.3-1.8,1.2-3,1.9c0.6-0.4,0.5-0.2,0.4-0.1l2.1-1.4c0,0.1,0.5-0.2,1.1-0.5c-0.6,0.1,1.5-1.1,2.4-1.7
			c0.1,0-0.1,0.2-1.2,0.9c1.3-0.6,1.4-1.2,2.6-1.7c-0.3,0.2-0.4,0.2-0.5,0.3c0.6-0.4,2.1-1.3,1.8-1l-0.3,0.2c1.8-1,5.3-3.2,5.5-3.5
			c0,0-0.1,0.4-0.2,0.5l2.7-2.5c-0.2,0.3,1.1,0.1-0.3,1.1c0.4-0.2,1-0.5,1.8-1.1c-0.3,0.1-0.9,0.2-0.5-0.1c1.2-0.4,0.8-0.3,2.2-0.9
			c-0.4,0.2-0.1-0.3,0.6-0.7c-0.1,0.1,0.2,0.2,0,0.4l1.5-1.2c-0.4,0.3,0.1,0.3,0.5,0.1c-0.2,0,1.4-0.8,1.9-1c0,0-0.8,0.2-0.8,0.3
			c2-0.8,1.8-1.2,4-1.7c-0.2,0.1-0.5,0.5,0.5,0.3c0.2-0.1,0.7-0.4,1.5-0.6c0.4-0.1,0.9-0.2,1.4-0.2c0.3,0,0.5,0.1,0.7,0.3
			c0.2,0.2,0.2,0.5,0.1,0.7c0,0-0.3,0.4-0.3,0.3c0,0-0.2,0.3-0.6,0.6c-0.4,0.3-0.7,0.6-0.7,0.6c0.3-0.4,1.3-1.1,1.2-1.8
			c-0.3-0.4-1-0.3-1.3-0.2c-0.4,0.1-0.6,0.2-0.9,0.2c0.7,0,0.2,0.1,0.8,0.1c0,0.1-0.3,0.1-0.4,0.1c0,0,0.2,0,0.4,0
			c0.2,0.1,0,0.3,0,0.3c0.2,0,0.1,0.1,0,0.3c-0.2,0.2-0.7,0.5-0.6,0.6c0,0,0.7-0.5,0.8-0.7c0.1-0.1,0.2-0.2,0.2-0.3
			c0-0.1-0.1-0.1-0.1-0.1c0.1-0.1,0.7,0,0.5,0.4c-0.1,0.2-0.3,0.4-0.6,0.6c-0.3,0.3-0.8,0.5-1.2,0.8c-0.5,0.2,0.2-0.5,0.1-0.5
			c-0.2,0.2-1.6,1.1-1.8,1.1l0.7-0.5c-1,0.5-1.5,1.1-2.8,1.6c-0.4,0.2-1.3,0.5-1.4,0.6c0.8-0.2,1.2,0.3,0.9,0.7
			c-0.2,0.1-2.3,1-2.8,1.2c-0.8,0.2,0.8-0.9,0.2-0.7c0,0.1-0.3,0.3-0.5,0.4c-0.5,0.2,0.1-0.2-0.8,0.3c-0.1,0.3-1.9,1-0.4,0.4
			c-0.9,0.6-1,0.5-2.1,1.1c0.4-0.1-0.8,0.9-1.7,1.5c0-0.1-0.2,0-0.3,0c-1.9,1-2.9,1.6-4.7,2.5c-0.2,0.1-1.1,0.5-0.7,0.2
			c-0.2,0.2-0.4,0.4-1,0.7c-1.1,0.5,1.2-0.7,0.3-0.4c0,0.1-1.3,0.9-2.1,1.4c0.3,0,1.8-1,2.5-1.5c0.1,0.2-1.1,1.1-2.9,2.3
			c-1.4,0.9-0.7,0.2-0.9,0.4c-2.7,1.5-2.1,1.6-4.5,2.8c-1,0.4-0.2-0.2-0.4-0.2c1.2-0.7,1.9-1,2.7-1.4l-1,0.5
			c0.4-0.3,1.1-0.7,1.6-0.9c-0.8,0.3-4.6,2.6-6.8,3.7c-0.4,0.3-1,0.7-0.6,0.5l0.7-0.4c0.7-0.3-1.2,0.8-0.3,0.4
			c-0.9,0.6-1.8,1.2-3.1,1.9l-0.3,0c0,0,0.9-0.4,1.2-0.7c-0.5,0.4-2,1-2.5,1.5l0.9-0.4c-0.8,0.6-1.9,1.4-2.9,2
			c0.6-0.2,0.2-0.2,1.1-0.5c-0.8,0.2,2.8-1.7,1.6-1.2c0.9-0.3,1.4-0.8,2.6-1.2c-0.1,0-0.4,0.1,0.5-0.4c0.1,0,0.1-0.1,0.2-0.2
			c0,0,0,0,0.1,0l-0.1,0c0,0,0,0,0,0c-0.2,0.1-0.4,0.2-0.5,0.2c0.4-0.4,1.9-1.2,2.4-1.5c0.6-0.3-0.2,0.2,0.1,0.1l0.7-0.5
			c0.1,0,1.6-0.7,0.3,0.1l1.2-0.7c0.7-0.3,1.7-0.9,2.3-1.2c0.6-0.3,1.3-0.9,0.9-0.5l1.8-1.1l0,0c1.8-1,3.7-2.3,5.9-3.2
			c0.6-0.4,1.2-0.8,2.3-1.3l0.3,0c0.8-0.5,2.4-1.2,2.7-1.5c1-0.2,3.9-2.1,5.3-2.8l0-0.2c1-0.5,1.9-1.1,3-1.8l-0.1-0.1
			c1-0.7,2.7-1.4,4.3-2.3c-0.1,0.1-0.5,0.3-0.8,0.5c0.5-0.2,1-0.4,1.7-0.9c0.8-0.6,1.3-1.2,1.4-1.8C65.9,28.6,63.2,29.1,62.5,29.1z
			 M63.7,23.1L63.7,23.1L63.7,23.1L63.7,23.1L63.7,23.1z M63.7,23.2C63.7,23.2,63.7,23.2,63.7,23.2C63.7,23.2,63.7,23.2,63.7,23.2
			C63.7,23.2,63.7,23.2,63.7,23.2C63.7,23.1,63.7,23.2,63.7,23.2C63.7,23.2,63.7,23.2,63.7,23.2C63.7,23.2,63.7,23.2,63.7,23.2
			C63.7,23.2,63.7,23.2,63.7,23.2z M62,24.1c-0.2,0.1-0.5,0.3-0.7,0.4c0.1-0.1,0.2-0.2,0.5-0.3C61.9,24.2,61.9,24.2,62,24.1z
			 M63.7,23.4C63.7,23.4,63.7,23.4,63.7,23.4C63.7,23.4,63.7,23.4,63.7,23.4L63.7,23.4z M63.8,23.4L63.8,23.4
			C63.7,23.4,63.7,23.4,63.8,23.4L63.8,23.4C63.8,23.4,63.8,23.4,63.8,23.4C63.8,23.3,63.8,23.4,63.8,23.4L63.8,23.4z M63.8,23.3
			L63.8,23.3C63.8,23.3,63.8,23.3,63.8,23.3z M63.7,23.1L63.7,23.1C63.7,23.1,63.7,23.1,63.7,23.1L63.7,23.1z M63.5,23l-0.1,0.1
			c0,0,0,0,0,0c0,0,0,0-0.1,0C63.3,23.1,63.4,23.1,63.5,23z M60.8,24.2l0.3-0.1C60.4,24.3,60.6,24.2,60.8,24.2z M61.3,24.5
			c0.1,0,0.2-0.1,0.3-0.1c-0.2,0.1-0.4,0.3-0.8,0.5C60.8,24.7,61,24.6,61.3,24.5z M30.5,47.5c0.3-0.2,0.6-0.4,0.9-0.5
			C31.2,47.2,30.9,47.4,30.5,47.5z M36.2,47.8L36.2,47.8C36.9,47.5,36.7,47.6,36.2,47.8z"/>
		<path class="st2" d="M63.7,23.2C63.7,23.2,63.7,23.2,63.7,23.2C63.7,23.2,63.7,23.2,63.7,23.2z"/>
		<path class="st2" d="M63.6,23C63.6,23,63.6,23,63.6,23L63.6,23L63.6,23C63.6,23,63.6,23,63.6,23L63.6,23z"/>
		<path class="st2" d="M53.4,29.2c-0.1,0.1-0.2,0.1-0.2,0.1C53.2,29.3,53.3,29.2,53.4,29.2z"/>
		<path class="st2" d="M28.9,48.7c-0.1,0-0.1,0-0.2,0C28.7,48.8,28.7,48.8,28.9,48.7z"/>
		<path class="st2" d="M34.4,41.1L34.4,41.1C34.4,41,34.5,41,34.4,41.1L34.4,41.1z"/>
		<path class="st2" d="M55.9,35.6c0,0-0.1,0-0.6,0.2C55.6,35.7,55.8,35.7,55.9,35.6z"/>
		<path class="st2" d="M27.8,52.8l0.8-0.5c-0.4,0.2-0.6,0.3-0.8,0.4C27.9,52.7,28.1,52.7,27.8,52.8z"/>
		<path class="st2" d="M20.4,57.2c-0.1,0.1-0.2,0.2-0.3,0.3l0.1-0.1C20.7,57.1,20.9,56.8,20.4,57.2z"/>
		<path class="st2" d="M25.8,53.6c-0.1,0.2,0.5-0.2,1.1-0.6c-0.1,0-0.6,0.3-1.2,0.7L25.8,53.6z"/>
		<path class="st2" d="M25,54.1c0,0.1,0.2-0.1,0.5-0.4L25,54.1z"/>
		<path class="st2" d="M32.9,49.8c-0.3,0.3,1.8-1.2,0.3-0.3C32.9,49.7,33,49.8,32.9,49.8z"/>
		<polygon class="st2" points="26.2,53 26.5,53 26.8,52.7 		"/>
		<path class="st2" d="M30,50.8c0,0-0.1,0.1-0.2,0.2c0.6-0.3,1.3-0.7,1.2-0.7L30,50.8z"/>
		<path class="st2" d="M29.8,51c-0.3,0.2-0.6,0.4-0.8,0.5C29.2,51.4,29.5,51.2,29.8,51z"/>
		<polygon class="st2" points="27.5,52.2 27.8,52.1 28.5,51.7 		"/>
		<path class="st2" d="M42.4,43.8c0.1-0.1-0.2,0-0.6,0.3c-0.2,0.2-0.6,0.4-0.4,0.4L42.4,43.8z"/>
		<path class="st2" d="M38,45.9c0.3-0.1,0.3-0.1,0.5-0.2l0-0.2L38,45.9z"/>
		<path class="st2" d="M41.2,43.9c-0.1,0.1-1.1,0.7-0.1,0.2C41.2,44,42.6,43.1,41.2,43.9z"/>
		<polygon class="st2" points="56.9,35.5 57.1,35.8 57.2,35.4 		"/>
		<path class="st2" d="M59.8,31.1c1.4-0.3,0.3-0.3,1.5-0.5c0.3-0.1-1,0.2-0.7,0C59.8,30.9,59.3,31,59.8,31.1z"/>
		<path class="st2" d="M60.6,30.6c0.1,0,0.3-0.1,0.4-0.1C60.8,30.6,60.6,30.6,60.6,30.6z"/>
		<polygon class="st2" points="12.4,53.3 11.6,53.9 12.1,53.5 		"/>
		<path class="st2" d="M10.8,54.5l-0.4,0.4c0.2-0.1,0.4-0.3,0.6-0.5L10.8,54.5z"/>
		<path class="st2" d="M9.6,58.9c0,0,0.1,0.2,0.2,0.3c0.1,0.1,0.2,0.1,0.2,0.1l0.1,0C10,59.2,9.9,59.4,9.6,58.9z"/>
		<polygon class="st2" points="18.9,50.9 19.3,50.8 19.1,50.8 		"/>
		<path class="st2" d="M27.9,45c-0.4,0.2-0.8,0.5-1.1,0.7C27.5,45.2,28.1,45,27.9,45z"/>
	</g>
</g>
</svg>
