<?xml version="1.0" encoding="utf-8"?>
<!-- Generator: Adobe Illustrator 19.2.1, SVG Export Plug-In . SVG Version: 6.00 Build 0)  -->
<svg version="1.1" id="Layer_1" xmlns="http://www.w3.org/2000/svg" xmlns:xlink="http://www.w3.org/1999/xlink" x="0px" y="0px"
	 viewBox="0 0 63.1 64.7" style="enable-background:new 0 0 63.1 64.7;" xml:space="preserve">
<style type="text/css">
	.st0{fill:#B3B4B7;}
	.st1{fill:#FFFFFF;}
</style>
<g>
	<g>
		<path class="st0" d="M58.2,19.8c-1.8,0.8-3.6-0.6-5.6-0.4c2.1-1.3,2.2-2.6,2.9-5c-2,1.2-2.6,1.4-4.9,1.8c-1.9-2-4.5-3.2-7.5-3.2
			c-5.7,0-10.3,4.6-10.3,10.3c0,0.8,0.1,1.6,0.3,2.3c-8.5-0.4-16.1-4.5-21.2-10.7c-0.9,1.5-1.4,3.3-1.4,5.2c0,3.6,1.8,6.7,4.6,8.5
			c-1.7-0.1-3.3-0.5-4.6-1.3c0,0,0,0.1,0,0.1c0,5,3.5,9.1,8.2,10.1c-0.9,0.2-1.8,0.4-2.7,0.4c-0.7,0-1.3-0.1-1.9-0.2
			c1.3,4.1,5.1,7,9.6,7.1c-3.5,2.8-7.9,4.4-12.7,4.4c-0.8,0-1.6,0-2.4-0.1c4.5,2.9,9.9,4.6,15.7,4.6c18.9,0,29.2-15.6,29.2-29.2
			c0-0.4,0-0.9,0-1.3C55.3,21.7,56.8,21.9,58.2,19.8z"/>
		<g>
			<path class="st0" d="M56.8,19.1c0.2-0.2-0.1-0.3-0.1-0.3C56.5,19.1,56.8,19.1,56.8,19.1z"/>
			<path class="st0" d="M53.2,22.1l0-0.1c0,0-0.6,0.7-0.6,0.7L53.2,22.1z"/>
			<path class="st0" d="M52.3,27c0.5-0.4,0-1.7,0.2-2.5l0.1-0.1c0,0-0.4-0.5-0.4-0.6c0,0.5,0.1,1.2,0.1,1.8
				C52.3,26.2,52.4,26.7,52.3,27z"/>
			<path class="st0" d="M50.9,29.3c0.2-0.1,0.1,0.5,0.1-0.5c0,0,0,0.1-0.1,0.1C51,28.9,51,29,50.9,29.3z"/>
			<path class="st0" d="M51,28.8C51.1,28.4,50.8,29.1,51,28.8L51,28.8z"/>
			<path class="st0" d="M50.7,30.9l0-0.6c-0.1,0.1-0.3,0.6-0.3,0.4C50.3,31.3,50.4,31.2,50.7,30.9z"/>
			<path class="st0" d="M50.9,31.6l0-0.3C50.8,31.3,50.8,31.4,50.9,31.6z"/>
			<path class="st0" d="M50.9,30.6l0,0.7c0.1-0.1,0.2,0,0-0.3C51,31,50.9,30.9,50.9,30.6z"/>
			<path class="st0" d="M51,30.2c0.2-0.3,0.3-0.7,0.4-0.1C51.6,28.9,51.2,29,51,30.2z"/>
			<path class="st0" d="M52.7,27.3c0,0,0.2-0.5,0.2-0.5l-0.1-0.4C52.9,26.6,52.6,27.3,52.7,27.3z"/>
			<path class="st0" d="M49.3,34.5c0.1,0.1,0.3-0.1,0.5-0.1c0,0,0.1-0.5,0.1-0.5C49.7,34.1,49.4,34.5,49.3,34.5z"/>
			<path class="st0" d="M49.8,34.4l-0.1,0.7C49.9,34.5,49.9,34.4,49.8,34.4z"/>
			<polygon class="st0" points="51.3,31.8 51.3,30.6 51.3,32 			"/>
			<polygon class="st0" points="48.2,36.8 48.2,36.4 48.2,37.1 			"/>
			<path class="st0" d="M47.5,38.3c0-0.3-0.5,0.2-0.4-0.1c-0.2,0.4-0.3,0.8-0.3,1.2C46.8,39,47.1,38.7,47.5,38.3z"/>
			<path class="st0" d="M46.5,40c0.1-0.2,0.1-0.4,0.1-0.6C46.6,39.6,46.6,39.8,46.5,40z"/>
			<path class="st0" d="M49.1,36.1c-0.1,0-0.3,0.1-0.5,0.4l0.4-0.1C49.1,36.3,49.1,36.2,49.1,36.1z"/>
			<path class="st0" d="M49,36.4L49,36.4c-0.1,0.3-0.2,0.4-0.3,0.5C48.8,36.8,48.9,36.7,49,36.4z"/>
			<path class="st0" d="M49.2,36.1L49.2,36.1C49.2,36.1,49.2,36.1,49.2,36.1z"/>
			<path class="st0" d="M50.5,33.5c0,0.4-0.1,1.3,0.4,0.6C50.9,33.7,50.6,34.1,50.5,33.5z"/>
			<path class="st0" d="M49.6,35.9l0.3-0.7c-0.1,0-0.2,0.1-0.2-0.1L49.6,35.9z"/>
			<polygon class="st0" points="49.6,36.3 49.6,35.9 49.5,36.1 			"/>
			<path class="st0" d="M47.4,39.1c-0.1,0.3-0.2,0.6-0.4,1c0.3-0.3,0.5-0.7,0.8-1C47.7,39,47.7,38.7,47.4,39.1z"/>
			<path class="st0" d="M48.3,37.8L48.3,37.8C48.3,37.8,48.3,37.8,48.3,37.8z"/>
			<polygon class="st0" points="44.7,43.1 44.8,43.1 44.8,43 			"/>
			<path class="st0" d="M47.8,39c0.2-0.2,0.2-0.4,0.2-0.6C48,38.6,47.9,38.8,47.8,39C47.8,39.1,47.8,39.1,47.8,39z"/>
			<path class="st0" d="M46.1,40.9c0.1-0.1,0.3-0.2,0.4-0.4C46.3,40.7,46.1,40.9,46.1,40.9z"/>
			<path class="st0" d="M48.1,37.9L48.1,37.9C48,37.9,48.1,37.9,48.1,37.9z"/>
			<path class="st0" d="M48.1,37.9c0,0.2,0,0.3,0,0.4c0.1-0.2,0.1-0.3,0.2-0.5C48.2,37.9,48.2,37.9,48.1,37.9z"/>
			<path class="st0" d="M45.2,45.2c-0.2-0.2,0.3-1,1-1.4c0.3-0.7-0.7-0.9-1.4-0.7c0.1,0.1,0.2,0.2-0.2,0.8c0.3-0.1,1.3-1,1.1-0.4
				c-0.5,0.8-0.6,0.5-1,0.8c0.5-0.1-0.5,1.2-0.1,1.4l0.5-0.7C45.1,45,45,45.3,45.2,45.2z"/>
			<path class="st0" d="M45.7,42l0.2-0.3c-0.2,0.2-0.5,0.4-0.9,0.6c-0.2,0.5-0.2,0.6-0.2,0.7l0.9-1.1L45.7,42z"/>
			<path class="st0" d="M46.6,40.7c0.1,0.4-0.2,1,0.3,0.8c0.5-0.7,0.2-0.7,0.3-1.2C46.5,41.6,47.3,40,46.6,40.7
				c0.1-0.2,0.3-0.5,0.4-0.7c-0.2,0.2-0.3,0.4-0.5,0.5l0,0l0,0l0,0c0.1,0,0.1,0,0,0l0,0C46.6,40.6,46.6,40.7,46.6,40.7
				c-0.3,0.3-0.1,0-0.1-0.1c0,0,0,0,0,0l0,0c0,0-0.1,0.3-0.3,0.6c-0.2,0.3-0.4,0.6-0.4,0.6C46,41.6,46.3,41.3,46.6,40.7z"/>
			<path class="st0" d="M51.2,35C51.2,35.1,51.2,35.1,51.2,35C51.2,35.1,51.2,35.2,51.2,35z"/>
			<path class="st0" d="M50.8,35.5c0-0.1-0.1-0.2,0.1-0.5c0.2-0.2,0.1,0,0.2,0.1c0-0.2,0.1-0.7-0.3-0.2l0,0.1
				c-0.3,0.5-0.9,1.1-0.9,0.9C50.2,35.9,50.5,35.8,50.8,35.5z"/>
			<path class="st0" d="M48.9,38.3c0,0-0.4,1.1-0.5,1.1c0,0,0.5-0.4,0.5-0.4l-0.1,0C49.2,38.4,49,38.5,48.9,38.3z"/>
			<polygon class="st0" points="44.5,43.1 44.4,42.8 44.2,43.6 			"/>
			<polygon class="st0" points="43.5,44.2 43.3,44 43.2,44.4 			"/>
			<path class="st0" d="M13,26.7c0,0,0.6,0.1,0.6,0.1C13.3,26.7,13.2,26.7,13,26.7z"/>
			<path class="st0" d="M9.1,25.4l0.1,0.2C9.2,25.5,9.1,25.4,9.1,25.4z"/>
			<path class="st0" d="M14.8,50c1.1,0.1,2.5,0.4,1.5,0.2L15.3,50C15.3,50.1,15.1,50,14.8,50z"/>
			<path class="st0" d="M14.8,39.6l0,0.1c0.2,0.1,0.4,0.2,0.5,0.3C15.2,39.9,15,39.8,14.8,39.6z"/>
			<path class="st0" d="M13.2,38.9l-0.1-0.8C13.1,38.3,13.1,38.6,13.2,38.9z"/>
			<path class="st0" d="M9.3,16.2l0-0.9C8.9,16.4,9.2,16,9.3,16.2z"/>
			<path class="st0" d="M30.2,51.5c-0.4,0-0.8,0-1.1,0C29.6,51.6,30.1,51.8,30.2,51.5z"/>
			<path class="st0" d="M13.2,29.8c0.1,0,0.1-0.1,0-0.2C13.2,29.7,13.2,29.7,13.2,29.8z"/>
			<path class="st0" d="M27.8,51.7c0.1,0,0.2,0,0.2,0c0.3-0.1,0.6-0.2,1-0.2C28.7,51.4,28.2,51.4,27.8,51.7z"/>
			<path class="st0" d="M49.6,13.4l0.1,0.1C49.7,13.4,49.7,13.4,49.6,13.4z"/>
			<path class="st0" d="M53.7,20.7c-0.1,0-0.3,0-0.5,0C53.3,20.7,53.5,20.7,53.7,20.7z"/>
			<path class="st0" d="M38.7,47.9C39,47.7,38.7,47.8,38.7,47.9L38.7,47.9z"/>
			<path class="st0" d="M40.6,47.9c0,0.1-0.1,0.1,0,0.2C40.6,48,40.6,48,40.6,47.9z"/>
			<path class="st0" d="M24.7,53.7L24.7,53.7C24.8,53.7,24.7,53.7,24.7,53.7z"/>
			<path class="st0" d="M39.2,47.7c-0.1,0-0.2,0.1-0.4,0.2C38.9,47.9,39,47.8,39.2,47.7z"/>
			<path class="st0" d="M39.1,47.6c0.1-0.1,0.2-0.1,0.2-0.1C39.3,47.4,39.3,47.4,39.1,47.6z"/>
			<path class="st0" d="M38.4,48.1c0.2-0.1,0.3-0.2,0.4-0.3c-0.1,0-0.1,0-0.1,0C38.6,47.9,38.5,48,38.4,48.1z"/>
			<path class="st0" d="M29.9,24.4C29.9,24.4,29.9,24.4,29.9,24.4C30.2,24.4,30.2,24.4,29.9,24.4z"/>
			<polygon class="st0" points="16.5,47.1 16.4,47.1 16.5,47.1 			"/>
			<path class="st0" d="M17.7,46.4c-0.2,0.5-0.5,0.5-1.2,0.6c0,0,0.9,0.6,0.8,0.6C17.3,47.7,17.8,46.4,17.7,46.4z"/>
			<path class="st0" d="M10.6,26.2c0,0,0.1,0.2,0.2,0.5c0.1,0.2,0.2,0.5,0.2,0.5c-1.1-0.8-1.3-1.7-1.2-0.6c0.4-0.2,0.9,0.7,1.6,1.4
				c0.7,0.8,1.4,1.4,1.8,1.1l0.4,0.6c-0.1-0.1-0.2-0.1-0.3-0.2c0.3,0.5,0.6,0.6,1,0.6l1-3c-0.1,0.1-0.2,0.2-0.4,0.3
				c-0.2,0.1-0.3,0.1-0.9,0c-0.7-0.2-1.3-0.6-0.8-0.5c0,0.1-1.8-0.6-1.8-0.6c-0.6-0.3-0.6-0.5,0-0.2l-1.8-0.8
				c-0.1,0.2-0.2,0.4-0.2,0.5l0,0c0,0.1,0,0.1,0,0.2c0,0.1,0,0.1,0,0.3c0.1,0.3,0.2,0.7,0.2,0.9c-0.1,0.4-0.1-0.4-0.2-0.3
				c0,0,0.1,0.3,0.1,0.7c0.1,0.3,0.1,0.7,0.1,0.7c-0.2,0.3-0.5-0.8-0.5-1.7c-0.4,0.2-0.4,0.6-0.3,1.1C8.9,28,9.1,28.6,9,29.9
				c0,0-0.3-1.4-0.3-1.4c-0.2,0.3-0.3,0.8-0.2,1.4c0,0.3,0.1,0.6,0.1,1c0.1,0.4,0.2,0.8,0.3,1.2c0-0.2-0.2-1.1,0-1.7
				c0.1-0.5,0.3-0.7,0.6,0c0,0.4,0.2,1,0.7,1.7c-0.1,0.1-0.1,0.3,0,0.6c0.1,0.3,0.3,0.5,0.5,0.9l-0.4,0.2c0.6,0.7,0.7,0.5,1.1,0.7
				c0.5,0.7,0.5,1.1,0.4,1.4c1.1,1.1-0.4-1.1,1,0.1c0.8,0.9,1.6,1.3,3,1.7c0.7,0.5-0.2,0.2,0,0.4c0,0,0.8,0,0.8,0
				c0.2,0.1,0.1,0.1,0,0.2c0.6,0.1,0.2-0.4,1.1-0.2c0.1-0.1,0.4,0,0.7,0.1l-0.1-1.7c-0.3,0-0.5-0.1-1.2,0c-0.6,0-1.3-0.1-1.7,0.1
				c-0.6-0.1,0-0.3-0.3-0.4c-0.7,0.1-1.2,0.1-1.5,0.1c-0.3,0-0.5,0-0.8,0.1c0.1,0.1,0.2,0.4,0.1,0.6c0,0,0.1,1.1,0.1,1.1
				c0-0.7,0.9,0.7,1.7,1.4c0.1-0.2,0.2-0.3,0.2-0.4c0,0,0.9,1.1,0.9,1c0,0.1-0.2,0-0.6-0.1c0.1,0.1,0.2,0.1,0.3,0.2
				c0,0.4-0.3,0.3-0.8-0.1c0-0.2,0-0.3,0-0.4c-0.5-0.3-1-0.8-1.2-0.8c0.1,0.1,0.2,0.3,0.4,0.5c-0.1-0.1-0.2-0.2-0.3-0.1
				c0,0,0.2,0.2,0.4,0.5c0,0-0.3,0.3-0.3,0.3l0.3,0.1c0,0,0.2,0.5,0.5,1.1c0.1,0.3,0.3,0.5,0.5,0.8c0.1,0.2,0.2,0.3,0.2,0.3
				c0.2,0.2,0.4,0.3,0.6,0.4c0.2,0.1,0.3,0.2,0.5,0.2c0.4,0.1,0.7,0.2,1.1,0.3c0.8,0.3,1.4,0.4,2.5,0.7c-0.8,0-0.6,0.3-1.1,0.5
				c0-0.4-0.9-0.2-1.9-1c0.5,0.4,0.3,0.5,0.1,0.4c0,0,0.1,0.1,0.3,0.1c0.2,0.1,0.5,0.2,0.7,0.3c0.3,0,0.6,0.1,0.6,0.1
				c-0.3,0.2,0,0.3,0,0.4c0.4-0.3,1-0.1,1.6,0c0.2,0,0.4,0,0.6,0C20.5,45,20,45.1,19.7,45c-0.1,0-0.1,0-0.2-0.1c0,0,0,0.1,0,0.1
				c0.1,0,0.7,0,1.2,0c0.5,0,1.1-0.1,0.9,0c-0.2,0-0.2,0-0.5,0c0.2,0,0.4,0,0.5,0c-0.1,0.1-0.2,0.2-0.3,0.2
				c-0.3,0.2-0.6,0.2-0.7,0.2l0.1-0.1c-0.9,0.5-2.1,1.3-2.1,1.8c0-0.1-0.3-0.6-0.3-0.7c0,0,0.1,0.5-0.5,1.2
				c-0.2,0.3-0.5,0.7-0.6,0.9c-0.1,0.2-0.1,0.3-0.1,0.3c-0.1-0.2-0.5-0.5-0.8-0.8c-0.3-0.3-0.5-0.6,0.3-1c-0.6,0.1-1.3,0.2-2.5,0.5
				c0.6,0,1.7,0.4,1.3,0.5C14.5,48,14.1,48,13.7,48c-0.5,0-0.8-0.1-1.8-0.1c-0.1,0-0.3,0-0.6,0c0.5-0.1,1.9,0.8,1.3,0.9
				c-0.2-0.1-1.5-0.4-1.5-0.6c0,0,0.2,0.3,0.2,0.5c0.1,0.2,0.1,0.3,0.1,0.3c0.1-0.1-1-0.3-1.5-0.2c0.3,0-0.7,0.3-0.8,0.2
				c0,0,0.5,0,0.5,0C9.2,49,9.1,49,9,49c-0.1,0-0.2,0-0.3,0l-0.2,0l-0.1,0c0,0,0.1,0,0.1,0.1c0.2,0.1,0.3,0.2,0.5,0.3
				c-0.3-0.1-0.6-0.3-0.4,0.1c0.2,0.1,0.6,0.3,1.4,0.6c0.2,0.1,1.4,0.3,2.1,0.4c0.7,0.1,1.3,0.2,1.9,0.3c0.2,0,0.3,0.1,0.5,0.1
				L14,51c0,0,1.2,0.2,1.2,0.2c-0.4,0-0.9,0-1.6,0c-0.7,0-1.6-0.1-2.3-0.2c-1.3-0.3-2.2-0.7-2.6-1c0,0.3-0.2,0.1,0,0.6
				c-0.3,0.2-0.5-0.3-0.5-0.4c0,0.3,0,0.6-0.1,1l0.6,0.4c0.7-0.1,2.7,0.9,3.2,0.7c-1-0.3-2-0.7-3-1.1l-0.1-0.2c0.2,0,0.5,0,0.8,0.1
				c1.2,0.2,3,0.6,4,1.1c0.2,0.3-1.4,0.2-1.6,0.3c0.5,0.1,2.1,0.6,2.2,0.7L13,52.9c0.5,0.3,1.1,0.4,1.7,0.4c0.6,0.1,1.1,0.2,1.7,0.5
				c0.2,0.1,0.5,0.3,0.9,0.5c0.3,0.2,0.4,0.3,0.5,0.2c-0.2-0.3-0.4-0.9-0.3-1.3c0.1-0.5,0.3-0.9,0.5-1.1c0.1,0.1,1.6,0.8,2,1.1
				c0.5,0.5-1,0.8-0.6,1.2c0-0.1,0.4-0.2,0.5-0.2c0.4,0.1-0.2,0.3,0.6,0.4c0.2-0.4,1.7,0.2,0.4-0.3c0.8-0.1,0.8,0.2,1.8,0.2
				c-0.3-0.3,0.9-0.9,1.6-1.1c0,0.1,0.1,0.3,0.2,0.3c1.6-0.1,2.5,0.2,3.9-0.1c0.1,0.1,0.9,0.1,0.6,0.3c0.2-0.1,0.4-0.3,0.8-0.4
				c1,0.2-1,0.2-0.3,0.6c0-0.3,1.1-0.5,1.7-0.9c-0.3-0.3-1.5,0.2-2.1,0.5c-0.1-0.6,1-1.2,2.3-1.9c1.1-0.4,0.6,0.2,0.8,0.1
				c1.1-0.2,1.5-0.6,1.8-1c0.3-0.3,0.6-0.6,1.5-0.8c0.8,0,0.3,0.6,0.6,0.8c-0.9,0.5-1.5,0.4-2.1,0.6l0.8-0.2
				C34.9,51.6,34.3,52,34,52c0.3,0,1.3-0.3,2.3-0.7c1-0.4,2.1-1.1,3-1.3c0.2-0.2,0.6-0.7,0.3-0.6c0,0-0.4,0.4-0.4,0.3
				c-0.6,0,0.7-0.9,0-0.6c0.5-0.6,1-1.3,2-1.7l0.4,0.2c-0.1-0.1-0.7,0.2-0.9,0.5c0.3-0.3,1.6-0.5,1.6-1.3l-0.7,0.3
				c0.4-0.6,0.9-1.5,1.6-2c-0.6,0-0.1,0.2-0.9,0.3c0.8,0.1-1.8,1.4-0.7,1.3c-0.8,0-1,0.5-2,0.6c0.1,0.1,0.4,0-0.3,0.4
				c0,0.1,0,0.1-0.1,0.2c0,0,0,0,0,0l0,0c0,0,0,0,0,0c0.2-0.1,0.3-0.1,0.4,0c-0.1,0.5-1.1,1.1-1.4,1.4c-0.4,0.2,0.1-0.2-0.2-0.2
				l-0.4,0.5c-0.2-0.2-1.3,0.1-0.4-0.5l-0.8,0.4c-0.5,0.1-1.3,0.3-1.7,0.6c-0.4,0.1-0.9,0.7-0.6,0.4c0,0-0.3,0.2-0.7,0.4
				c-0.3,0.1-0.7,0.3-0.7,0.3l0-0.1c-0.7,0.2-1.4,0.5-2.1,0.8c-0.8,0.2-1.6,0.3-2.4,0.2c-0.5,0.2-1,0.3-1.8,0.2l-0.2-0.2
				c-0.6,0.1-1.9-0.1-2.2,0.1c-0.7-0.6-3-0.3-4.1-0.6l-0.1,0.3c-0.7-0.1-1.7-0.2-2-0.2l-0.1,0.3c-0.3,0-0.6-0.1-0.8-0.2
				c-0.2-0.2-0.3-0.3-0.6-0.4c0.2,0,0.3,0,0.3,0.1c0.3-0.3-0.2-0.3-0.9-0.4c-0.6-0.1-1.5-0.3-1-0.4c-0.5-0.1-0.5-0.2-0.3-0.2
				c0,0,0,0,0.1,0c0,0,0,0,0,0c0.1,0,0.3,0,0.4,0c-0.2,0-0.4,0-0.5,0c-0.1,0-0.2-0.1-0.3-0.1c0,0,0,0,0,0l1.2,0.2l0,0
				c0.1,0,0.1,0,0.2,0c0.1,0-0.5-0.1-1.2-0.2l-0.2,0l0,0l-0.3-0.1c0.9,0.1,0.9,0.1,0.9,0.1c0,0,0.1,0,0.9,0.1
				c-0.6-0.1,0.5-0.2-0.3-0.5c0.1,0,0.3,0.1,0.1,0.1c0.2,0,0.3,0,0.5,0c0.2,0,0.3-0.1,0.4-0.2l0.6,0.3c-0.1,0,0.1-0.5,0.1-0.6
				c0.6,0.1,0.7,0.2,0.6,0.5c0.1-0.1,0.2-0.3,0.3-0.3c0.1-0.1,0.3-0.2,0.4-0.2c0.2-0.1,0.6-0.3,1.2-0.8l0.1,0.2
				c0.6-0.3,1.1-0.9,1.6-1c0.7-0.1,1.7-0.7,2.9-1.5c0.3-0.2,0.6-0.4,0.9-0.6l0.5-0.4l0.2-0.2l0.1-0.1l0,0c-0.2-0.1-0.3-0.3,0-0.8
				c-0.7-0.1-1.4-0.2-2.1-0.3l-1-0.2l-0.8-0.2c0,0.4-0.5,0.2-1.1,0c-0.4-0.3-1.1-0.6-1.3-0.5c-0.1-0.2-0.5-0.6,0.1-0.4
				c-0.2-0.1-0.4-0.2-0.5-0.2c-0.1-0.1-0.2-0.1-0.3-0.2c-0.2-0.1-0.3-0.3-0.5-0.4c-0.3-0.2-0.6-0.5-0.9-0.5c0.1-0.2,0.3-0.1,0.3-0.2
				c-0.1,0-0.2,0-0.2-0.1c0.1-0.1,0.2,0,0.3,0c-0.2-0.2-0.9-0.2-1.6-0.2c0-0.4-0.1-0.5-0.8-1c0.2-0.1,0.4-0.2,0.7,0.3
				c0-0.1-0.1-0.3-0.2-0.6l-0.1-0.2c0-0.1-0.1-0.2,0-0.1c0.1,0,0.2,0,0.3,0c0.1,0,0.1-0.1,0-0.2c0.2,0.1,0.5,0.1,0.5,0
				c0.4,0,0.6,0,0.8,0c0.2,0,0.3,0,0.8-0.2c0,0-0.3,0-0.3,0c0.1-0.3,0.4-0.4,0.7-0.4l1.9-0.3l-2-0.8c-0.2-0.1-0.5-0.2-0.9-0.3l0,0
				c-0.8-0.5-1-0.5-1.2-0.6c-0.2,0-0.4-0.1-1-0.7l-0.1,0.3c-0.5,0.5-1.1-1.2-1.9-1.8c0,0,0.1,0.4,0.1,0.4c-0.6-0.3-0.4-1.8-0.5-2.2
				c0-0.1,0.2,0.1,0.3,0.2c-0.4-1.3-0.5,0-1-0.7c0.2-0.2,0.6-0.1,0.5-0.4c0.1-0.1-0.2-0.2-0.4-0.5c-0.2-0.3-0.5-0.8-0.2-0.8
				c-0.2-0.1-0.4-0.1-0.6-0.6c0-0.1,0-0.4,0.2-0.3c0.3,0.2,0.5,0.4,0.7,0.5c0.2,0.1,0.3,0.2,0.4,0c0.1,0.1,0.1,0.1,0.1,0.2
				c0.1,0,0.4,0,0.7-0.1c0.1,0,0.5,0,0.7-0.1c0.1,0,0.2,0,0.3-0.1l0.1,0l0.1,0l0,0l0,0l0,0l0,0l0,0l0,0l0,0l0.4-1.4
				c0.1-0.6-0.7-1-1.4-1.5c-0.7-0.5-1.3-1.1-0.8-1.4c0,0-0.9-1.5-0.9-1.5l0.1,0c-0.4-1-0.6-1.4-1-1.7c0-0.3,0.1-0.1,0.2-0.1
				c-0.1-0.8,0-1.3-0.1-1.7c0-0.5-0.2-0.6-0.3-1.3l0.3,0.1c-0.1-0.2,0.1-0.5,0.3-0.7c0.1-0.1,0.2-0.3,0.3-0.4
				c0.1-0.1,0.1-0.2,0.2-0.3c0.1,0,0.1,0.1,0.2,0.1c0,0,0.1,0,0.1,0c0,0.1,0,0.1,0,0.2c0.3,0.1,0.7,0.8,1.1,1.4
				c0,0.1,0.1,0.1,0.1,0.2c0.1,0.1,0.2,0.2,0.3,0.3c0.2,0.2,0.4,0.3,0.5,0.4c0.4,0.2,0.7,0.3,1.1,0.2c0,0,0.3,0.2,0.6,0.3
				c0.3,0.2,0.6,0.3,0.6,0.3c-1.4-1.1,0.5-0.2,0-0.8c0.6,0.3,1.3,1.3,0.5,0.9l-0.1-0.1c-0.6,0.3,1.7,1.4,1.5,1.7
				c3.1,1.8,6.3,3.3,9.6,4L28.5,26l1.1,0.2c0.1,0.1,0.3,0.2,0.2,0.3c-0.1,0.1-0.3,0.1-0.7,0c0.3,0.4,1.8,0,1.8-0.1
				c1.1,0.2,1,0.3,0.6,0.4c-0.4,0.1-1.1,0.1-0.7,0.1l1,0.1l-0.2-0.1c0.8-0.1,0.7-0.3,2.1-0.2c1,0.2,0.8,0.4,1,0.3c0,0,0.1,0,0.2,0
				c0-0.1-0.1-0.2-0.1-0.4c0,0-0.1-0.6-0.2-1.2c-0.1-0.6-0.2-1.2-0.2-1.2c0,0-0.2,0.8-0.3,0.7c-0.4-1.1-0.2-1.9-0.6-1.2
				c0.3-0.8,0.4-1.9,0.7-3c0.3-1.1,0.8-2.1,1-2.3c0.2-0.8,0.7-1.5,1.4-2.1c-0.2,0.1-0.7-0.1,0.1-0.7c0.3,0.8,1.5-0.7,2.4-0.4
				c-0.4,0,0.1-0.4,0.6-0.6c0.5-0.2,1-0.4,0.4-0.6c0.7-0.1,0.1,0.3,0.7,0.4c1.5-0.8,3.6-0.2,5.4,0.5c0.1-0.1-0.2-0.4,0.3-0.4
				c0,0,0.2,0.2,0.4,0.5c0.2,0.2,0.3,0.5,0.3,0.5c0.4,0.1,0.7-0.4,1.1,0.4c0-0.1-0.1-0.4,0.2-0.2c0.2,0.2,0.5,0.5,0.7,0.7l0.9,1
				c0.6-0.1,1.2-0.2,1.9-0.3c0.5-0.1,0.9-0.2,1.4-0.4c1-0.4,1.8-0.9,2.6-1.4l-1.5-1.2c-0.3,1-0.5,2-0.9,2.7c-0.4,0.7-1,1.1-1.8,1.4
				l-4,1.3l4.9,1.3c0.1,0,0.2,0,0.3,0.1c-0.4-0.2-0.2-0.3,0.2-0.3c-0.2-0.1,0-0.3,0-0.4c0-0.1,1.6,0.7,1.6,0.7c0.2-0.2,0.7,0,1.3,0
				c0.6,0.1,1.2,0.1,1.3-0.2c0,0-0.7,0.1-0.7,0.1c0.5-0.2,0.1-0.5-0.2-0.8c-0.3-0.3-0.7-0.7-0.6-1c-0.8,0.3-1.8-1.1-3.5-0.7l0.7,2
				c0.2-0.2,0.4-0.3,0.5-0.6c0.4-0.1-0.1,0.4,0.1,0.4c0.2-0.5,0.6-0.8,1.3-1.6l0,0.1c0.6-0.8,0.8-1.6,1-2.2c0.2-0.6,0.4-1.1,0.7-1.7
				l1.2-2.8l-3.1,1.4c-0.5,0.2-1.1,0.5-1.8,0.7l0.3,0.2c-0.5,0.2-0.6,0.1-0.8,0.1c-0.4,0.7,1.3-0.5,1,0.2c-0.6-0.2-2.3,0.5-2.7,0.4
				c-0.2-0.2-0.3-0.4-0.2-0.6c-0.6-0.5,0,0.5-0.7-0.1L50,13.9L49.6,14c-0.5-0.4-0.7-0.8-0.6-0.9c0.1,0.1,0.4,0.2,0.6,0.3
				c-0.6-0.7-2.2-1.1-2.4-1.2c0,0,0.2,0.1,0.4,0.2c0.2,0.1,0.4,0.2,0.4,0.2c-1.3-0.5-2.7-0.9-4.2-1c-1.5-0.1-3,0.2-4.2,0.7l0.2,0.1
				c-0.9,0.4-1.2,0.5-1.6,0.7c-0.4,0.1-0.8,0.2-1.7,0.9l0-0.1c-0.3,0.4-0.7,0.8-1.1,1.1c0.3-0.5-1,0.4-0.6-0.2c-1.2,1.8-0.6,1-1,2.3
				l-0.4,0.1c-0.1,0.5,0,0.6-0.4,1.5c0.2-0.8-0.6,0.5-0.5-0.5c-0.7,0.9-0.8,1.8-0.9,2.5c0,0.7,0,1.2-0.4,1.7c0.3,0.5,0.4,0,0.5-0.5
				c0.1-0.5,0.2-1.1,0.2-0.8c0.3-0.4,0.3,0.9,0.3,1.5c0,0.6-0.8,0.7-0.8,1.2l0,0.1c0,0,0-0.1-0.1-0.1c0,0,0,0,0-0.1l0,0
				c0,0.1-0.1,0.1-0.2,0.2c-0.1,0-0.3,0-0.5-0.1c0,0.4-0.5-0.1-0.5,0.4c0,0,0.9,0,0.9,0c-0.4,0.1-0.8,0.7-2.2,0.1
				c0.1-0.1,0.5-0.1,0.8-0.2c-0.4-0.2-0.8,0-1.1-0.3c0.1-0.2,0.5-0.2,1.1-0.1c0.3,0.1,0.4,0.1,0.6,0.1c0.1,0,0.3,0,0.3-0.1
				c-0.2-0.2-0.8,0.3-0.5-0.3c-0.6,0.6-1.4-0.3-2.6-0.1l0.1-0.3c-0.2,0-0.5,0.1-0.8,0l0.6-0.2c-0.9,0.1-1.5-0.7-2.3-0.8
				c1.6,0.5,0.2,0.5,0.8,0.9c-2.1-0.3-0.9-1.1-3.1-1.9c0.3,0.1,1,0.6,0.5,0.6c-0.4-0.2-0.9-0.6-1-0.9c-1.4-0.6,0.1,0.4-0.6,0.3
				c-0.3-0.6-0.7-0.2-1.4-0.5l0.2-0.3c-1.4-1.1-0.8,0.3-2-0.8l0.8,0l-0.8-0.4l0.3-0.2c-0.9-0.3-1.1-0.5-1.7-1.1
				c0,0.3-0.5,0.4-1.1-0.1c-0.3-0.5,0.4,0-0.5-0.7c0.3,0,0.7,0,0.9,0.5c0.1,0,0.3,0,0.4,0c-0.3-0.6-1-0.9-1.6-1.5
				c0.2,0.2,0.4,0.4,0.5,0.5c0,0-0.5-0.3-1-0.7c-0.2-0.2-0.5-0.3-0.7-0.4c-0.2-0.1-0.3-0.2-0.3-0.2c-0.2-0.5,0-0.3,0.3-0.2
				c-0.4-0.4-0.7-0.5-1.2-1.1c0.2-0.2,0.1-0.7,1,0.2l-1.9-1.8c-0.1-0.2-0.3-0.5-0.5-0.9c-0.2,0-0.3,0-0.2-0.2
				c-0.1,0.1-0.2,0.2-0.3,0.3c-0.1,0.2-0.2,0.4-0.3,0.6c-0.2,0.4-0.4,0.9-0.6,1.3c-0.4,0.9-0.7,1.8-1,2.6c0,0.1,0,0.3-0.1,0.8
				c-0.2,0.8-0.5,1.7-0.5,2.6c-0.1,0.6,0,1.3,0.3,2.1c0,0-0.1,0.2-0.2,0.5c-0.1,0.2-0.1,0.5-0.1,0.5c0.4,1.2,0.3-1.3,0.9,0.6
				c0.6,1.3-0.2,0.6-0.2,1.1c0.5,0.6,1.4,1.4,1.9,2.7C11,26.9,10.9,26.5,10.6,26.2z M9.5,30.5c-0.2-0.4-0.5-1.2-0.4-1.3
				C9.5,29.7,9.4,29.9,9.5,30.5z M15.3,41.4c-0.2-0.1-0.4-0.5-0.5-0.8C15,40.8,15.2,41.1,15.3,41.4z M35.8,49.7L35.8,49.7
				C35.2,49.8,35.4,49.8,35.8,49.7z M36.8,49.4c0.1-0.1,0.1-0.1,0-0.1c0,0.1-0.2,0.2-0.5,0.3C36.4,49.6,36.5,49.6,36.8,49.4z
				 M34.6,26.9l-0.3,0c0-0.1,0.1-0.1,0.1-0.1C34.4,26.4,34.5,26.6,34.6,26.9L34.6,26.9z"/>
			<path class="st0" d="M13.4,39c0-0.1,0.1-0.1,0.1-0.1C13.5,38.8,13.4,38.8,13.4,39z"/>
			<path class="st0" d="M9.3,16.4L9.3,16.4c0-0.1,0-0.1,0-0.2L9.3,16.4z"/>
			<path class="st0" d="M19.9,54.7c-0.2-0.1-0.4-0.2-0.4-0.2C19.5,54.5,19.6,54.6,19.9,54.7z"/>
			<path class="st0" d="M41.3,45.8l-0.5,0.5c0.2-0.2,0.4-0.2,0.5-0.3C41.3,46,41.1,46,41.3,45.8z"/>
			<path class="st0" d="M47,42.8c0-0.1,0.1-0.2,0.2-0.3L47,42.4C46.7,42.8,46.6,43.1,47,42.8z"/>
			<path class="st0" d="M42.5,46.2c0.2,0.2,0.5-0.2,0.9-0.6l-0.1,0.1C43.1,45.4,42.8,45.8,42.5,46.2z"/>
			<path class="st0" d="M43.4,45.6c0.1-0.1,0.2-0.2,0.3-0.3C43.6,45.1,43.6,45.4,43.4,45.6z"/>
			<path class="st0" d="M37.9,48.6c0.2,0,0-0.4,0.1-0.3C38.1,47.8,36.9,49.3,37.9,48.6z"/>
			<polygon class="st0" points="43.3,46.6 43,46.5 42.9,46.9 			"/>
			<path class="st0" d="M40,48.9l0.7-0.4c0,0,0-0.1,0.1-0.2C40.4,48.6,39.9,48.8,40,48.9z"/>
			<path class="st0" d="M40.8,48.3c0.2-0.1,0.4-0.3,0.5-0.4C41.2,48,41,48.1,40.8,48.3z"/>
			<polygon class="st0" points="42.5,47.4 42.3,47.5 41.9,47.9 			"/>
			<path class="st0" d="M32,52.3l-0.8,0.3c-0.1,0.1,0.2,0.1,0.5,0C31.8,52.5,32.1,52.4,32,52.3z"/>
			<path class="st0" d="M34.9,52.4c-0.3,0-0.3,0-0.5-0.1l0.1,0.4L34.9,52.4z"/>
			<path class="st0" d="M32.3,53.3c-0.1,0.1-1.2,0.7-0.1,0.3C32.3,53.5,33.2,53.1,32.3,53.3z"/>
			<polygon class="st0" points="18.7,53.3 18.9,53.4 19,52.7 			"/>
			<path class="st0" d="M8.3,49c-0.2,0-0.2,0-0.2,0s0,0,0,0c0,0,0.1,0.1,0.1,0.2c0.1,0.1,0,0,0-0.1C8.1,49,8.3,49,8.3,49
				C8.5,49,8.6,49,8.3,49z"/>
			<path class="st0" d="M8.2,49c-0.1,0,0.1,0.1,0.1,0.1C8.2,49,8.1,49,8.2,49z"/>
			<path class="st0" d="M56.1,21.6c0,0,0.9,0.2,0.9,0.2c0,0-0.6-0.2-0.6-0.2L56.1,21.6z"/>
			<path class="st0" d="M57.9,21.1l0.3,0.4c0,0,0.4-0.6,0.4-0.6C58.5,20.9,58.1,21.1,57.9,21.1z"/>
			<path class="st0" d="M9.8,33.5l0.1,0c0-0.2,0-0.3-0.3-0.8c0,0,0.1,0.2,0.1,0.5C9.7,33.4,9.8,33.5,9.8,33.5z"/>
			<path class="st0" d="M14.4,26.6l-0.3-0.1c0,0,0.1,0.1,0.2,0.2c0.1,0.1,0.1,0.2,0.1,0.2L14.4,26.6z"/>
			<path class="st0" d="M8.7,24c0.1,0.4,0.3,0.8,0.5,1.1C8.8,24.4,9.1,23.7,8.7,24z"/>
		</g>
	</g>
	<g>
		<path class="st1" d="M24.9,43.5c-0.4,0.1-0.3,0.1-0.3,0.1C25.3,43.4,24.9,43.5,24.9,43.5z"/>
		<polygon class="st1" points="31.6,41.2 31.5,41.2 32.5,40.8 		"/>
		<path class="st1" d="M37.9,38.9c-0.6,0.1-2.3,0.8-3.4,1.2l-0.2,0.1l-0.5,0.2C35.1,39.9,36.9,39.3,37.9,38.9z"/>
		<path class="st1" d="M41.2,37.9c-0.2,0,0.7-0.3-0.8,0.3c0.1,0,0.1,0,0.1,0C40.7,38.1,40.9,38,41.2,37.9z"/>
		<path class="st1" d="M40.6,38.1C39.9,38.4,41,38,40.6,38.1L40.6,38.1z"/>
		<path class="st1" d="M43.6,37l-0.9,0.3c0.2,0,1-0.3,0.7-0.2C44.4,36.9,44.2,36.9,43.6,37z"/>
		<path class="st1" d="M44.4,36.7L44,36.9C44.1,36.8,44.2,36.8,44.4,36.7z"/>
		<path class="st1" d="M43.1,37.2l0.9-0.4c-0.1,0-0.2,0-0.4,0.2C43.6,37,43.5,37.1,43.1,37.2z"/>
		<path class="st1" d="M42.5,37.4c-0.5,0.2-1.1,0.4-0.3,0C40.6,38,40.9,38,42.5,37.4z"/>
		<path class="st1" d="M38.1,38.7L37.5,39l-0.6,0.2C37.2,39.1,38.2,38.8,38.1,38.7z"/>
		<path class="st1" d="M49.1,35.2c0,0-0.3,0-0.4,0L48,35.5C48.4,35.4,49,35.2,49.1,35.2z"/>
		<path class="st1" d="M48.7,35.2l0.9-0.4C48.8,35.2,48.6,35.2,48.7,35.2z"/>
		<polygon class="st1" points="44.6,36.5 43,37.2 44.9,36.4 		"/>
		<polygon class="st1" points="52.7,33.9 52.2,34.2 53.1,33.7 		"/>
		<path class="st1" d="M55.2,33.1c-0.4,0.2,0.6-0.1,0.2,0.1c0.6-0.2,1.1-0.4,1.7-0.6C56.5,32.7,55.9,32.8,55.2,33.1z"/>
		<path class="st1" d="M57.8,32.2c-0.3,0.1-0.5,0.2-0.8,0.3C57.3,32.4,57.5,32.3,57.8,32.2z"/>
		<path class="st1" d="M51.3,34.3c0.1,0,0.2,0,0.8-0.2l-0.4,0.1C51.5,34.2,51.4,34.3,51.3,34.3z"/>
		<path class="st1" d="M51.6,34.2L51.6,34.2c0.4-0.1,0.7-0.2,0.8-0.3C52.4,33.9,52.1,34,51.6,34.2z"/>
		<path class="st1" d="M51.2,34.3C51.2,34.3,51.2,34.3,51.2,34.3C51.2,34.3,51.2,34.3,51.2,34.3z"/>
		<path class="st1" d="M47.1,35.7c0.6-0.2,1.7-0.7,0.6-0.3C47.3,35.6,47.9,35.4,47.1,35.7z"/>
		<path class="st1" d="M50.7,34.4l-1,0.3c0,0,0.2,0-0.1,0.1L50.7,34.4z"/>
		<polygon class="st1" points="51.2,34.2 50.7,34.4 51.1,34.3 		"/>
		<path class="st1" d="M56.1,32.7c0.4-0.2,0.9-0.3,1.5-0.5c-0.6,0.1-1.2,0.3-1.8,0.5C55.7,32.7,55.5,32.9,56.1,32.7z"/>
		<path class="st1" d="M53.9,33.4L53.9,33.4C54,33.3,53.9,33.4,53.9,33.4z"/>
		<polygon class="st1" points="55.3,33.4 55.4,33.4 55.4,33.4 		"/>
		<path class="st1" d="M55.7,32.7c-0.4,0.1-0.7,0.2-0.9,0.3c0.3-0.1,0.7-0.2,1-0.4C55.8,32.7,55.8,32.7,55.7,32.7z"/>
		<path class="st1" d="M58.4,31.6C58.4,31.5,58.5,31.5,58.4,31.6c0.1,0,0.2,0,0.3,0.1c0,0,0.1,0,0.1,0.1c0.1,0,0,0,0.1,0
			c-0.1,0.1-0.1,0.2-0.1,0.3c0,0.1,0,0,0,0l-0.1,0c0,0,0.1,0,0.1,0c0,0.2,0.1-0.4,0.1-0.4c0,0,0,0-0.1,0c-0.1,0-0.1,0-0.1-0.1
			C58.4,31.5,58.4,31.5,58.4,31.6C58.4,31.5,58.4,31.5,58.4,31.6z"/>
		<path class="st1" d="M54.2,33.3L54.2,33.3C54.2,33.3,54.2,33.3,54.2,33.3z"/>
		<path class="st1" d="M54.2,33.3l0.6-0.2c-0.3,0.1-0.5,0.2-0.7,0.3C54.1,33.3,54.1,33.3,54.2,33.3z"/>
		<path class="st1" d="M53.9,34.6c0-0.1,1.1-0.7,2.1-1.1c0.9-0.5,0.2-0.4-0.7-0.2c0,0,0,0.1-0.9,0.6c0.4-0.1,2.2-0.9,1.4-0.5
			c-1.3,0.6-1.1,0.5-1.7,0.7c0.6-0.1-1.6,0.9-1.2,0.9l1.1-0.5C54,34.5,53.6,34.7,53.9,34.6z"/>
		<path class="st1" d="M57.2,32.5l0.4-0.2c-0.4,0.2-0.8,0.4-1.4,0.6c-0.6,0.4-0.8,0.4-0.8,0.5c0,0,0.5-0.2,1-0.5
			c0.5-0.2,0.9-0.5,0.9-0.5L57.2,32.5z"/>
		<path class="st1" d="M58.6,32l0.1,0l0,0c0,0,0-0.2,0.1-0.2c0,0,0.1,0-0.1,0c-0.1,0-0.2-0.1-0.2-0.1c0,0,0,0.1-0.1,0.1
			c-0.1,0.1-0.2,0.2,0.1,0.1c0.1,0,0.1-0.1,0.1-0.1c0,0,0,0,0,0c0,0,0.1,0,0.1,0c0,0,0,0,0,0.1c0,0.1-0.1,0-0.2,0.1
			c-0.1,0-0.2,0-0.3,0.1c-0.2,0.1-0.3,0.1-0.6,0.2C59.6,31.7,57.2,32.1,58.6,32c-0.4,0-0.7,0.1-1,0.2C57.9,32.1,58.2,32,58.6,32
			L58.6,32L58.6,32L58.6,32c-0.2,0-0.2,0-0.1,0C58.5,32,58.5,32,58.6,32C58.5,32,58.5,32,58.6,32c0.1,0,0.1,0.1,0.2,0
			c0-0.1,0-0.1,0,0.1C58.7,32,58.6,32,58.6,32L58.6,32L58.6,32c-0.1,0,0.1,0,0.1,0l0,0c0-0.1,0-0.1,0-0.1c0-0.1,0.1-0.2,0.1-0.2
			c0,0,0,0-0.1,0c0,0-0.1,0-0.1-0.1l-0.2-0.1c0,0-0.1,0.1-0.2,0.2c-0.4,0.3-0.8,0.6-0.8,0.6c0.2-0.1,0.4-0.2,0.6-0.4
			c0.1-0.1,0.3-0.2,0.3-0.3c0,0,0,0,0,0c0,0,0,0,0.1,0c0.1,0,0.1,0.1,0.2,0.1c0,0,0,0,0,0c-0.1,0.1-0.1,0.1-0.1,0.2c0,0.1,0,0,0,0
			C58.7,32,58.6,32,58.6,32z"/>
		<path class="st1" d="M48.6,34.9C48.7,34.9,48.7,34.9,48.6,34.9C48.8,34.8,48.9,34.8,48.6,34.9z"/>
		<path class="st1" d="M49.5,34.6c-0.1,0.1-0.2,0.1-0.7,0.3c-0.4,0.1,0,0,0,0c-0.3,0.1-1,0.4-0.1,0.1l0.1-0.1
			c0.8-0.3,1.8-0.6,1.7-0.5C50.2,34.4,50,34.5,49.5,34.6z"/>
		<path class="st1" d="M54.1,33.1l1.6-0.6l-0.9,0.2l0.1,0C54,33.1,54.2,33,54.1,33.1z"/>
		<polygon class="st1" points="55.1,33.4 55.2,33.3 54.4,33.8 		"/>
		<polygon class="st1" points="53,34.4 53.1,34.3 52.6,34.5 		"/>
		<path class="st1" d="M58.5,38L58,38.2C58.2,38.1,58.4,38,58.5,38z"/>
		<path class="st1" d="M61.9,36.5L61.9,36.5C61.8,36.5,61.7,36.6,61.9,36.5z"/>
		<path class="st1" d="M11.5,53.5c0.8,0,1.6,0,1.5-0.1l-0.3-0.1C12.3,53.4,11.9,53.5,11.5,53.5z"/>
		<path class="st1" d="M47,39.8l-0.2,0.1c-0.2,0.1-0.3,0.2-0.4,0.3C46.5,40,46.8,39.9,47,39.8z"/>
		<path class="st1" d="M47.3,39.3l0.9-0.3C48,39.1,47.7,39.1,47.3,39.3z"/>
		<path class="st1" d="M39.9,45.7L39.3,46C40.2,45.7,39.8,45.8,39.9,45.7z"/>
		<path class="st1" d="M31.4,42.4c-0.6,0.2-1.1,0.3-1.5,0.5C30.7,42.6,31.3,42.5,31.4,42.4z"/>
		<path class="st1" d="M59.5,36.6c-0.3,0.1-0.4,0.2-0.4,0.2C59.4,36.7,59.5,36.6,59.5,36.6z"/>
		<path class="st1" d="M28.2,43.4c0.1,0,0.2-0.1,0.3-0.1c0.4-0.2,0.9-0.3,1.4-0.5C29.4,43,28.7,43.2,28.2,43.4z"/>
		<path class="st1" d="M41.9,46.3l0.2-0.1C42.1,46.3,42,46.3,41.9,46.3z"/>
		<path class="st1" d="M61.6,38.4c-0.2,0.1-0.5,0.2-0.8,0.4C61,38.7,61.2,38.6,61.6,38.4z"/>
		<path class="st1" d="M44.6,37.6C45,37.4,44.7,37.5,44.6,37.6L44.6,37.6z"/>
		<path class="st1" d="M46.9,37.1c-0.1,0-0.2,0.1-0.2,0.1C46.8,37.2,46.8,37.2,46.9,37.1z"/>
		<path class="st1" d="M23.9,45.7L23.9,45.7C24,45.7,24,45.7,23.9,45.7z"/>
		<path class="st1" d="M45.3,37.4c-0.2,0.1-0.4,0.1-0.6,0.2C44.8,37.5,45,37.5,45.3,37.4z"/>
		<path class="st1" d="M45.2,37.4c0.2-0.1,0.3-0.1,0.4-0.1C45.6,37.2,45.6,37.2,45.2,37.4z"/>
		<path class="st1" d="M44,37.8c0.3-0.1,0.5-0.2,0.7-0.3c-0.1,0-0.1,0-0.1,0C44.5,37.6,44.3,37.7,44,37.8z"/>
		<path class="st1" d="M8.3,58.1C8.3,58.2,8.2,58.2,8.3,58.1C7.8,58.4,8,58.3,8.3,58.1z"/>
		<polygon class="st1" points="23.1,48.6 23,48.6 23.1,48.6 		"/>
		<path class="st1" d="M24.7,47.9c-0.6,0.4-1,0.5-1.6,0.7l0.6,0.1L24.7,47.9z"/>
		<path class="st1" d="M50.3,41.4l1.1-0.4c-1.3,0.7-2.3,1-1.2,0.7c0.1-0.3,4.3-1.8,4.4-2.1l0.8-0.3c-0.2,0.1-0.2,0.1-0.4,0.2
			c1.5-0.5,1-0.6,2.8-1.3c0.6-0.3,1.1-0.4,0.7-0.2l1.4-0.7c0.4-0.2,0.3-0.1-0.1,0.1l2.2-1l0,0c0.3-0.2,1-0.6,1.3-0.7
			c0.6-0.2-0.3,0.2-0.1,0.1l1.1-0.6c0.5-0.2-0.4,0.4-1.3,0.8c1.2-0.3,1-0.5,3.4-1.6l-1.1,0.6c0.8-0.3,1.6-0.7,2.9-1.5
			c-0.3,0.2-2.6,1.3-1.4,0.5c0.4-0.2,0.8-0.4,1.5-1c0,0,0.1,0,0.2-0.1c0,0,0.1-0.1,0.2-0.2c0-0.1,0.1-0.2,0.1-0.4
			c-0.1-0.3-0.2-0.4-0.4-0.4c-0.6-0.1-0.9,0-1.4,0.1l0-0.1c-1,0.3-0.9,0.3-1.5,0.6c-1.1,0.3-1.3,0.3-1.6,0.3
			c-1.7,0.6,1.2-0.3-0.8,0.5c-1.4,0.5-2.4,0.9-4.1,1.6c-1,0.3,0.1-0.1-0.2,0l-0.8,0.4c-0.2,0.1-0.2,0-0.1,0c-0.7,0.3,0,0.1-1.2,0.6
			c-0.3,0.3-2.4,0.7-3.8,1.4c-0.4,0.1,0.1-0.1,0-0.1c-1.9,0.9-1.6,0.7-3.2,1.5L48.3,39c1-0.3-0.2,0.3-1.3,0.8
			c0.4-0.1,0.7-0.2,0.9-0.2l-1.8,0.8c-0.2,0.1-0.1-0.1,0.2-0.2c-0.1,0.1-0.2,0.1-0.3,0.2c-0.7,0.2-0.4,0,0.1-0.3
			c0.2-0.1,0.5-0.1,0.7-0.2c0.4-0.3,0.8-0.5,0.7-0.5c-0.1,0.1-0.3,0.2-0.6,0.3c0.1-0.1,0.2-0.1,0.1-0.1c-0.1,0-0.2,0.1-0.5,0.3
			l-0.5,0l-0.1,0.1l-2.4,0.8c-1.6,0.8-3,1.6-5.6,2.7C38.5,43,38,43.1,38,43c0.8-0.1,2-0.9,3.4-1.4c-0.7,0.3-0.6,0.1-0.4,0.1
			l-2.4,1.1c0-0.1-0.6,0.1-1.2,0.3c0.6,0-1.8,0.9-2.8,1.3c-0.1,0,0.1-0.2,1.3-0.7c-1.4,0.4-1.6,0.9-3,1.3c0.3-0.1,0.5-0.2,0.6-0.3
			c-0.7,0.3-2.4,0.9-2,0.7l0.3-0.1c-2,0.7-6,2.3-6.2,2.6c0,0,0.2-0.3,0.3-0.4l-3.3,2c0.2-0.3-1.1-0.2,0.5-1c-0.5,0.2-1.1,0.3-2,0.8
			c0.3-0.1,0.9-0.1,0.5,0.1c-1.3,0.3-0.9,0.2-2.4,0.6c0.5-0.1,0.1,0.3-0.7,0.6c0.1-0.1-0.2-0.2,0.1-0.4l-1.8,1
			c0.5-0.2,0-0.3-0.5-0.2c0.2,0-1.6,0.6-2.1,0.7c0,0,0.2,0,0.4-0.1c0.2,0,0.4-0.1,0.4-0.1c-2.2,0.5-2.1,1-4.3,1.2
			c0.3-0.1,0.6-0.4-0.5-0.4c-0.3,0.1-0.8,0.3-1.6,0.5c-0.4,0.1-1,0.1-1.5,0c-0.3-0.1-0.5-0.1-0.7-0.3c-0.2-0.3,0-0.5,0.1-0.7
			c0,0,0.4-0.3,0.4-0.3c0,0,0.3-0.3,0.7-0.5c0.4-0.2,0.9-0.5,0.9-0.5c-0.6,0.4-1.4,0.9-1.6,1.5c0,0.2,0.4,0.3,0.6,0.4
			c0.3,0,0.5,0,0.7,0c0.4,0,0.7-0.1,0.9-0.1c-0.4-0.1-0.1-0.1-0.6-0.1c0-0.1,0.4-0.1,0.5-0.1c0,0-0.2,0-0.4-0.1
			c-0.3-0.1,0.1-0.3,0.1-0.2c-0.4,0,0.4-0.4,0.6-0.6c-0.4,0.1-1.4,0.8-1,0.9c-0.1,0-0.3,0.1-0.4,0c-0.1-0.1-0.1-0.2,0-0.4
			c0.2-0.3,1-0.7,2-1c0.5-0.1-0.3,0.4-0.2,0.5c0.2-0.2,1.9-0.8,2.1-0.8l-0.8,0.4c1.1-0.3,1.7-0.9,3.1-1.2c0.5-0.2,1.5-0.3,1.5-0.4
			c-0.8,0.1-1.2-0.5-0.7-0.8c0.2,0,2.5-0.7,3.1-0.8c0.8-0.1-1,0.8-0.3,0.7c0-0.1,0.4-0.3,0.6-0.3c0.5-0.1-0.2,0.2,0.9-0.2
			c0.1-0.2,2.1-0.7,0.4-0.3c1-0.4,1.1-0.4,2.3-0.8c-0.4,0,1-0.8,2-1.2c0,0.1,0.2,0,0.3,0c2.1-0.7,3.3-1.1,5.3-1.8
			c0.2,0,1.2-0.3,0.8-0.1c0.3-0.1,0.5-0.3,1.1-0.5c1.2-0.3-1.3,0.5-0.4,0.4c0-0.1,1.5-0.7,2.4-1.1c-0.3,0-2,0.7-2.9,1.1
			c-0.1-0.2,1.4-0.9,3.4-1.8c1.6-0.6,0.8-0.1,1-0.3c3.1-1.1,2.5-1.3,5.1-2c1.1-0.2,0.1,0.2,0.4,0.2c-1.3,0.5-2.1,0.7-3,1l1.1-0.3
			c-0.4,0.2-1.3,0.5-1.8,0.7c0.9-0.2,5.2-1.8,7.6-2.6c0.4-0.2,1.1-0.5,0.8-0.4l-0.7,0.3c-0.7,0.2,1.4-0.6,0.4-0.3
			c1-0.4,2.1-0.9,3.5-1.4l0.3,0c0,0-0.9,0.3-1.3,0.5c0.6-0.3,2.2-0.7,2.8-1.1l-1,0.3c1-0.4,2.2-1,3.4-1.5c-0.6,0.1-0.3,0.1-1.2,0.3
			c0.8-0.1-3.2,1.2-1.9,0.9c-1,0.2-1.6,0.5-2.8,0.8c0.1,0,0.5-0.1-0.6,0.3c-0.1,0-0.2,0.1-0.2,0.1c0,0,0,0-0.1,0l0.1,0c0,0,0,0,0,0
			c0.3-0.1,0.5-0.1,0.6-0.1c-0.5,0.3-2.2,0.9-2.7,1.2c-0.6,0.2,0.2-0.1-0.1-0.1l-0.8,0.4c-0.1-0.1-1.7,0.4-0.3-0.1L40.7,39
			c-0.8,0.2-1.9,0.6-2.5,0.9c-0.6,0.2-1.5,0.7-1,0.4l-2.1,0.8l0,0c-2.1,0.7-4.2,1.7-6.6,2.3c-0.7,0.3-1.4,0.6-2.6,0.9l-0.3,0
			c-0.9,0.3-2.7,0.8-3,1.1c-1,0.1-4.3,1.4-5.9,1.9l0,0.1c-1.1,0.4-2.1,0.8-3.4,1.3l0.1,0.1c-1.1,0.5-3,0.9-4.8,1.6
			c0.1-0.1,0.6-0.3,0.9-0.3c-0.6,0.1-1,0.3-2.1,0.7c-0.9,0.4-1.4,0.9-1.6,1.4c-0.1,0.3,0.1,0.7,0.4,0.8c0.2,0.2,0.6,0.3,0.9,0.4
			c0.7,0.2,1.7,0.2,2.2,0.2c0.5-0.1,0.9-0.1,1.3-0.1l-0.1,0c0.1,0,0.1,0,0.2,0c0.2,0,0.5,0,0.7,0c-0.2,0-0.5,0-0.6,0
			c0.4,0,1-0.1,1.6-0.3l0.3,0.1c0,0,0.1,0,0.1,0c0.6-0.1,0.5-0.1,0.1-0.2c0.3-0.1,0.6-0.2,0.8-0.2c0.5,0.1,1.5-0.5,2.2-0.5
			c0.3-0.2,2.8-1.1,3-1.4c0,0,0.2,0-0.1,0.1c0.6-0.2,1.3-0.4,1.8-0.7l0.3,0l1.3-0.7c0.9-0.2,1.2-0.3,0.4,0.1
			c1.9-0.9,1.6-0.7,3.2-1.5l0,0.1c0.6-0.2,1.5-0.7,1.9-0.8c1.4-0.4,6.6-2.6,10.1-3.8c-0.8,0,1.6-0.5,1.7-0.8c0.2,0,0.7-0.2,0.2,0.1
			c1.7-0.7,2.7-1,3.8-1.6c0.2,0-0.3,0.2-0.2,0.2c0.1-0.1,0.5-0.3,0.7-0.3c0.2,0-0.2,0.1-0.5,0.3c1.8-0.7,1.9-1,2-1.2
			c0.9-0.3,1.4-0.5,2-0.8c0.3-0.1,0.9-0.2-0.2,0.2c0.6-0.2,3.9-1.4,3.9-1.6c0.2,0,0.9-0.3,1-0.4c1.4-0.5,1.5-0.6,2.9-1.1L55,37
			c0.5-0.4,1.1-0.5,2.2-0.9l0,0c2.6-0.9,1.1-0.5,3.7-1.3l-0.2,0c0.2-0.3,2.3-0.7,3.7-1.3l-0.6,0.1c0.8-0.3,2.4-0.5,3.2-0.7
			c0.2,0-0.3,0.1-0.5,0.2c1.1-0.2,1.1-0.2,1.1-0.3c0,0,0,0,0.1-0.1c0,0,0.1,0,0.2-0.1c0,0,0.1,0,0.1,0c0,0.1,0-0.2,0.1-0.2
			c0.1,0,0,0,0,0c-0.1,0-0.1,0-0.2-0.1c-0.2-0.1-0.1-0.1-0.2-0.1c0,0,0,0-0.4,0.3c-0.4,0.3-2.7,1.8-4.1,2.4c0.3-0.1,0.6-0.2,0,0.2
			c-1.1,0.6-3,1.2-3.9,1.8c-0.1,0-0.2,0.1-0.2,0.1c-0.8,0.4-2.7,1.2-3.2,1.5c-0.9,0.1-5.2,2.3-5.3,2.1l-2.6,1.1l0.1-0.1
			c-1.7,0.7-2.2,1-2.8,1.3c-0.4,0.1-0.1,0-0.1,0c-2.4,1-2.7,1.1-4.7,2l-0.2,0c-0.5,0.3-3.6,1.3-5.9,2.4c0,0,0.1-0.1,0.2-0.1
			c-2.7,1.2-6.5,2.4-7.4,3.1l-1.7,0.8c2.3-0.9-0.3,0.2,0.7-0.1c-0.9,0.4-2.4,0.9-1.3,0.4l0.2-0.1c0.4-0.3-2.9,1.1-2.8,1
			c-4.5,1.8-8.9,3.6-13.2,5.3l0.5-0.1l-1.5,0.6C7.7,58,7.6,58,8.6,57.6c-0.3,0.1-0.7,0.3-1.1,0.4c-0.4,0.2-0.7,0.3-0.7,0.3
			c-0.1,0-0.1,0-0.2,0.1l-0.1,0l0,0c0,0,0,0-0.1,0.1c-0.1,0,0,0.3,0.1,0.3c0.1,0,0.1,0,0.1,0l0.1,0c0.1,0,0.2,0,0.2,0
			c0.1,0,0.2,0,0.2,0c0,0-0.1,0.1-0.3,0.1l-0.2,0c0,0,0,0-0.1,0c0,0-0.1-0.1-0.2-0.2c0-0.1,0-0.2,0-0.2c0-0.1,0-0.1,0.1-0.1
			c0,0,0,0,0,0l0.1,0l0.1,0c0.1,0,0.2-0.1,0.3-0.1c0.1-0.1,0.2-0.1,0,0c0,0-0.2,0.1-0.5,0.2l-0.1,0c0,0,0,0-0.1,0.1
			c0,0-0.1,0.1,0,0.2c0.1,0.1,0.1,0.1,0.2,0.2c0.1,0,0.1,0,0.1,0l0.1,0l0.1,0c0.1,0,0.1,0,0.1,0c0.1,0,0.1,0,0.1,0l-0.2,0
			c0.7-0.2,0.8-0.3,2.1-0.6c0.8-0.2,0.4-0.1,0.8-0.1c0,0,0.1,0,0.5-0.1l1.9-0.5l-0.8,0.1c0.9-0.2,1.8-0.5,0.9-0.3
			c0.7-0.1,2.5-0.5,4.2-1c1.7-0.6,3.2-1.2,3.7-1.4c1.2-0.5,2.3-0.9,3.7-1.4c-0.4,0.1-0.6,0.1,0.6-0.3c-0.4,0.3,2.3-0.8,3.3-1.1
			c-0.9,0.3,3.5-1.3,2.1-0.9c1-0.4,0.1,0,0.9-0.3c2.6-1,5.4-2.1,8.4-3.2c0,0-0.5,0.1,0.2-0.1l1.6-0.6c0.6-0.2,0.5-0.3,1.6-0.7
			c-0.2,0.1-0.4,0.1,0,0c5.9-2.3,12-4.9,17.8-7.4c-0.8,0.3-0.3,0.1,0.3-0.2c-0.4,0.2,0,0-0.1,0l2.4-1.1c0.4-0.2,2.6-1.3,2.8-1.4
			l-0.8,0.4c1-0.5-1.4,0.7-1.3,0.6c-1.1,0.6-3,1.4-4.9,2.2c-0.4,0.2,0.4-0.2,0.1-0.1c-0.5,0.2-1.1,0.5-2.1,0.9l0.1-0.1
			c-3,1.3-4.4,1.8-7.8,3.2l0.3-0.1c-0.7,0.3-0.9,0.3-1.3,0.5c-0.8,0.4,2.1-0.8,1.3-0.5c-1,0.3-5.2,2.1-5.9,2.3
			c-1.1,0.4,0.3-0.1-0.8,0.4l-0.3,0.1l-0.3,0.1c-0.8,0.3-1.1,0.4-1.2,0.4c0.2-0.1,0.5-0.2,0.7-0.3c-1.1,0.4-2.7,1-3.1,1.2l1.1-0.4
			c-3.1,1.2-6.8,2.6-10,3.8l0.2-0.1c-2.3,0.9-1.9,0.7-4.4,1.6l0.1,0c-0.5,0.2-1.2,0.5-1.9,0.7c0.6-0.3-1.2,0.4-0.4,0.1
			c-2.5,1-1.2,0.5-2.9,1.2l-0.4,0.1c-0.6,0.2-0.6,0.3-1.9,0.8c1-0.4-0.8,0.2,0.3-0.2c-2.7,1-4,1.4-5.3,1.6c-1.2,0.4,2.4-0.5,1.7-0.3
			c0.6-0.1-1,0.3-1.9,0.6c-0.9,0.2-1.5,0.2-3.8,0.8c0.2-0.1,0.2-0.1,0.5-0.1c-0.8,0.2-1.6,0.4-2.7,0.6c-0.1,0.1-0.3,0.1-0.4,0.1
			c-0.1,0-0.2,0-0.2,0.1l-0.1,0c0.2,0.5,0.1,0.4,0.1,0.4l0,0c0.3-0.1,0.5-0.2,0.6-0.3c0,0-0.1,0-0.3,0.1c-0.1,0-0.2,0.1-0.3,0.1l0,0
			l0-0.1c-0.2-0.2,0.1,0.2,0.1-0.1c-0.2-0.3-0.2-0.1-0.2-0.1l0,0l0,0l0.1,0l0.2,0c0.5-0.1,1-0.3,1-0.3c-0.3,0.1-0.6,0.2-0.9,0.2
			c-0.1,0-0.3,0.1-0.4,0.1c0,0-0.1,0,0,0c0.1,0,0.1,0.3,0,0.2c0,0,0,0-0.1-0.1l0.1,0.1c0,0,0,0,0,0l0,0l0.1,0l0.2-0.1
			c0.6-0.3,1.3-0.6,2.3-0.9c-0.1,0.1-0.7,0.3-1,0.5c0.6-0.3,0.9-0.4,1.6-0.6c-0.1,0.1-0.6,0.3-1.4,0.6c-0.4,0.1-0.8,0.3-1.1,0.5
			l-0.5,0.2l-0.1,0c0,0,0,0,0,0c0,0,0,0,0,0c0,0-0.2-0.2-0.1-0.1c0,0,0,0,0.1,0c0,0,0.1-0.2,0-0.3c-0.3-0.1-0.1,0-0.2,0l0,0l0,0
			l0.1,0L7,58.3c-0.1,0-0.2,0-0.3,0.1l-0.1,0c0,0-0.1,0,0,0c0,0,0.2,0.1,0.2,0.3c-0.1,0.1-0.1,0-0.1,0l0,0l0,0.1l0.1,0.1
			c0,0,0,0,0,0l0.2-0.1c0.2-0.1,0.5-0.2,0.7-0.3C8,58.3,8.3,58.2,8,58.4c0.8-0.5,2.1-0.8,3.5-1.5L11.5,57c0.2-0.1,0.7-0.3,1.1-0.5
			l-0.7,0.4c1.1-0.5,2.3-0.8,3.4-1.3c-2.3,0.9-0.6,0.1-1.6,0.5c2.9-1.2,1.7-0.5,4.9-1.8c-0.4,0.2-1.7,0.6-1,0.3
			c0.6-0.2,1.4-0.5,1.8-0.7c2.1-0.9-0.4,0.1,0.5-0.3c0.8-0.2,1-0.4,2-0.8l0,0.1c2.5-0.9,0.6-0.4,2.8-1.2L23.9,52l1.1-0.5l-0.2,0.2
			c1.2-0.6,1.6-0.7,2.8-1.2c-0.3,0.1,0.1-0.2,1.2-0.6c0.8-0.3-0.4,0.2,1.1-0.4c-0.3,0.2-0.7,0.4-1.4,0.6c-0.1,0.1-0.3,0.2-0.4,0.2
			c0.8-0.3,2-0.8,2.6-1c-0.2,0.1-0.4,0.2-0.6,0.2l2.2-1c0.4-0.1,0.1,0-0.2,0.1c0.4-0.2,0.8-0.3,1.4-0.6c-0.1,0.1-0.1,0.2-1,0.6
			l2.1-0.9c0.2,0,1.1-0.4,0.8-0.2c1.2-0.4,2.8-1.3,4.4-1.9c0.1,0,0.2-0.1,0.6-0.3c1.5-0.6,2.8-1,4.5-1.8l1-0.3
			c1.3-0.6-1.4,0.4,0.9-0.6c1.6-0.7,0.6-0.1,1.2-0.3c0.8-0.4,2.1-1.1,3.6-1.6C51.2,41.1,50.8,41.2,50.3,41.4z M66.8,34
			c-0.3,0.2-0.9,0.6-1.1,0.7C65.9,34.3,66.2,34.2,66.8,34z M44.4,40.6c0.2-0.1,0.6-0.3,1-0.4C45.2,40.3,44.8,40.5,44.4,40.6z
			 M39.7,39.4L39.7,39.4C38.9,39.7,39.2,39.6,39.7,39.4z M41.2,38.9C41.4,38.9,41.4,38.9,41.2,38.9c0,0-0.4,0.1-0.8,0.2
			C40.6,39.2,40.8,39.1,41.2,38.9z M10,58.1l-0.3,0.1C10.3,57.9,10.2,58,10,58.1z"/>
		<path class="st1" d="M47.3,39.3c0.1,0,0.1,0,0.2,0C47.6,39.3,47.6,39.3,47.3,39.3z"/>
		<path class="st1" d="M40,45.7L40,45.7C39.9,45.7,39.9,45.7,40,45.7L40,45.7z"/>
		<path class="st1" d="M18,48.3c-0.3,0.1-0.5,0.1-0.6,0.2C17.3,48.5,17.5,48.4,18,48.3z"/>
		<path class="st1" d="M49.2,35.8l-1,0.4C48.7,36,48.9,36,49.2,35.8C49.1,35.9,48.9,35.9,49.2,35.8z"/>
		<path class="st1" d="M57.6,32.7c0.2-0.1,0.2-0.2,0.4-0.3l-0.1,0C57.4,32.8,57,33,57.6,32.7z"/>
		<path class="st1" d="M50.2,35.8c0.1,0,0.7-0.2,1.4-0.5l-0.1,0C51.6,35.1,50.9,35.5,50.2,35.8z"/>
		<path class="st1" d="M51.7,35.2l0.6-0.3C52.4,34.9,52.1,35.1,51.7,35.2z"/>
		<path class="st1" d="M43.2,38.2c0.3-0.1,0.2-0.2,0.4-0.2C43.8,37.7,41.4,38.9,43.2,38.2z"/>
		<polygon class="st1" points="50.9,35.8 50.6,35.8 50.2,36.1 		"/>
		<path class="st1" d="M45.5,37.8l1.1-0.4c0,0,0.1-0.1,0.3-0.1C46.2,37.5,45.5,37.8,45.5,37.8z"/>
		<path class="st1" d="M46.9,37.3c0.3-0.1,0.7-0.3,0.9-0.3C47.6,37,47.2,37.2,46.9,37.3z"/>
		<polygon class="st1" points="49.4,36.4 49.1,36.5 48.3,36.8 		"/>
		<path class="st1" d="M33.8,42l-1.2,0.5c-0.1,0.1,0.2,0,0.7-0.2C33.5,42.2,34,42,33.8,42z"/>
		<path class="st1" d="M37.5,41c-0.3,0.1-0.4,0.1-0.6,0.1l0,0.2L37.5,41z"/>
		<path class="st1" d="M34,42.3c-0.1,0.1-1.7,0.7-0.2,0.2C34,42.4,35.1,42,34,42.3z"/>
		<polygon class="st1" points="16,48.5 16.3,48.4 16.2,48.2 		"/>
		<path class="st1" d="M12.5,52c-1.4,0.1-0.3,0.2-1.6,0.3c-0.3,0.1,1.1-0.1,0.7,0C12.4,52.1,12.9,52.1,12.5,52z"/>
		<path class="st1" d="M11.6,52.3c-0.1,0-0.3,0.1-0.4,0.1C11.4,52.4,11.5,52.3,11.6,52.3z"/>
		<polygon class="st1" points="64.8,36.9 65.7,36.4 65.1,36.7 		"/>
		<path class="st1" d="M66.5,36l0.2-0.1l0.5-0.3C67,35.8,66.8,35.9,66.5,36z"/>
		<path class="st1" d="M67.6,31.6L67.6,31.6c0.1,0,0.2,0,0.3,0c0.1,0,0.2,0,0.5,0.1c0.1,0,0.2,0.1,0.3,0.2c0.1,0.1,0.2,0.4,0.2,0.5
			c0,0.3-0.1,0.4-0.2,0.5c0,0,0.1,0,0.2-0.3c0-0.1,0.1-0.2,0.1-0.3c0-0.2-0.1-0.4-0.2-0.5c-0.1-0.1-0.2-0.1-0.3-0.2l-0.2,0
			C67.8,31.6,67.6,31.6,67.6,31.6z"/>
		<polygon class="st1" points="57.4,38.6 57.6,38.5 57.2,38.5 		"/>
		<path class="st1" d="M47.3,42.9c0.4-0.2,0.9-0.4,1.3-0.6C47.7,42.7,47.1,42.8,47.3,42.9z"/>
	</g>
</g>
</svg>
